<ttFont>
    <TTGlyph name=".notdef" xMin="15" yMin="-500" xMax="649" yMax="1050">
      <contour>
        <pt x="15" y="-500" on="1"/>
        <pt x="233" y="1050" on="1"/>
        <pt x="649" y="1050" on="1"/>
        <pt x="431" y="-500" on="1"/>
      </contour>
      <contour>
        <pt x="77" y="-448" on="1"/>
        <pt x="384" y="-448" on="1"/>
        <pt x="587" y="998" on="1"/>
        <pt x="280" y="998" on="1"/>
      </contour>
      <contour>
        <pt x="396" y="451" on="0"/>
        <pt x="442" y="400" on="0"/>
        <pt x="442" y="358" on="1"/>
        <pt x="442" y="340" on="0"/>
        <pt x="440" y="331" on="1"/>
        <pt x="433" y="279" on="0"/>
        <pt x="383" y="225" on="0"/>
        <pt x="333" y="218" on="1"/>
        <pt x="324" y="170" on="1"/>
        <pt x="323" y="160" on="0"/>
        <pt x="309" y="149" on="0"/>
        <pt x="300" y="149" on="1"/>
        <pt x="289" y="149" on="0"/>
        <pt x="274" y="165" on="0"/>
        <pt x="275" y="176" on="1"/>
        <pt x="284" y="257" on="1"/>
        <pt x="338" y="260" on="0"/>
        <pt x="383" y="297" on="0"/>
        <pt x="389" y="339" on="1"/>
        <pt x="391" y="353" on="0"/>
        <pt x="391" y="359" on="1"/>
        <pt x="391" y="381" on="0"/>
        <pt x="369" y="403" on="0"/>
        <pt x="341" y="403" on="1"/>
        <pt x="310" y="403" on="0"/>
        <pt x="287" y="390" on="1"/>
        <pt x="275" y="389" on="1"/>
        <pt x="262" y="389" on="0"/>
        <pt x="249" y="406" on="0"/>
        <pt x="251" y="417" on="1"/>
        <pt x="253" y="434" on="0"/>
        <pt x="310" y="451" on="0"/>
        <pt x="343" y="451" on="1"/>
      </contour>
      <contour>
        <pt x="303" y="120" on="0"/>
        <pt x="322" y="100" on="0"/>
        <pt x="322" y="86" on="1"/>
        <pt x="322" y="70" on="0"/>
        <pt x="301" y="48" on="0"/>
        <pt x="286" y="48" on="1"/>
        <pt x="270" y="48" on="0"/>
        <pt x="251" y="73" on="0"/>
        <pt x="254" y="90" on="1"/>
        <pt x="255" y="103" on="0"/>
        <pt x="274" y="120" on="0"/>
        <pt x="288" y="120" on="1"/>
      </contour>
    </TTGlyph>
    <TTGlyph name="A" xMin="-32" yMin="0" xMax="524" yMax="689">
      <contour>
        <pt x="141" y="173" on="1"/>
        <pt x="65" y="0" on="1"/>
        <pt x="-32" y="0" on="1"/>
        <pt x="284" y="689" on="1"/>
        <pt x="403" y="689" on="1"/>
        <pt x="524" y="0" on="1"/>
        <pt x="427" y="0" on="1"/>
        <pt x="400" y="173" on="1"/>
      </contour>
      <contour>
        <pt x="332" y="610" on="1"/>
        <pt x="174" y="250" on="1"/>
        <pt x="388" y="250" on="1"/>
      </contour>
    </TTGlyph>
    <TTGlyph name="AE" xMin="-49" yMin="0" xMax="775" yMax="689">
      <contour>
        <pt x="470" y="387" on="1"/>
        <pt x="723" y="387" on="1"/>
        <pt x="713" y="311" on="1"/>
        <pt x="479" y="311" on="1"/>
        <pt x="504" y="76" on="1"/>
        <pt x="729" y="76" on="1"/>
        <pt x="718" y="0" on="1"/>
        <pt x="421" y="0" on="1"/>
        <pt x="405" y="173" on="1"/>
        <pt x="139" y="173" on="1"/>
        <pt x="51" y="0" on="1"/>
        <pt x="-49" y="0" on="1"/>
        <pt x="317" y="689" on="1"/>
        <pt x="775" y="689" on="1"/>
        <pt x="753" y="613" on="1"/>
        <pt x="446" y="613" on="1"/>
      </contour>
      <contour>
        <pt x="364" y="613" on="1"/>
        <pt x="179" y="250" on="1"/>
        <pt x="398" y="250" on="1"/>
      </contour>
    </TTGlyph>
    <TTGlyph name="AEacute" xMin="-49" yMin="0" xMax="775" yMax="911">
      <component glyphName="AE" x="0" y="0" flags="0x0"/>
      <component glyphName="acute.case" x="325" y="0" flags="0x0"/>
    </TTGlyph>
    <TTGlyph name="Aacute" xMin="-32" yMin="0" xMax="524" yMax="911">
      <component glyphName="A" x="0" y="0" flags="0x0"/>
      <component glyphName="acute.case" x="139" y="0" flags="0x0"/>
    </TTGlyph>
    <TTGlyph name="Abreve" xMin="-32" yMin="0" xMax="524" yMax="896">
      <component glyphName="A" x="0" y="0" flags="0x0"/>
      <component glyphName="breve.case" x="98" y="0" flags="0x0"/>
    </TTGlyph>
    <TTGlyph name="Acircumflex" xMin="-32" yMin="0" xMax="529" yMax="914">
      <component glyphName="A" x="0" y="0" flags="0x0"/>
      <component glyphName="circumflex.case" x="96" y="0" flags="0x0"/>
    </TTGlyph>
    <TTGlyph name="Adieresis" xMin="-32" yMin="0" xMax="525" yMax="894">
      <component glyphName="A" x="0" y="0" flags="0x0"/>
      <component glyphName="dieresis.case" x="134" y="0" flags="0x0"/>
    </TTGlyph>
    <TTGlyph name="Agrave" xMin="-32" yMin="0" xMax="524" yMax="911">
      <component glyphName="A" x="0" y="0" flags="0x0"/>
      <component glyphName="grave.case" x="139" y="0" flags="0x0"/>
    </TTGlyph>
    <TTGlyph name="Alpha" xMin="-32" yMin="0" xMax="524" yMax="689">
      <contour>
        <pt x="141" y="173" on="1"/>
        <pt x="65" y="0" on="1"/>
        <pt x="-32" y="0" on="1"/>
        <pt x="284" y="689" on="1"/>
        <pt x="403" y="689" on="1"/>
        <pt x="524" y="0" on="1"/>
        <pt x="427" y="0" on="1"/>
        <pt x="400" y="173" on="1"/>
      </contour>
      <contour>
        <pt x="332" y="610" on="1"/>
        <pt x="174" y="250" on="1"/>
        <pt x="388" y="250" on="1"/>
      </contour>
    </TTGlyph>
    <TTGlyph name="Alphatonos" xMin="-32" yMin="0" xMax="524" yMax="707">
      <component glyphName="A" x="0" y="0" flags="0x0"/>
      <component glyphName="tonos.case" x="-1" y="0" flags="0x0"/>
    </TTGlyph>
    <TTGlyph name="Amacron" xMin="-32" yMin="0" xMax="524" yMax="862">
      <component glyphName="A" x="0" y="0" flags="0x0"/>
      <component glyphName="macron.case" x="160" y="0" flags="0x0"/>
    </TTGlyph>
    <TTGlyph name="Aogonek" xMin="-32" yMin="-231" xMax="524" yMax="689">
      <contour>
        <pt x="402" y="-35" on="0"/>
        <pt x="345" y="-96" on="0"/>
        <pt x="345" y="-126" on="1"/>
        <pt x="345" y="-143" on="0"/>
        <pt x="370" y="-161" on="0"/>
        <pt x="392" y="-161" on="1"/>
        <pt x="417" y="-161" on="0"/>
        <pt x="455" y="-153" on="1"/>
        <pt x="440" y="-225" on="1"/>
        <pt x="410" y="-231" on="0"/>
        <pt x="379" y="-231" on="1"/>
        <pt x="326" y="-231" on="0"/>
        <pt x="265" y="-178" on="0"/>
        <pt x="265" y="-137" on="1"/>
        <pt x="265" y="-91" on="0"/>
        <pt x="335" y="-11" on="0"/>
        <pt x="424" y="20" on="1"/>
        <pt x="400" y="173" on="1"/>
        <pt x="141" y="173" on="1"/>
        <pt x="65" y="0" on="1"/>
        <pt x="-32" y="0" on="1"/>
        <pt x="284" y="689" on="1"/>
        <pt x="403" y="689" on="1"/>
        <pt x="524" y="0" on="1"/>
        <pt x="487" y="0" on="1"/>
      </contour>
      <contour>
        <pt x="332" y="610" on="1"/>
        <pt x="174" y="250" on="1"/>
        <pt x="388" y="250" on="1"/>
      </contour>
    </TTGlyph>
    <TTGlyph name="Aring" xMin="-32" yMin="0" xMax="524" yMax="962">
      <component glyphName="A" x="0" y="0" flags="0x0"/>
      <component glyphName="ring.case" x="183" y="0" flags="0x0"/>
    </TTGlyph>
    <TTGlyph name="Atilde" xMin="-32" yMin="0" xMax="535" yMax="900">
      <component glyphName="A" x="0" y="0" flags="0x0"/>
      <component glyphName="tilde.case" x="130" y="0" flags="0x0"/>
    </TTGlyph>
    <TTGlyph name="B" xMin="62" yMin="0" xMax="565" yMax="689">
      <contour>
        <pt x="473" y="353" on="0"/>
        <pt x="550" y="287" on="0"/>
        <pt x="550" y="220" on="1"/>
        <pt x="550" y="120" on="0"/>
        <pt x="411" y="0" on="0"/>
        <pt x="252" y="0" on="1"/>
        <pt x="62" y="0" on="1"/>
        <pt x="159" y="689" on="1"/>
        <pt x="349" y="689" on="1"/>
        <pt x="447" y="689" on="0"/>
        <pt x="565" y="612" on="0"/>
        <pt x="565" y="537" on="1"/>
        <pt x="565" y="466" on="0"/>
        <pt x="477" y="376" on="0"/>
        <pt x="411" y="364" on="1"/>
      </contour>
      <contour>
        <pt x="212" y="397" on="1"/>
        <pt x="313" y="397" on="1"/>
        <pt x="379" y="397" on="0"/>
        <pt x="469" y="470" on="0"/>
        <pt x="469" y="534" on="1"/>
        <pt x="469" y="579" on="0"/>
        <pt x="405" y="614" on="0"/>
        <pt x="352" y="614" on="1"/>
        <pt x="242" y="614" on="1"/>
      </contour>
      <contour>
        <pt x="365" y="76" on="0"/>
        <pt x="452" y="153" on="0"/>
        <pt x="452" y="222" on="1"/>
        <pt x="452" y="324" on="0"/>
        <pt x="316" y="324" on="1"/>
        <pt x="202" y="324" on="1"/>
        <pt x="167" y="76" on="1"/>
        <pt x="256" y="76" on="1"/>
      </contour>
    </TTGlyph>
    <TTGlyph name="Beta" xMin="62" yMin="0" xMax="565" yMax="689">
      <component glyphName="B" x="0" y="0" flags="0x0"/>
    </TTGlyph>
    <TTGlyph name="C" xMin="61" yMin="-12" xMax="579" yMax="701">
      <contour>
        <pt x="452" y="701" on="0"/>
        <pt x="542" y="665" on="0"/>
        <pt x="579" y="630" on="1"/>
        <pt x="522" y="574" on="1"/>
        <pt x="469" y="623" on="0"/>
        <pt x="400" y="623" on="1"/>
        <pt x="315" y="623" on="0"/>
        <pt x="208" y="512" on="0"/>
        <pt x="160" y="346" on="0"/>
        <pt x="160" y="260" on="1"/>
        <pt x="160" y="161" on="0"/>
        <pt x="242" y="68" on="0"/>
        <pt x="312" y="68" on="1"/>
        <pt x="357" y="68" on="0"/>
        <pt x="425" y="99" on="0"/>
        <pt x="467" y="128" on="1"/>
        <pt x="509" y="63" on="1"/>
        <pt x="420" y="-12" on="0"/>
        <pt x="306" y="-12" on="1"/>
        <pt x="193" y="-12" on="0"/>
        <pt x="61" y="134" on="0"/>
        <pt x="61" y="268" on="1"/>
        <pt x="61" y="368" on="0"/>
        <pt x="132" y="568" on="0"/>
        <pt x="282" y="701" on="0"/>
        <pt x="394" y="701" on="1"/>
      </contour>
    </TTGlyph>
    <TTGlyph name="Cacute" xMin="61" yMin="-12" xMax="579" yMax="911">
      <component glyphName="C" x="0" y="0" flags="0x0"/>
      <component glyphName="acute.case" x="200" y="0" flags="0x0"/>
    </TTGlyph>
    <TTGlyph name="Cacute.loclPLK" xMin="61" yMin="-12" xMax="579" yMax="926">
      <component glyphName="C" x="0" y="0" flags="0x0"/>
      <component glyphName="acute.case.loclPLK" x="189" y="0" flags="0x0"/>
    </TTGlyph>
    <TTGlyph name="Ccaron" xMin="61" yMin="-12" xMax="589" yMax="909">
      <component glyphName="C" x="0" y="0" flags="0x0"/>
      <component glyphName="caron.case" x="148" y="0" flags="0x0"/>
    </TTGlyph>
    <TTGlyph name="Ccedilla" xMin="61" yMin="-241" xMax="579" yMax="701">
      <contour>
        <pt x="315" y="623" on="0"/>
        <pt x="208" y="512" on="0"/>
        <pt x="160" y="346" on="0"/>
        <pt x="160" y="260" on="1"/>
        <pt x="160" y="161" on="0"/>
        <pt x="242" y="68" on="0"/>
        <pt x="312" y="68" on="1"/>
        <pt x="357" y="68" on="0"/>
        <pt x="425" y="99" on="0"/>
        <pt x="467" y="128" on="1"/>
        <pt x="509" y="63" on="1"/>
        <pt x="420" y="-12" on="0"/>
        <pt x="306" y="-12" on="1"/>
        <pt x="294" y="-12" on="1"/>
        <pt x="287" y="-56" on="1"/>
        <pt x="329" y="-60" on="0"/>
        <pt x="369" y="-102" on="0"/>
        <pt x="369" y="-132" on="1"/>
        <pt x="369" y="-176" on="0"/>
        <pt x="301" y="-241" on="0"/>
        <pt x="236" y="-241" on="1"/>
        <pt x="208" y="-241" on="0"/>
        <pt x="162" y="-226" on="0"/>
        <pt x="147" y="-214" on="1"/>
        <pt x="178" y="-165" on="1"/>
        <pt x="202" y="-181" on="0"/>
        <pt x="234" y="-181" on="1"/>
        <pt x="259" y="-181" on="0"/>
        <pt x="294" y="-157" on="0"/>
        <pt x="294" y="-136" on="1"/>
        <pt x="294" y="-115" on="0"/>
        <pt x="259" y="-99" on="0"/>
        <pt x="212" y="-99" on="1"/>
        <pt x="235" y="-4" on="1"/>
        <pt x="153" y="17" on="0"/>
        <pt x="61" y="157" on="0"/>
        <pt x="61" y="268" on="1"/>
        <pt x="61" y="368" on="0"/>
        <pt x="132" y="568" on="0"/>
        <pt x="282" y="701" on="0"/>
        <pt x="394" y="701" on="1"/>
        <pt x="452" y="701" on="0"/>
        <pt x="542" y="665" on="0"/>
        <pt x="579" y="630" on="1"/>
        <pt x="522" y="574" on="1"/>
        <pt x="469" y="623" on="0"/>
        <pt x="400" y="623" on="1"/>
      </contour>
    </TTGlyph>
    <TTGlyph name="Ccircumflex" xMin="61" yMin="-12" xMax="590" yMax="914">
      <component glyphName="C" x="0" y="0" flags="0x0"/>
      <component glyphName="circumflex.case" x="157" y="0" flags="0x0"/>
    </TTGlyph>
    <TTGlyph name="Cdotaccent" xMin="61" yMin="-12" xMax="579" yMax="906">
      <component glyphName="C" x="0" y="0" flags="0x0"/>
      <component glyphName="dotaccent.case" x="294" y="0" flags="0x0"/>
    </TTGlyph>
    <TTGlyph name="Chi" xMin="-33" yMin="0" xMax="567" yMax="689">
      <component glyphName="X" x="0" y="0" flags="0x0"/>
    </TTGlyph>
    <TTGlyph name="D" xMin="62" yMin="0" xMax="601" yMax="689">
      <contour>
        <pt x="437" y="689" on="0"/>
        <pt x="601" y="576" on="0"/>
        <pt x="601" y="428" on="1"/>
        <pt x="601" y="311" on="0"/>
        <pt x="525" y="117" on="0"/>
        <pt x="358" y="0" on="0"/>
        <pt x="228" y="0" on="1"/>
        <pt x="62" y="0" on="1"/>
        <pt x="159" y="689" on="1"/>
        <pt x="300" y="689" on="1"/>
      </contour>
      <contour>
        <pt x="167" y="75" on="1"/>
        <pt x="242" y="75" on="1"/>
        <pt x="336" y="75" on="0"/>
        <pt x="454" y="179" on="0"/>
        <pt x="505" y="339" on="0"/>
        <pt x="505" y="430" on="1"/>
        <pt x="505" y="506" on="0"/>
        <pt x="453" y="586" on="0"/>
        <pt x="370" y="613" on="0"/>
        <pt x="314" y="613" on="1"/>
        <pt x="242" y="613" on="1"/>
      </contour>
    </TTGlyph>
    <TTGlyph name="Dcaron" xMin="62" yMin="0" xMax="601" yMax="909">
      <component glyphName="D" x="0" y="0" flags="0x0"/>
      <component glyphName="caron.case" x="103" y="0" flags="0x0"/>
    </TTGlyph>
    <TTGlyph name="Dcroat" xMin="29" yMin="0" xMax="611" yMax="689">
      <component glyphName="Eth" x="0" y="0" flags="0x0"/>
    </TTGlyph>
    <TTGlyph name="Delta" xMin="-32" yMin="0" xMax="534" yMax="689">
      <contour>
        <pt x="-32" y="0" on="1"/>
        <pt x="289" y="689" on="1"/>
        <pt x="408" y="689" on="1"/>
        <pt x="534" y="0" on="1"/>
      </contour>
      <contour>
        <pt x="424" y="78" on="1"/>
        <pt x="337" y="609" on="1"/>
        <pt x="98" y="78" on="1"/>
      </contour>
    </TTGlyph>
    <TTGlyph name="E" xMin="62" yMin="0" xMax="528" yMax="689">
      <contour>
        <pt x="242" y="613" on="1"/>
        <pt x="210" y="388" on="1"/>
        <pt x="440" y="388" on="1"/>
        <pt x="430" y="312" on="1"/>
        <pt x="200" y="312" on="1"/>
        <pt x="167" y="76" on="1"/>
        <pt x="450" y="76" on="1"/>
        <pt x="439" y="0" on="1"/>
        <pt x="62" y="0" on="1"/>
        <pt x="159" y="689" on="1"/>
        <pt x="528" y="689" on="1"/>
        <pt x="507" y="613" on="1"/>
      </contour>
    </TTGlyph>
    <TTGlyph name="Eacute" xMin="62" yMin="0" xMax="528" yMax="911">
      <component glyphName="E" x="0" y="0" flags="0x0"/>
      <component glyphName="acute.case" x="142" y="0" flags="0x0"/>
    </TTGlyph>
    <TTGlyph name="Ebreve" xMin="62" yMin="0" xMax="528" yMax="896">
      <component glyphName="E" x="0" y="0" flags="0x0"/>
      <component glyphName="breve.case" x="101" y="0" flags="0x0"/>
    </TTGlyph>
    <TTGlyph name="Ecaron" xMin="62" yMin="0" xMax="531" yMax="909">
      <component glyphName="E" x="0" y="0" flags="0x0"/>
      <component glyphName="caron.case" x="90" y="0" flags="0x0"/>
    </TTGlyph>
    <TTGlyph name="Ecircumflex" xMin="62" yMin="0" xMax="532" yMax="914">
      <component glyphName="E" x="0" y="0" flags="0x0"/>
      <component glyphName="circumflex.case" x="99" y="0" flags="0x0"/>
    </TTGlyph>
    <TTGlyph name="Edieresis" xMin="62" yMin="0" xMax="528" yMax="894">
      <component glyphName="E" x="0" y="0" flags="0x0"/>
      <component glyphName="dieresis.case" x="137" y="0" flags="0x0"/>
    </TTGlyph>
    <TTGlyph name="Edotaccent" xMin="62" yMin="0" xMax="528" yMax="906">
      <component glyphName="E" x="0" y="0" flags="0x0"/>
      <component glyphName="dotaccent.case" x="236" y="0" flags="0x0"/>
    </TTGlyph>
    <TTGlyph name="Egrave" xMin="62" yMin="0" xMax="528" yMax="911">
      <component glyphName="E" x="0" y="0" flags="0x0"/>
      <component glyphName="grave.case" x="142" y="0" flags="0x0"/>
    </TTGlyph>
    <TTGlyph name="Emacron" xMin="62" yMin="0" xMax="528" yMax="862">
      <component glyphName="E" x="0" y="0" flags="0x0"/>
      <component glyphName="macron.case" x="163" y="0" flags="0x0"/>
    </TTGlyph>
    <TTGlyph name="Eng" xMin="62" yMin="-213" xMax="638" yMax="689">
      <contour>
        <pt x="541" y="0" on="1"/>
        <pt x="530" y="-62" on="0"/>
        <pt x="487" y="-139" on="0"/>
        <pt x="411" y="-191" on="0"/>
        <pt x="348" y="-213" on="1"/>
        <pt x="326" y="-146" on="1"/>
        <pt x="367" y="-130" on="0"/>
        <pt x="417" y="-98" on="0"/>
        <pt x="451" y="-44" on="0"/>
        <pt x="460" y="0" on="1"/>
        <pt x="418" y="0" on="1"/>
        <pt x="221" y="607" on="1"/>
        <pt x="220" y="488" on="0"/>
        <pt x="195" y="313" on="1"/>
        <pt x="151" y="0" on="1"/>
        <pt x="62" y="0" on="1"/>
        <pt x="159" y="689" on="1"/>
        <pt x="283" y="689" on="1"/>
        <pt x="481" y="81" on="1"/>
        <pt x="481" y="149" on="0"/>
        <pt x="488" y="252" on="0"/>
        <pt x="496" y="316" on="1"/>
        <pt x="549" y="689" on="1"/>
        <pt x="638" y="689" on="1"/>
      </contour>
    </TTGlyph>
    <TTGlyph name="Eogonek" xMin="62" yMin="-231" xMax="528" yMax="689">
      <contour>
        <pt x="210" y="388" on="1"/>
        <pt x="440" y="388" on="1"/>
        <pt x="430" y="312" on="1"/>
        <pt x="200" y="312" on="1"/>
        <pt x="167" y="76" on="1"/>
        <pt x="450" y="76" on="1"/>
        <pt x="439" y="0" on="1"/>
        <pt x="401" y="0" on="1"/>
        <pt x="316" y="-35" on="0"/>
        <pt x="259" y="-96" on="0"/>
        <pt x="259" y="-126" on="1"/>
        <pt x="259" y="-143" on="0"/>
        <pt x="284" y="-161" on="0"/>
        <pt x="306" y="-161" on="1"/>
        <pt x="331" y="-161" on="0"/>
        <pt x="369" y="-153" on="1"/>
        <pt x="354" y="-225" on="1"/>
        <pt x="324" y="-231" on="0"/>
        <pt x="293" y="-231" on="1"/>
        <pt x="240" y="-231" on="0"/>
        <pt x="179" y="-178" on="0"/>
        <pt x="179" y="-137" on="1"/>
        <pt x="179" y="-53" on="0"/>
        <pt x="289" y="0" on="1"/>
        <pt x="62" y="0" on="1"/>
        <pt x="159" y="689" on="1"/>
        <pt x="528" y="689" on="1"/>
        <pt x="507" y="613" on="1"/>
        <pt x="242" y="613" on="1"/>
      </contour>
    </TTGlyph>
    <TTGlyph name="Epsilon" xMin="62" yMin="0" xMax="528" yMax="689">
      <contour>
        <pt x="242" y="613" on="1"/>
        <pt x="210" y="388" on="1"/>
        <pt x="440" y="388" on="1"/>
        <pt x="430" y="312" on="1"/>
        <pt x="200" y="312" on="1"/>
        <pt x="167" y="76" on="1"/>
        <pt x="450" y="76" on="1"/>
        <pt x="439" y="0" on="1"/>
        <pt x="62" y="0" on="1"/>
        <pt x="159" y="689" on="1"/>
        <pt x="528" y="689" on="1"/>
        <pt x="507" y="613" on="1"/>
      </contour>
    </TTGlyph>
    <TTGlyph name="Epsilontonos" xMin="-37" yMin="0" xMax="528" yMax="714">
      <component glyphName="E" x="0" y="0" flags="0x0"/>
      <component glyphName="tonos.case" x="-97" y="7" flags="0x0"/>
    </TTGlyph>
    <TTGlyph name="Eta" xMin="62" yMin="0" xMax="635" yMax="689">
      <contour>
        <pt x="201" y="323" on="1"/>
        <pt x="156" y="0" on="1"/>
        <pt x="62" y="0" on="1"/>
        <pt x="159" y="689" on="1"/>
        <pt x="253" y="689" on="1"/>
        <pt x="212" y="401" on="1"/>
        <pt x="500" y="401" on="1"/>
        <pt x="541" y="689" on="1"/>
        <pt x="635" y="689" on="1"/>
        <pt x="538" y="0" on="1"/>
        <pt x="444" y="0" on="1"/>
        <pt x="489" y="323" on="1"/>
      </contour>
    </TTGlyph>
    <TTGlyph name="Etatonos" xMin="-37" yMin="0" xMax="635" yMax="714">
      <component glyphName="H" x="0" y="0" flags="0x0"/>
      <component glyphName="tonos.case" x="-97" y="7" flags="0x0"/>
    </TTGlyph>
    <TTGlyph name="Eth" xMin="29" yMin="0" xMax="611" yMax="689">
      <contour>
        <pt x="447" y="689" on="0"/>
        <pt x="611" y="576" on="0"/>
        <pt x="611" y="428" on="1"/>
        <pt x="611" y="311" on="0"/>
        <pt x="535" y="117" on="0"/>
        <pt x="368" y="0" on="0"/>
        <pt x="238" y="0" on="1"/>
        <pt x="72" y="0" on="1"/>
        <pt x="117" y="318" on="1"/>
        <pt x="29" y="318" on="1"/>
        <pt x="38" y="388" on="1"/>
        <pt x="127" y="388" on="1"/>
        <pt x="169" y="689" on="1"/>
        <pt x="310" y="689" on="1"/>
      </contour>
      <contour>
        <pt x="346" y="75" on="0"/>
        <pt x="464" y="179" on="0"/>
        <pt x="515" y="339" on="0"/>
        <pt x="515" y="430" on="1"/>
        <pt x="515" y="506" on="0"/>
        <pt x="463" y="586" on="0"/>
        <pt x="380" y="613" on="0"/>
        <pt x="324" y="613" on="1"/>
        <pt x="252" y="613" on="1"/>
        <pt x="221" y="388" on="1"/>
        <pt x="378" y="388" on="1"/>
        <pt x="369" y="318" on="1"/>
        <pt x="211" y="318" on="1"/>
        <pt x="177" y="75" on="1"/>
        <pt x="252" y="75" on="1"/>
      </contour>
    </TTGlyph>
    <TTGlyph name="Euro" xMin="19" yMin="-12" xMax="594" yMax="679">
      <contour>
        <pt x="361" y="603" on="0"/>
        <pt x="267" y="525" on="0"/>
        <pt x="238" y="444" on="1"/>
        <pt x="490" y="444" on="1"/>
        <pt x="467" y="382" on="1"/>
        <pt x="223" y="382" on="1"/>
        <pt x="210" y="292" on="1"/>
        <pt x="435" y="292" on="1"/>
        <pt x="412" y="231" on="1"/>
        <pt x="204" y="231" on="1"/>
        <pt x="203" y="143" on="0"/>
        <pt x="270" y="65" on="0"/>
        <pt x="343" y="65" on="1"/>
        <pt x="383" y="65" on="0"/>
        <pt x="450" y="87" on="0"/>
        <pt x="490" y="107" on="1"/>
        <pt x="482" y="25" on="1"/>
        <pt x="442" y="7" on="0"/>
        <pt x="369" y="-12" on="0"/>
        <pt x="326" y="-12" on="1"/>
        <pt x="223" y="-12" on="0"/>
        <pt x="111" y="113" on="0"/>
        <pt x="108" y="231" on="1"/>
        <pt x="19" y="231" on="1"/>
        <pt x="43" y="292" on="1"/>
        <pt x="113" y="292" on="1"/>
        <pt x="125" y="382" on="1"/>
        <pt x="41" y="382" on="1"/>
        <pt x="64" y="444" on="1"/>
        <pt x="137" y="444" on="1"/>
        <pt x="176" y="557" on="0"/>
        <pt x="326" y="679" on="0"/>
        <pt x="419" y="679" on="1"/>
        <pt x="519" y="679" on="0"/>
        <pt x="594" y="622" on="1"/>
        <pt x="554" y="561" on="1"/>
        <pt x="520" y="584" on="0"/>
        <pt x="460" y="603" on="0"/>
        <pt x="421" y="603" on="1"/>
      </contour>
    </TTGlyph>
    <TTGlyph name="Euro.osf" xMin="19" yMin="-12" xMax="594" yMax="679">
      <component glyphName="Euro" x="0" y="0" flags="0x0"/>
    </TTGlyph>
    <TTGlyph name="Euro.tf" xMin="24" yMin="-12" xMax="600" yMax="701">
      <contour>
        <pt x="360" y="625" on="0"/>
        <pt x="260" y="543" on="0"/>
        <pt x="235" y="454" on="1"/>
        <pt x="495" y="454" on="1"/>
        <pt x="471" y="392" on="1"/>
        <pt x="224" y="392" on="1"/>
        <pt x="213" y="302" on="1"/>
        <pt x="439" y="302" on="1"/>
        <pt x="417" y="241" on="1"/>
        <pt x="208" y="241" on="1"/>
        <pt x="207" y="146" on="0"/>
        <pt x="272" y="65" on="0"/>
        <pt x="346" y="65" on="1"/>
        <pt x="386" y="65" on="0"/>
        <pt x="453" y="87" on="0"/>
        <pt x="493" y="107" on="1"/>
        <pt x="485" y="25" on="1"/>
        <pt x="445" y="7" on="0"/>
        <pt x="372" y="-12" on="0"/>
        <pt x="329" y="-12" on="1"/>
        <pt x="226" y="-12" on="0"/>
        <pt x="117" y="116" on="0"/>
        <pt x="115" y="241" on="1"/>
        <pt x="24" y="241" on="1"/>
        <pt x="47" y="302" on="1"/>
        <pt x="119" y="302" on="1"/>
        <pt x="130" y="392" on="1"/>
        <pt x="45" y="392" on="1"/>
        <pt x="69" y="454" on="1"/>
        <pt x="140" y="454" on="1"/>
        <pt x="173" y="577" on="0"/>
        <pt x="325" y="701" on="0"/>
        <pt x="425" y="701" on="1"/>
        <pt x="525" y="701" on="0"/>
        <pt x="600" y="644" on="1"/>
        <pt x="560" y="583" on="1"/>
        <pt x="526" y="606" on="0"/>
        <pt x="466" y="625" on="0"/>
        <pt x="427" y="625" on="1"/>
      </contour>
    </TTGlyph>
    <TTGlyph name="Euro.tosf" xMin="39" yMin="-12" xMax="605" yMax="679">
      <contour>
        <pt x="310" y="603" on="0"/>
        <pt x="257" y="444" on="1"/>
        <pt x="503" y="444" on="1"/>
        <pt x="480" y="382" on="1"/>
        <pt x="243" y="382" on="1"/>
        <pt x="230" y="292" on="1"/>
        <pt x="448" y="292" on="1"/>
        <pt x="425" y="231" on="1"/>
        <pt x="224" y="231" on="1"/>
        <pt x="223" y="142" on="0"/>
        <pt x="286" y="65" on="0"/>
        <pt x="358" y="65" on="1"/>
        <pt x="396" y="65" on="0"/>
        <pt x="460" y="87" on="0"/>
        <pt x="501" y="107" on="1"/>
        <pt x="493" y="25" on="1"/>
        <pt x="453" y="7" on="0"/>
        <pt x="382" y="-12" on="0"/>
        <pt x="341" y="-12" on="1"/>
        <pt x="240" y="-12" on="0"/>
        <pt x="131" y="113" on="0"/>
        <pt x="128" y="231" on="1"/>
        <pt x="39" y="231" on="1"/>
        <pt x="63" y="292" on="1"/>
        <pt x="133" y="292" on="1"/>
        <pt x="145" y="382" on="1"/>
        <pt x="61" y="382" on="1"/>
        <pt x="84" y="444" on="1"/>
        <pt x="157" y="444" on="1"/>
        <pt x="192" y="558" on="0"/>
        <pt x="339" y="679" on="0"/>
        <pt x="434" y="679" on="1"/>
        <pt x="530" y="679" on="0"/>
        <pt x="605" y="622" on="1"/>
        <pt x="565" y="561" on="1"/>
        <pt x="531" y="584" on="0"/>
        <pt x="474" y="603" on="0"/>
        <pt x="436" y="603" on="1"/>
      </contour>
    </TTGlyph>
    <TTGlyph name="F" xMin="62" yMin="0" xMax="521" yMax="689">
      <contour>
        <pt x="242" y="613" on="1"/>
        <pt x="209" y="378" on="1"/>
        <pt x="432" y="378" on="1"/>
        <pt x="422" y="303" on="1"/>
        <pt x="199" y="303" on="1"/>
        <pt x="156" y="0" on="1"/>
        <pt x="62" y="0" on="1"/>
        <pt x="159" y="689" on="1"/>
        <pt x="521" y="689" on="1"/>
        <pt x="500" y="613" on="1"/>
      </contour>
    </TTGlyph>
    <TTGlyph name="G" xMin="60" yMin="-12" xMax="607" yMax="701">
      <contour>
        <pt x="469" y="701" on="0"/>
        <pt x="566" y="661" on="0"/>
        <pt x="607" y="622" on="1"/>
        <pt x="545" y="569" on="1"/>
        <pt x="513" y="598" on="0"/>
        <pt x="450" y="623" on="0"/>
        <pt x="406" y="623" on="1"/>
        <pt x="322" y="623" on="0"/>
        <pt x="211" y="510" on="0"/>
        <pt x="159" y="337" on="0"/>
        <pt x="159" y="247" on="1"/>
        <pt x="159" y="153" on="0"/>
        <pt x="237" y="66" on="0"/>
        <pt x="315" y="66" on="1"/>
        <pt x="387" y="66" on="0"/>
        <pt x="446" y="101" on="1"/>
        <pt x="476" y="305" on="1"/>
        <pt x="356" y="305" on="1"/>
        <pt x="356" y="382" on="1"/>
        <pt x="580" y="382" on="1"/>
        <pt x="535" y="54" on="1"/>
        <pt x="483" y="21" on="0"/>
        <pt x="371" y="-12" on="0"/>
        <pt x="302" y="-12" on="1"/>
        <pt x="189" y="-12" on="0"/>
        <pt x="60" y="127" on="0"/>
        <pt x="60" y="259" on="1"/>
        <pt x="60" y="365" on="0"/>
        <pt x="135" y="568" on="0"/>
        <pt x="291" y="701" on="0"/>
        <pt x="405" y="701" on="1"/>
      </contour>
    </TTGlyph>
    <TTGlyph name="Gamma" xMin="63" yMin="0" xMax="554" yMax="689">
      <component glyphName="uni0413" x="0" y="0" flags="0x0"/>
    </TTGlyph>
    <TTGlyph name="Gbreve" xMin="60" yMin="-12" xMax="607" yMax="896">
      <component glyphName="G" x="0" y="0" flags="0x0"/>
      <component glyphName="breve.case" x="166" y="0" flags="0x0"/>
    </TTGlyph>
    <TTGlyph name="Gcircumflex" xMin="60" yMin="-12" xMax="607" yMax="914">
      <component glyphName="G" x="0" y="0" flags="0x0"/>
      <component glyphName="circumflex.case" x="164" y="0" flags="0x0"/>
    </TTGlyph>
    <TTGlyph name="Gcommaaccent" xMin="60" yMin="-296" xMax="607" yMax="701">
      <component glyphName="G" x="0" y="0" flags="0x0"/>
      <component glyphName="uni0326.case" x="253" y="0" flags="0x0"/>
    </TTGlyph>
    <TTGlyph name="Gdotaccent" xMin="60" yMin="-12" xMax="607" yMax="906">
      <component glyphName="G" x="0" y="0" flags="0x0"/>
      <component glyphName="dotaccent.case" x="301" y="0" flags="0x0"/>
    </TTGlyph>
    <TTGlyph name="H" xMin="62" yMin="0" xMax="635" yMax="689">
      <contour>
        <pt x="201" y="323" on="1"/>
        <pt x="156" y="0" on="1"/>
        <pt x="62" y="0" on="1"/>
        <pt x="159" y="689" on="1"/>
        <pt x="253" y="689" on="1"/>
        <pt x="212" y="401" on="1"/>
        <pt x="500" y="401" on="1"/>
        <pt x="541" y="689" on="1"/>
        <pt x="635" y="689" on="1"/>
        <pt x="538" y="0" on="1"/>
        <pt x="444" y="0" on="1"/>
        <pt x="489" y="323" on="1"/>
      </contour>
    </TTGlyph>
    <TTGlyph name="Hbar" xMin="65" yMin="0" xMax="691" yMax="689">
      <contour>
        <pt x="613" y="508" on="1"/>
        <pt x="541" y="0" on="1"/>
        <pt x="447" y="0" on="1"/>
        <pt x="492" y="323" on="1"/>
        <pt x="204" y="323" on="1"/>
        <pt x="159" y="0" on="1"/>
        <pt x="65" y="0" on="1"/>
        <pt x="137" y="508" on="1"/>
        <pt x="69" y="508" on="1"/>
        <pt x="79" y="577" on="1"/>
        <pt x="146" y="577" on="1"/>
        <pt x="162" y="689" on="1"/>
        <pt x="256" y="689" on="1"/>
        <pt x="240" y="577" on="1"/>
        <pt x="528" y="577" on="1"/>
        <pt x="544" y="689" on="1"/>
        <pt x="638" y="689" on="1"/>
        <pt x="622" y="577" on="1"/>
        <pt x="691" y="577" on="1"/>
        <pt x="681" y="508" on="1"/>
      </contour>
      <contour>
        <pt x="230" y="508" on="1"/>
        <pt x="215" y="401" on="1"/>
        <pt x="503" y="401" on="1"/>
        <pt x="518" y="508" on="1"/>
      </contour>
    </TTGlyph>
    <TTGlyph name="Hcircumflex" xMin="62" yMin="0" xMax="635" yMax="914">
      <component glyphName="H" x="0" y="0" flags="0x0"/>
      <component glyphName="circumflex.case" x="149" y="0" flags="0x0"/>
    </TTGlyph>
    <TTGlyph name="I" xMin="62" yMin="0" xMax="255" yMax="689">
      <contour>
        <pt x="62" y="0" on="1"/>
        <pt x="159" y="689" on="1"/>
        <pt x="255" y="689" on="1"/>
        <pt x="158" y="0" on="1"/>
      </contour>
    </TTGlyph>
    <TTGlyph name="IJ" xMin="62" yMin="-138" xMax="560" yMax="689">
      <component glyphName="I" x="0" y="0" flags="0x0"/>
      <component glyphName="J" x="294" y="0" flags="0x0"/>
    </TTGlyph>
    <TTGlyph name="Iacute" xMin="62" yMin="0" xMax="347" yMax="911">
      <component glyphName="I" x="0" y="0" flags="0x0"/>
      <component glyphName="acute.case" x="2" y="0" flags="0x0"/>
    </TTGlyph>
    <TTGlyph name="Ibreve" xMin="62" yMin="0" xMax="376" yMax="896">
      <component glyphName="I" x="0" y="0" flags="0x0"/>
      <component glyphName="breve.case" x="-39" y="0" flags="0x0"/>
    </TTGlyph>
    <TTGlyph name="Icircumflex" xMin="62" yMin="0" xMax="392" yMax="914">
      <component glyphName="I" x="0" y="0" flags="0x0"/>
      <component glyphName="circumflex.case" x="-41" y="0" flags="0x0"/>
    </TTGlyph>
    <TTGlyph name="Idieresis" xMin="62" yMin="0" xMax="388" yMax="894">
      <component glyphName="I" x="0" y="0" flags="0x0"/>
      <component glyphName="dieresis.case" x="-3" y="0" flags="0x0"/>
    </TTGlyph>
    <TTGlyph name="Idotaccent" xMin="62" yMin="0" xMax="293" yMax="906">
      <component glyphName="I" x="0" y="0" flags="0x0"/>
      <component glyphName="dotaccent.case" x="96" y="0" flags="0x0"/>
    </TTGlyph>
    <TTGlyph name="Igrave" xMin="62" yMin="0" xMax="344" yMax="911">
      <component glyphName="I" x="0" y="0" flags="0x0"/>
      <component glyphName="grave.case" x="2" y="0" flags="0x0"/>
    </TTGlyph>
    <TTGlyph name="Imacron" xMin="62" yMin="0" xMax="366" yMax="862">
      <component glyphName="I" x="0" y="0" flags="0x0"/>
      <component glyphName="macron.case" x="23" y="0" flags="0x0"/>
    </TTGlyph>
    <TTGlyph name="Iogonek" xMin="-63" yMin="-231" xMax="255" yMax="689">
      <contour>
        <pt x="74" y="-35" on="0"/>
        <pt x="17" y="-96" on="0"/>
        <pt x="17" y="-126" on="1"/>
        <pt x="17" y="-143" on="0"/>
        <pt x="42" y="-161" on="0"/>
        <pt x="64" y="-161" on="1"/>
        <pt x="89" y="-161" on="0"/>
        <pt x="127" y="-153" on="1"/>
        <pt x="112" y="-225" on="1"/>
        <pt x="82" y="-231" on="0"/>
        <pt x="51" y="-231" on="1"/>
        <pt x="-2" y="-231" on="0"/>
        <pt x="-63" y="-178" on="0"/>
        <pt x="-63" y="-137" on="1"/>
        <pt x="-63" y="-47" on="0"/>
        <pt x="63" y="7" on="1"/>
        <pt x="159" y="689" on="1"/>
        <pt x="255" y="689" on="1"/>
        <pt x="158" y="2" on="1"/>
        <pt x="159" y="0" on="1"/>
      </contour>
    </TTGlyph>
    <TTGlyph name="Iota" xMin="62" yMin="0" xMax="255" yMax="689">
      <contour>
        <pt x="62" y="0" on="1"/>
        <pt x="159" y="689" on="1"/>
        <pt x="255" y="689" on="1"/>
        <pt x="158" y="0" on="1"/>
      </contour>
    </TTGlyph>
    <TTGlyph name="Iotadieresis" xMin="62" yMin="0" xMax="388" yMax="894">
      <component glyphName="I" x="0" y="0" flags="0x0"/>
      <component glyphName="dieresis.case" x="-3" y="0" flags="0x0"/>
    </TTGlyph>
    <TTGlyph name="Iotatonos" xMin="-35" yMin="0" xMax="255" yMax="714">
      <component glyphName="I" x="0" y="0" flags="0x0"/>
      <component glyphName="tonos.case" x="-95" y="7" flags="0x0"/>
    </TTGlyph>
    <TTGlyph name="Itilde" xMin="59" yMin="0" xMax="398" yMax="900">
      <component glyphName="I" x="0" y="0" flags="0x0"/>
      <component glyphName="tilde.case" x="-7" y="0" flags="0x0"/>
    </TTGlyph>
    <TTGlyph name="J" xMin="-45" yMin="-138" xMax="266" yMax="689">
      <contour>
        <pt x="168" y="-9" on="0"/>
        <pt x="67" y="-109" on="0"/>
        <pt x="-26" y="-138" on="1"/>
        <pt x="-45" y="-67" on="1"/>
        <pt x="3" y="-49" on="0"/>
        <pt x="56" y="-6" on="0"/>
        <pt x="83" y="55" on="0"/>
        <pt x="89" y="103" on="1"/>
        <pt x="172" y="689" on="1"/>
        <pt x="266" y="689" on="1"/>
        <pt x="182" y="93" on="1"/>
      </contour>
    </TTGlyph>
    <TTGlyph name="Jcircumflex" xMin="-45" yMin="-138" xMax="404" yMax="914">
      <component glyphName="J" x="0" y="0" flags="0x0"/>
      <component glyphName="circumflex.case" x="-29" y="0" flags="0x0"/>
    </TTGlyph>
    <TTGlyph name="K" xMin="62" yMin="0" xMax="626" yMax="689">
      <contour>
        <pt x="62" y="0" on="1"/>
        <pt x="159" y="689" on="1"/>
        <pt x="253" y="689" on="1"/>
        <pt x="156" y="0" on="1"/>
      </contour>
      <contour>
        <pt x="546" y="0" on="1"/>
        <pt x="434" y="0" on="1"/>
        <pt x="213" y="368" on="1"/>
        <pt x="515" y="689" on="1"/>
        <pt x="626" y="689" on="1"/>
        <pt x="319" y="365" on="1"/>
      </contour>
    </TTGlyph>
    <TTGlyph name="Kappa" xMin="62" yMin="0" xMax="626" yMax="689">
      <component glyphName="K" x="0" y="0" flags="0x0"/>
    </TTGlyph>
    <TTGlyph name="Kcommaaccent" xMin="62" yMin="-296" xMax="626" yMax="689">
      <component glyphName="K" x="0" y="0" flags="0x0"/>
      <component glyphName="uni0326.case" x="225" y="0" flags="0x0"/>
    </TTGlyph>
    <TTGlyph name="L" xMin="62" yMin="0" xMax="448" yMax="689">
      <contour>
        <pt x="448" y="83" on="1"/>
        <pt x="426" y="0" on="1"/>
        <pt x="62" y="0" on="1"/>
        <pt x="159" y="689" on="1"/>
        <pt x="253" y="689" on="1"/>
        <pt x="168" y="83" on="1"/>
      </contour>
    </TTGlyph>
    <TTGlyph name="Lacute" xMin="62" yMin="0" xMax="448" yMax="911">
      <component glyphName="L" x="0" y="0" flags="0x0"/>
      <component glyphName="acute.case" x="1" y="0" flags="0x0"/>
    </TTGlyph>
    <TTGlyph name="Lambda" xMin="-32" yMin="0" xMax="524" yMax="689">
      <contour>
        <pt x="426" y="0" on="1"/>
        <pt x="332" y="610" on="1"/>
        <pt x="64" y="0" on="1"/>
        <pt x="-32" y="0" on="1"/>
        <pt x="284" y="689" on="1"/>
        <pt x="403" y="689" on="1"/>
        <pt x="524" y="0" on="1"/>
      </contour>
    </TTGlyph>
    <TTGlyph name="Lcaron" xMin="62" yMin="0" xMax="448" yMax="699">
      <component glyphName="L" x="0" y="0" flags="0x0"/>
      <component glyphName="caron.alt" x="190" y="0" flags="0x0"/>
    </TTGlyph>
    <TTGlyph name="Lcommaaccent" xMin="62" yMin="-296" xMax="448" yMax="689">
      <component glyphName="L" x="0" y="0" flags="0x0"/>
      <component glyphName="uni0326.case" x="194" y="0" flags="0x0"/>
    </TTGlyph>
    <TTGlyph name="Ldot" xMin="62" yMin="0" xMax="468" yMax="689">
      <component glyphName="L" x="0" y="0" flags="0x0"/>
      <component glyphName="dotaccent" x="249" y="-330" flags="0x0"/>
    </TTGlyph>
    <TTGlyph name="Lslash" xMin="23" yMin="0" xMax="458" yMax="689">
      <contour>
        <pt x="72" y="0" on="1"/>
        <pt x="108" y="254" on="1"/>
        <pt x="52" y="222" on="1"/>
        <pt x="23" y="282" on="1"/>
        <pt x="120" y="339" on="1"/>
        <pt x="169" y="689" on="1"/>
        <pt x="263" y="689" on="1"/>
        <pt x="222" y="398" on="1"/>
        <pt x="397" y="498" on="1"/>
        <pt x="427" y="438" on="1"/>
        <pt x="210" y="313" on="1"/>
        <pt x="178" y="83" on="1"/>
        <pt x="458" y="83" on="1"/>
        <pt x="436" y="0" on="1"/>
      </contour>
    </TTGlyph>
    <TTGlyph name="M" xMin="25" yMin="0" xMax="713" yMax="689">
      <contour>
        <pt x="582" y="0" on="1"/>
        <pt x="602" y="314" on="1"/>
        <pt x="612" y="490" on="0"/>
        <pt x="623" y="591" on="1"/>
        <pt x="405" y="78" on="1"/>
        <pt x="315" y="78" on="1"/>
        <pt x="232" y="590" on="1"/>
        <pt x="220" y="490" on="0"/>
        <pt x="179" y="301" on="1"/>
        <pt x="115" y="0" on="1"/>
        <pt x="25" y="0" on="1"/>
        <pt x="179" y="689" on="1"/>
        <pt x="298" y="689" on="1"/>
        <pt x="376" y="190" on="1"/>
        <pt x="580" y="689" on="1"/>
        <pt x="713" y="689" on="1"/>
        <pt x="673" y="0" on="1"/>
      </contour>
    </TTGlyph>
    <TTGlyph name="Mu" xMin="25" yMin="0" xMax="713" yMax="689">
      <component glyphName="M" x="0" y="0" flags="0x0"/>
    </TTGlyph>
    <TTGlyph name="N" xMin="62" yMin="0" xMax="638" yMax="689">
      <contour>
        <pt x="418" y="0" on="1"/>
        <pt x="221" y="607" on="1"/>
        <pt x="220" y="488" on="0"/>
        <pt x="195" y="313" on="1"/>
        <pt x="151" y="0" on="1"/>
        <pt x="62" y="0" on="1"/>
        <pt x="159" y="689" on="1"/>
        <pt x="283" y="689" on="1"/>
        <pt x="481" y="81" on="1"/>
        <pt x="481" y="149" on="0"/>
        <pt x="488" y="252" on="0"/>
        <pt x="496" y="316" on="1"/>
        <pt x="549" y="689" on="1"/>
        <pt x="638" y="689" on="1"/>
        <pt x="541" y="0" on="1"/>
      </contour>
    </TTGlyph>
    <TTGlyph name="Nacute" xMin="62" yMin="0" xMax="638" yMax="911">
      <component glyphName="N" x="0" y="0" flags="0x0"/>
      <component glyphName="acute.case" x="205" y="0" flags="0x0"/>
    </TTGlyph>
    <TTGlyph name="Nacute.loclPLK" xMin="62" yMin="0" xMax="638" yMax="926">
      <component glyphName="N" x="0" y="0" flags="0x0"/>
      <component glyphName="acute.case.loclPLK" x="194" y="0" flags="0x0"/>
    </TTGlyph>
    <TTGlyph name="Ncaron" xMin="62" yMin="0" xMax="638" yMax="909">
      <component glyphName="N" x="0" y="0" flags="0x0"/>
      <component glyphName="caron.case" x="153" y="0" flags="0x0"/>
    </TTGlyph>
    <TTGlyph name="Ncommaaccent" xMin="62" yMin="-296" xMax="638" yMax="689">
      <component glyphName="N" x="0" y="0" flags="0x0"/>
      <component glyphName="uni0326.case" x="253" y="0" flags="0x0"/>
    </TTGlyph>
    <TTGlyph name="Ntilde" xMin="62" yMin="0" xMax="638" yMax="900">
      <component glyphName="N" x="0" y="0" flags="0x0"/>
      <component glyphName="tilde.case" x="196" y="0" flags="0x0"/>
    </TTGlyph>
    <TTGlyph name="Nu" xMin="62" yMin="0" xMax="638" yMax="689">
      <component glyphName="N" x="0" y="0" flags="0x0"/>
    </TTGlyph>
    <TTGlyph name="O" xMin="61" yMin="-12" xMax="648" yMax="701">
      <contour>
        <pt x="516" y="701" on="0"/>
        <pt x="648" y="555" on="0"/>
        <pt x="648" y="421" on="1"/>
        <pt x="648" y="320" on="0"/>
        <pt x="579" y="121" on="0"/>
        <pt x="427" y="-12" on="0"/>
        <pt x="308" y="-12" on="1"/>
        <pt x="194" y="-12" on="0"/>
        <pt x="61" y="132" on="0"/>
        <pt x="61" y="265" on="1"/>
        <pt x="61" y="364" on="0"/>
        <pt x="130" y="564" on="0"/>
        <pt x="283" y="701" on="0"/>
        <pt x="402" y="701" on="1"/>
      </contour>
      <contour>
        <pt x="311" y="623" on="0"/>
        <pt x="204" y="508" on="0"/>
        <pt x="159" y="340" on="0"/>
        <pt x="159" y="255" on="1"/>
        <pt x="159" y="157" on="0"/>
        <pt x="239" y="66" on="0"/>
        <pt x="311" y="66" on="1"/>
        <pt x="399" y="66" on="0"/>
        <pt x="506" y="182" on="0"/>
        <pt x="550" y="351" on="0"/>
        <pt x="550" y="438" on="1"/>
        <pt x="550" y="532" on="0"/>
        <pt x="472" y="623" on="0"/>
        <pt x="398" y="623" on="1"/>
      </contour>
    </TTGlyph>
    <TTGlyph name="OE" xMin="61" yMin="-12" xMax="887" yMax="701">
      <contour>
        <pt x="565" y="613" on="1"/>
        <pt x="627" y="545" on="0"/>
        <pt x="627" y="416" on="1"/>
        <pt x="627" y="398" on="0"/>
        <pt x="626" y="388" on="1"/>
        <pt x="799" y="388" on="1"/>
        <pt x="789" y="312" on="1"/>
        <pt x="617" y="312" on="1"/>
        <pt x="604" y="243" on="0"/>
        <pt x="543" y="121" on="0"/>
        <pt x="493" y="76" on="1"/>
        <pt x="809" y="76" on="1"/>
        <pt x="798" y="0" on="1"/>
        <pt x="371" y="0" on="1"/>
        <pt x="333" y="-12" on="0"/>
        <pt x="295" y="-12" on="1"/>
        <pt x="225" y="-12" on="0"/>
        <pt x="119" y="52" on="0"/>
        <pt x="61" y="176" on="0"/>
        <pt x="61" y="264" on="1"/>
        <pt x="61" y="361" on="0"/>
        <pt x="130" y="563" on="0"/>
        <pt x="277" y="701" on="0"/>
        <pt x="387" y="701" on="1"/>
        <pt x="430" y="701" on="0"/>
        <pt x="465" y="688" on="1"/>
        <pt x="463" y="689" on="1"/>
        <pt x="887" y="689" on="1"/>
        <pt x="866" y="613" on="1"/>
      </contour>
      <contour>
        <pt x="384" y="66" on="0"/>
        <pt x="486" y="183" on="0"/>
        <pt x="530" y="354" on="0"/>
        <pt x="530" y="439" on="1"/>
        <pt x="530" y="533" on="0"/>
        <pt x="456" y="623" on="0"/>
        <pt x="388" y="623" on="1"/>
        <pt x="306" y="623" on="0"/>
        <pt x="204" y="505" on="0"/>
        <pt x="159" y="335" on="0"/>
        <pt x="159" y="255" on="1"/>
        <pt x="159" y="157" on="0"/>
        <pt x="234" y="66" on="0"/>
        <pt x="301" y="66" on="1"/>
      </contour>
    </TTGlyph>
    <TTGlyph name="Oacute" xMin="61" yMin="-12" xMax="648" yMax="911">
      <component glyphName="O" x="0" y="0" flags="0x0"/>
      <component glyphName="acute.case" x="202" y="0" flags="0x0"/>
    </TTGlyph>
    <TTGlyph name="Oacute.loclPLK" xMin="61" yMin="-12" xMax="648" yMax="926">
      <component glyphName="O" x="0" y="0" flags="0x0"/>
      <component glyphName="acute.case.loclPLK" x="191" y="0" flags="0x0"/>
    </TTGlyph>
    <TTGlyph name="Obreve" xMin="61" yMin="-12" xMax="648" yMax="896">
      <component glyphName="O" x="0" y="0" flags="0x0"/>
      <component glyphName="breve.case" x="161" y="0" flags="0x0"/>
    </TTGlyph>
    <TTGlyph name="Ocircumflex" xMin="61" yMin="-12" xMax="648" yMax="914">
      <component glyphName="O" x="0" y="0" flags="0x0"/>
      <component glyphName="circumflex.case" x="159" y="0" flags="0x0"/>
    </TTGlyph>
    <TTGlyph name="Odieresis" xMin="61" yMin="-12" xMax="648" yMax="894">
      <component glyphName="O" x="0" y="0" flags="0x0"/>
      <component glyphName="dieresis.case" x="197" y="0" flags="0x0"/>
    </TTGlyph>
    <TTGlyph name="Ograve" xMin="61" yMin="-12" xMax="648" yMax="911">
      <component glyphName="O" x="0" y="0" flags="0x0"/>
      <component glyphName="grave.case" x="202" y="0" flags="0x0"/>
    </TTGlyph>
    <TTGlyph name="Ohm" xMin="39" yMin="0" xMax="649" yMax="701">
      <component glyphName="Omega" x="0" y="0" flags="0x0"/>
    </TTGlyph>
    <TTGlyph name="Ohungarumlaut" xMin="61" yMin="-12" xMax="648" yMax="958">
      <component glyphName="O" x="0" y="0" flags="0x0"/>
      <component glyphName="hungarumlaut.case" x="208" y="0" flags="0x0"/>
    </TTGlyph>
    <TTGlyph name="Omacron" xMin="61" yMin="-12" xMax="648" yMax="862">
      <component glyphName="O" x="0" y="0" flags="0x0"/>
      <component glyphName="macron.case" x="223" y="0" flags="0x0"/>
    </TTGlyph>
    <TTGlyph name="Omega" xMin="39" yMin="0" xMax="649" yMax="701">
      <contour>
        <pt x="517" y="701" on="0"/>
        <pt x="649" y="558" on="0"/>
        <pt x="649" y="428" on="1"/>
        <pt x="649" y="164" on="0"/>
        <pt x="480" y="80" on="1"/>
        <pt x="583" y="80" on="1"/>
        <pt x="572" y="0" on="1"/>
        <pt x="359" y="0" on="1"/>
        <pt x="369" y="81" on="1"/>
        <pt x="469" y="113" on="0"/>
        <pt x="551" y="321" on="0"/>
        <pt x="551" y="442" on="1"/>
        <pt x="551" y="534" on="0"/>
        <pt x="472" y="623" on="0"/>
        <pt x="398" y="623" on="1"/>
        <pt x="311" y="623" on="0"/>
        <pt x="205" y="510" on="0"/>
        <pt x="160" y="344" on="0"/>
        <pt x="160" y="256" on="1"/>
        <pt x="160" y="181" on="0"/>
        <pt x="210" y="99" on="0"/>
        <pt x="261" y="79" on="1"/>
        <pt x="252" y="0" on="1"/>
        <pt x="39" y="0" on="1"/>
        <pt x="50" y="80" on="1"/>
        <pt x="154" y="80" on="1"/>
        <pt x="105" y="109" on="0"/>
        <pt x="61" y="200" on="0"/>
        <pt x="61" y="272" on="1"/>
        <pt x="61" y="369" on="0"/>
        <pt x="130" y="566" on="0"/>
        <pt x="283" y="701" on="0"/>
        <pt x="400" y="701" on="1"/>
      </contour>
    </TTGlyph>
    <TTGlyph name="Omegatonos" xMin="-18" yMin="0" xMax="649" yMax="714">
      <component glyphName="Omega" x="0" y="0" flags="0x0"/>
      <component glyphName="tonos.case" x="-78" y="7" flags="0x0"/>
    </TTGlyph>
    <TTGlyph name="Omicron" xMin="61" yMin="-12" xMax="648" yMax="701">
      <contour>
        <pt x="516" y="701" on="0"/>
        <pt x="648" y="555" on="0"/>
        <pt x="648" y="421" on="1"/>
        <pt x="648" y="320" on="0"/>
        <pt x="579" y="121" on="0"/>
        <pt x="427" y="-12" on="0"/>
        <pt x="308" y="-12" on="1"/>
        <pt x="194" y="-12" on="0"/>
        <pt x="61" y="132" on="0"/>
        <pt x="61" y="265" on="1"/>
        <pt x="61" y="364" on="0"/>
        <pt x="130" y="564" on="0"/>
        <pt x="283" y="701" on="0"/>
        <pt x="402" y="701" on="1"/>
      </contour>
      <contour>
        <pt x="311" y="623" on="0"/>
        <pt x="204" y="508" on="0"/>
        <pt x="159" y="340" on="0"/>
        <pt x="159" y="255" on="1"/>
        <pt x="159" y="157" on="0"/>
        <pt x="239" y="66" on="0"/>
        <pt x="311" y="66" on="1"/>
        <pt x="399" y="66" on="0"/>
        <pt x="506" y="182" on="0"/>
        <pt x="550" y="351" on="0"/>
        <pt x="550" y="438" on="1"/>
        <pt x="550" y="532" on="0"/>
        <pt x="472" y="623" on="0"/>
        <pt x="398" y="623" on="1"/>
      </contour>
    </TTGlyph>
    <TTGlyph name="Omicrontonos" xMin="-17" yMin="-12" xMax="648" yMax="714">
      <component glyphName="O" x="0" y="0" flags="0x0"/>
      <component glyphName="tonos.case" x="-77" y="7" flags="0x0"/>
    </TTGlyph>
    <TTGlyph name="Oslash" xMin="61" yMin="-127" xMax="648" yMax="819">
      <contour>
        <pt x="592" y="631" on="0"/>
        <pt x="648" y="508" on="0"/>
        <pt x="648" y="421" on="1"/>
        <pt x="648" y="320" on="0"/>
        <pt x="579" y="121" on="0"/>
        <pt x="427" y="-12" on="0"/>
        <pt x="308" y="-12" on="1"/>
        <pt x="270" y="-12" on="0"/>
        <pt x="241" y="-5" on="1"/>
        <pt x="188" y="-127" on="1"/>
        <pt x="111" y="-106" on="1"/>
        <pt x="169" y="25" on="1"/>
        <pt x="117" y="58" on="0"/>
        <pt x="61" y="180" on="0"/>
        <pt x="61" y="265" on="1"/>
        <pt x="61" y="364" on="0"/>
        <pt x="130" y="564" on="0"/>
        <pt x="283" y="701" on="0"/>
        <pt x="402" y="701" on="1"/>
        <pt x="439" y="701" on="0"/>
        <pt x="467" y="694" on="1"/>
        <pt x="522" y="819" on="1"/>
        <pt x="599" y="798" on="1"/>
        <pt x="539" y="665" on="1"/>
      </contour>
      <contour>
        <pt x="311" y="623" on="0"/>
        <pt x="204" y="508" on="0"/>
        <pt x="159" y="340" on="0"/>
        <pt x="159" y="255" on="1"/>
        <pt x="159" y="140" on="0"/>
        <pt x="211" y="96" on="1"/>
        <pt x="442" y="619" on="1"/>
        <pt x="423" y="623" on="0"/>
        <pt x="398" y="623" on="1"/>
      </contour>
      <contour>
        <pt x="399" y="66" on="0"/>
        <pt x="506" y="182" on="0"/>
        <pt x="550" y="351" on="0"/>
        <pt x="550" y="438" on="1"/>
        <pt x="550" y="553" on="0"/>
        <pt x="496" y="595" on="1"/>
        <pt x="266" y="70" on="1"/>
        <pt x="285" y="66" on="0"/>
        <pt x="311" y="66" on="1"/>
      </contour>
    </TTGlyph>
    <TTGlyph name="Oslashacute" xMin="61" yMin="-127" xMax="648" yMax="926">
      <component glyphName="Oslash" x="0" y="0" flags="0x0"/>
      <component glyphName="acute.case" x="195" y="15" flags="0x0"/>
    </TTGlyph>
    <TTGlyph name="Oslashacute.001" xMin="61" yMin="-127" xMax="648" yMax="926">
      <component glyphName="Oslash" x="0" y="0" flags="0x0"/>
      <component glyphName="acute.case" x="195" y="15" flags="0x0"/>
    </TTGlyph>
    <TTGlyph name="Otilde" xMin="61" yMin="-12" xMax="648" yMax="900">
      <component glyphName="O" x="0" y="0" flags="0x0"/>
      <component glyphName="tilde.case" x="193" y="0" flags="0x0"/>
    </TTGlyph>
    <TTGlyph name="P" xMin="62" yMin="0" xMax="576" yMax="689">
      <contour>
        <pt x="451" y="689" on="0"/>
        <pt x="576" y="598" on="0"/>
        <pt x="576" y="507" on="1"/>
        <pt x="576" y="438" on="0"/>
        <pt x="517" y="324" on="0"/>
        <pt x="384" y="253" on="0"/>
        <pt x="280" y="253" on="1"/>
        <pt x="191" y="253" on="1"/>
        <pt x="156" y="0" on="1"/>
        <pt x="62" y="0" on="1"/>
        <pt x="159" y="689" on="1"/>
        <pt x="336" y="689" on="1"/>
      </contour>
      <contour>
        <pt x="389" y="328" on="0"/>
        <pt x="476" y="429" on="0"/>
        <pt x="476" y="507" on="1"/>
        <pt x="476" y="565" on="0"/>
        <pt x="401" y="615" on="0"/>
        <pt x="329" y="615" on="1"/>
        <pt x="242" y="615" on="1"/>
        <pt x="202" y="328" on="1"/>
        <pt x="282" y="328" on="1"/>
      </contour>
    </TTGlyph>
    <TTGlyph name="Phi" xMin="45" yMin="0" xMax="782" yMax="689">
      <contour>
        <pt x="782" y="299" on="0"/>
        <pt x="710" y="161" on="0"/>
        <pt x="548" y="70" on="0"/>
        <pt x="419" y="68" on="1"/>
        <pt x="411" y="0" on="1"/>
        <pt x="319" y="0" on="1"/>
        <pt x="328" y="69" on="1"/>
        <pt x="190" y="76" on="0"/>
        <pt x="45" y="206" on="0"/>
        <pt x="45" y="314" on="1"/>
        <pt x="45" y="389" on="0"/>
        <pt x="116" y="526" on="0"/>
        <pt x="279" y="617" on="0"/>
        <pt x="407" y="619" on="1"/>
        <pt x="416" y="689" on="1"/>
        <pt x="508" y="689" on="1"/>
        <pt x="498" y="618" on="1"/>
        <pt x="636" y="611" on="0"/>
        <pt x="782" y="482" on="0"/>
        <pt x="782" y="376" on="1"/>
      </contour>
      <contour>
        <pt x="141" y="146" on="0"/>
        <pt x="341" y="139" on="1"/>
        <pt x="398" y="549" on="1"/>
        <pt x="257" y="540" on="0"/>
        <pt x="141" y="403" on="0"/>
        <pt x="141" y="309" on="1"/>
      </contour>
      <contour>
        <pt x="572" y="147" on="0"/>
        <pt x="686" y="287" on="0"/>
        <pt x="686" y="381" on="1"/>
        <pt x="686" y="459" on="0"/>
        <pt x="586" y="544" on="0"/>
        <pt x="486" y="548" on="1"/>
        <pt x="429" y="138" on="1"/>
      </contour>
    </TTGlyph>
    <TTGlyph name="Pi" xMin="62" yMin="0" xMax="630" yMax="689">
      <component glyphName="uni041F" x="0" y="0" flags="0x0"/>
    </TTGlyph>
    <TTGlyph name="Psi" xMin="55" yMin="0" xMax="713" yMax="689">
      <contour>
        <pt x="676" y="426" on="1"/>
        <pt x="646" y="212" on="0"/>
        <pt x="380" y="192" on="1"/>
        <pt x="354" y="0" on="1"/>
        <pt x="259" y="0" on="1"/>
        <pt x="286" y="193" on="1"/>
        <pt x="55" y="214" on="0"/>
        <pt x="55" y="389" on="1"/>
        <pt x="55" y="408" on="0"/>
        <pt x="58" y="429" on="1"/>
        <pt x="95" y="689" on="1"/>
        <pt x="188" y="689" on="1"/>
        <pt x="151" y="430" on="1"/>
        <pt x="149" y="404" on="0"/>
        <pt x="149" y="394" on="1"/>
        <pt x="149" y="333" on="0"/>
        <pt x="220" y="273" on="0"/>
        <pt x="299" y="269" on="1"/>
        <pt x="358" y="689" on="1"/>
        <pt x="449" y="689" on="1"/>
        <pt x="389" y="269" on="1"/>
        <pt x="477" y="277" on="0"/>
        <pt x="573" y="357" on="0"/>
        <pt x="584" y="436" on="1"/>
        <pt x="620" y="689" on="1"/>
        <pt x="713" y="689" on="1"/>
      </contour>
    </TTGlyph>
    <TTGlyph name="Q" xMin="61" yMin="-103" xMax="648" yMax="701">
      <contour>
        <pt x="648" y="345" on="0"/>
        <pt x="608" y="192" on="0"/>
        <pt x="520" y="67" on="0"/>
        <pt x="452" y="37" on="1"/>
        <pt x="503" y="36" on="0"/>
        <pt x="584" y="2" on="0"/>
        <pt x="622" y="-26" on="1"/>
        <pt x="552" y="-103" on="1"/>
        <pt x="518" y="-67" on="0"/>
        <pt x="453" y="-28" on="0"/>
        <pt x="371" y="-12" on="0"/>
        <pt x="308" y="-12" on="1"/>
        <pt x="194" y="-12" on="0"/>
        <pt x="61" y="132" on="0"/>
        <pt x="61" y="265" on="1"/>
        <pt x="61" y="364" on="0"/>
        <pt x="130" y="564" on="0"/>
        <pt x="283" y="701" on="0"/>
        <pt x="402" y="701" on="1"/>
        <pt x="516" y="701" on="0"/>
        <pt x="648" y="555" on="0"/>
        <pt x="648" y="421" on="1"/>
      </contour>
      <contour>
        <pt x="159" y="157" on="0"/>
        <pt x="239" y="66" on="0"/>
        <pt x="311" y="66" on="1"/>
        <pt x="399" y="66" on="0"/>
        <pt x="506" y="182" on="0"/>
        <pt x="550" y="351" on="0"/>
        <pt x="550" y="438" on="1"/>
        <pt x="550" y="532" on="0"/>
        <pt x="472" y="623" on="0"/>
        <pt x="398" y="623" on="1"/>
        <pt x="311" y="623" on="0"/>
        <pt x="204" y="508" on="0"/>
        <pt x="159" y="340" on="0"/>
        <pt x="159" y="255" on="1"/>
      </contour>
    </TTGlyph>
    <TTGlyph name="R" xMin="62" yMin="0" xMax="572" yMax="689">
      <contour>
        <pt x="572" y="450" on="0"/>
        <pt x="489" y="332" on="0"/>
        <pt x="398" y="306" on="1"/>
        <pt x="537" y="0" on="1"/>
        <pt x="433" y="0" on="1"/>
        <pt x="306" y="292" on="1"/>
        <pt x="197" y="292" on="1"/>
        <pt x="156" y="0" on="1"/>
        <pt x="62" y="0" on="1"/>
        <pt x="159" y="689" on="1"/>
        <pt x="336" y="689" on="1"/>
        <pt x="572" y="689" on="0"/>
        <pt x="572" y="523" on="1"/>
      </contour>
      <contour>
        <pt x="308" y="365" on="1"/>
        <pt x="397" y="365" on="0"/>
        <pt x="473" y="458" on="0"/>
        <pt x="473" y="525" on="1"/>
        <pt x="473" y="573" on="0"/>
        <pt x="405" y="615" on="0"/>
        <pt x="331" y="615" on="1"/>
        <pt x="242" y="615" on="1"/>
        <pt x="207" y="365" on="1"/>
      </contour>
    </TTGlyph>
    <TTGlyph name="Racute" xMin="62" yMin="0" xMax="572" yMax="911">
      <component glyphName="R" x="0" y="0" flags="0x0"/>
      <component glyphName="acute.case" x="151" y="0" flags="0x0"/>
    </TTGlyph>
    <TTGlyph name="Rcaron" xMin="62" yMin="0" xMax="572" yMax="909">
      <component glyphName="R" x="0" y="0" flags="0x0"/>
      <component glyphName="caron.case" x="99" y="0" flags="0x0"/>
    </TTGlyph>
    <TTGlyph name="Rcommaaccent" xMin="62" yMin="-296" xMax="572" yMax="689">
      <component glyphName="R" x="0" y="0" flags="0x0"/>
      <component glyphName="uni0326.case" x="219" y="0" flags="0x0"/>
    </TTGlyph>
    <TTGlyph name="Rho" xMin="62" yMin="0" xMax="576" yMax="689">
      <component glyphName="P" x="0" y="0" flags="0x0"/>
    </TTGlyph>
    <TTGlyph name="S" xMin="-1" yMin="-12" xMax="527" yMax="701">
      <contour>
        <pt x="389" y="701" on="0"/>
        <pt x="487" y="659" on="0"/>
        <pt x="527" y="618" on="1"/>
        <pt x="468" y="563" on="1"/>
        <pt x="436" y="595" on="0"/>
        <pt x="367" y="623" on="0"/>
        <pt x="325" y="623" on="1"/>
        <pt x="266" y="623" on="0"/>
        <pt x="183" y="563" on="0"/>
        <pt x="183" y="511" on="1"/>
        <pt x="183" y="471" on="0"/>
        <pt x="237" y="423" on="0"/>
        <pt x="312" y="398" on="1"/>
        <pt x="398" y="371" on="0"/>
        <pt x="492" y="289" on="0"/>
        <pt x="492" y="209" on="1"/>
        <pt x="492" y="160" on="0"/>
        <pt x="440" y="58" on="0"/>
        <pt x="319" y="-12" on="0"/>
        <pt x="222" y="-12" on="1"/>
        <pt x="80" y="-12" on="0"/>
        <pt x="-1" y="80" on="1"/>
        <pt x="59" y="136" on="1"/>
        <pt x="91" y="101" on="0"/>
        <pt x="171" y="66" on="0"/>
        <pt x="224" y="66" on="1"/>
        <pt x="294" y="66" on="0"/>
        <pt x="394" y="140" on="0"/>
        <pt x="394" y="204" on="1"/>
        <pt x="394" y="248" on="0"/>
        <pt x="339" y="299" on="0"/>
        <pt x="267" y="324" on="1"/>
        <pt x="175" y="352" on="0"/>
        <pt x="87" y="436" on="0"/>
        <pt x="87" y="507" on="1"/>
        <pt x="87" y="550" on="0"/>
        <pt x="138" y="640" on="0"/>
        <pt x="245" y="701" on="0"/>
        <pt x="323" y="701" on="1"/>
      </contour>
    </TTGlyph>
    <TTGlyph name="Sacute" xMin="-1" yMin="-12" xMax="527" yMax="911">
      <component glyphName="S" x="0" y="0" flags="0x0"/>
      <component glyphName="acute.case" x="128" y="0" flags="0x0"/>
    </TTGlyph>
    <TTGlyph name="Sacute.loclPLK" xMin="-1" yMin="-12" xMax="527" yMax="926">
      <component glyphName="S" x="0" y="0" flags="0x0"/>
      <component glyphName="acute.case.loclPLK" x="117" y="0" flags="0x0"/>
    </TTGlyph>
    <TTGlyph name="Scaron" xMin="-1" yMin="-12" xMax="527" yMax="909">
      <component glyphName="S" x="0" y="0" flags="0x0"/>
      <component glyphName="caron.case" x="76" y="0" flags="0x0"/>
    </TTGlyph>
    <TTGlyph name="Scedilla" xMin="-1" yMin="-241" xMax="527" yMax="701">
      <contour>
        <pt x="398" y="371" on="0"/>
        <pt x="492" y="289" on="0"/>
        <pt x="492" y="209" on="1"/>
        <pt x="492" y="160" on="0"/>
        <pt x="440" y="58" on="0"/>
        <pt x="319" y="-12" on="0"/>
        <pt x="222" y="-12" on="1"/>
        <pt x="214" y="-12" on="1"/>
        <pt x="207" y="-56" on="1"/>
        <pt x="249" y="-60" on="0"/>
        <pt x="289" y="-102" on="0"/>
        <pt x="289" y="-132" on="1"/>
        <pt x="289" y="-176" on="0"/>
        <pt x="221" y="-241" on="0"/>
        <pt x="156" y="-241" on="1"/>
        <pt x="128" y="-241" on="0"/>
        <pt x="82" y="-226" on="0"/>
        <pt x="67" y="-214" on="1"/>
        <pt x="98" y="-165" on="1"/>
        <pt x="122" y="-181" on="0"/>
        <pt x="154" y="-181" on="1"/>
        <pt x="179" y="-181" on="0"/>
        <pt x="214" y="-157" on="0"/>
        <pt x="214" y="-136" on="1"/>
        <pt x="214" y="-115" on="0"/>
        <pt x="179" y="-99" on="0"/>
        <pt x="132" y="-99" on="1"/>
        <pt x="155" y="-6" on="1"/>
        <pt x="58" y="11" on="0"/>
        <pt x="-1" y="80" on="1"/>
        <pt x="59" y="136" on="1"/>
        <pt x="91" y="101" on="0"/>
        <pt x="171" y="66" on="0"/>
        <pt x="224" y="66" on="1"/>
        <pt x="294" y="66" on="0"/>
        <pt x="394" y="140" on="0"/>
        <pt x="394" y="204" on="1"/>
        <pt x="394" y="248" on="0"/>
        <pt x="339" y="299" on="0"/>
        <pt x="267" y="324" on="1"/>
        <pt x="175" y="352" on="0"/>
        <pt x="87" y="436" on="0"/>
        <pt x="87" y="507" on="1"/>
        <pt x="87" y="550" on="0"/>
        <pt x="138" y="640" on="0"/>
        <pt x="245" y="701" on="0"/>
        <pt x="323" y="701" on="1"/>
        <pt x="389" y="701" on="0"/>
        <pt x="487" y="659" on="0"/>
        <pt x="527" y="618" on="1"/>
        <pt x="468" y="563" on="1"/>
        <pt x="436" y="595" on="0"/>
        <pt x="367" y="623" on="0"/>
        <pt x="325" y="623" on="1"/>
        <pt x="266" y="623" on="0"/>
        <pt x="183" y="563" on="0"/>
        <pt x="183" y="511" on="1"/>
        <pt x="183" y="471" on="0"/>
        <pt x="237" y="423" on="0"/>
        <pt x="312" y="398" on="1"/>
      </contour>
    </TTGlyph>
    <TTGlyph name="Scircumflex" xMin="-1" yMin="-12" xMax="527" yMax="914">
      <component glyphName="S" x="0" y="0" flags="0x0"/>
      <component glyphName="circumflex.case" x="85" y="0" flags="0x0"/>
    </TTGlyph>
    <TTGlyph name="Scommaaccent" xMin="-1" yMin="-296" xMax="527" yMax="701">
      <component glyphName="S" x="0" y="0" flags="0x0"/>
      <component glyphName="uni0326.case" x="177" y="0" flags="0x0"/>
    </TTGlyph>
    <TTGlyph name="Sigma" xMin="2" yMin="0" xMax="518" yMax="689">
      <contour>
        <pt x="193" y="611" on="1"/>
        <pt x="357" y="372" on="1"/>
        <pt x="351" y="310" on="1"/>
        <pt x="120" y="78" on="1"/>
        <pt x="432" y="78" on="1"/>
        <pt x="421" y="0" on="1"/>
        <pt x="2" y="0" on="1"/>
        <pt x="12" y="78" on="1"/>
        <pt x="270" y="339" on="1"/>
        <pt x="89" y="611" on="1"/>
        <pt x="99" y="689" on="1"/>
        <pt x="518" y="689" on="1"/>
        <pt x="507" y="611" on="1"/>
      </contour>
    </TTGlyph>
    <TTGlyph name="T" xMin="62" yMin="0" xMax="562" yMax="689">
      <contour>
        <pt x="351" y="608" on="1"/>
        <pt x="266" y="0" on="1"/>
        <pt x="171" y="0" on="1"/>
        <pt x="256" y="608" on="1"/>
        <pt x="62" y="608" on="1"/>
        <pt x="74" y="689" on="1"/>
        <pt x="562" y="689" on="1"/>
        <pt x="540" y="608" on="1"/>
      </contour>
    </TTGlyph>
    <TTGlyph name="Tau" xMin="62" yMin="0" xMax="562" yMax="689">
      <component glyphName="T" x="0" y="0" flags="0x0"/>
    </TTGlyph>
    <TTGlyph name="Tbar" xMin="62" yMin="0" xMax="562" yMax="689">
      <contour>
        <pt x="443" y="389" on="1"/>
        <pt x="434" y="319" on="1"/>
        <pt x="311" y="319" on="1"/>
        <pt x="266" y="0" on="1"/>
        <pt x="171" y="0" on="1"/>
        <pt x="216" y="319" on="1"/>
        <pt x="95" y="319" on="1"/>
        <pt x="104" y="389" on="1"/>
        <pt x="225" y="389" on="1"/>
        <pt x="256" y="608" on="1"/>
        <pt x="62" y="608" on="1"/>
        <pt x="74" y="689" on="1"/>
        <pt x="562" y="689" on="1"/>
        <pt x="540" y="608" on="1"/>
        <pt x="351" y="608" on="1"/>
        <pt x="320" y="389" on="1"/>
      </contour>
    </TTGlyph>
    <TTGlyph name="Tcaron" xMin="62" yMin="0" xMax="562" yMax="909">
      <component glyphName="T" x="0" y="0" flags="0x0"/>
      <component glyphName="caron.case" x="59" y="0" flags="0x0"/>
    </TTGlyph>
    <TTGlyph name="Tcedilla" xMin="62" yMin="-241" xMax="562" yMax="689">
      <contour>
        <pt x="540" y="608" on="1"/>
        <pt x="351" y="608" on="1"/>
        <pt x="266" y="0" on="1"/>
        <pt x="257" y="-56" on="1"/>
        <pt x="299" y="-60" on="0"/>
        <pt x="339" y="-102" on="0"/>
        <pt x="339" y="-132" on="1"/>
        <pt x="339" y="-176" on="0"/>
        <pt x="271" y="-241" on="0"/>
        <pt x="206" y="-241" on="1"/>
        <pt x="178" y="-241" on="0"/>
        <pt x="132" y="-226" on="0"/>
        <pt x="117" y="-214" on="1"/>
        <pt x="148" y="-165" on="1"/>
        <pt x="172" y="-181" on="0"/>
        <pt x="204" y="-181" on="1"/>
        <pt x="229" y="-181" on="0"/>
        <pt x="264" y="-157" on="0"/>
        <pt x="264" y="-136" on="1"/>
        <pt x="264" y="-115" on="0"/>
        <pt x="229" y="-99" on="0"/>
        <pt x="182" y="-99" on="1"/>
        <pt x="206" y="0" on="1"/>
        <pt x="171" y="0" on="1"/>
        <pt x="256" y="608" on="1"/>
        <pt x="62" y="608" on="1"/>
        <pt x="74" y="689" on="1"/>
        <pt x="562" y="689" on="1"/>
      </contour>
    </TTGlyph>
    <TTGlyph name="Theta" xMin="61" yMin="-12" xMax="648" yMax="701">
      <contour>
        <pt x="516" y="701" on="0"/>
        <pt x="648" y="556" on="0"/>
        <pt x="648" y="421" on="1"/>
        <pt x="648" y="322" on="0"/>
        <pt x="579" y="123" on="0"/>
        <pt x="426" y="-12" on="0"/>
        <pt x="308" y="-12" on="1"/>
        <pt x="194" y="-12" on="0"/>
        <pt x="61" y="132" on="0"/>
        <pt x="61" y="265" on="1"/>
        <pt x="61" y="364" on="0"/>
        <pt x="130" y="564" on="0"/>
        <pt x="282" y="701" on="0"/>
        <pt x="400" y="701" on="1"/>
      </contour>
      <contour>
        <pt x="311" y="623" on="0"/>
        <pt x="204" y="508" on="0"/>
        <pt x="159" y="340" on="0"/>
        <pt x="159" y="255" on="1"/>
        <pt x="159" y="157" on="0"/>
        <pt x="239" y="66" on="0"/>
        <pt x="311" y="66" on="1"/>
        <pt x="399" y="66" on="0"/>
        <pt x="506" y="182" on="0"/>
        <pt x="550" y="351" on="0"/>
        <pt x="550" y="438" on="1"/>
        <pt x="550" y="623" on="0"/>
        <pt x="398" y="623" on="1"/>
      </contour>
      <contour>
        <pt x="231" y="315" on="1"/>
        <pt x="242" y="389" on="1"/>
        <pt x="479" y="389" on="1"/>
        <pt x="468" y="315" on="1"/>
      </contour>
    </TTGlyph>
    <TTGlyph name="Thorn" xMin="62" yMin="0" xMax="559" yMax="689">
      <contour>
        <pt x="434" y="571" on="0"/>
        <pt x="559" y="479" on="0"/>
        <pt x="559" y="385" on="1"/>
        <pt x="559" y="319" on="0"/>
        <pt x="502" y="202" on="0"/>
        <pt x="369" y="127" on="0"/>
        <pt x="262" y="127" on="1"/>
        <pt x="174" y="127" on="1"/>
        <pt x="156" y="0" on="1"/>
        <pt x="62" y="0" on="1"/>
        <pt x="159" y="689" on="1"/>
        <pt x="253" y="689" on="1"/>
        <pt x="236" y="571" on="1"/>
        <pt x="319" y="571" on="1"/>
      </contour>
      <contour>
        <pt x="369" y="202" on="0"/>
        <pt x="459" y="306" on="0"/>
        <pt x="459" y="385" on="1"/>
        <pt x="459" y="446" on="0"/>
        <pt x="385" y="497" on="0"/>
        <pt x="313" y="497" on="1"/>
        <pt x="226" y="497" on="1"/>
        <pt x="184" y="202" on="1"/>
        <pt x="264" y="202" on="1"/>
      </contour>
    </TTGlyph>
    <TTGlyph name="U" xMin="80" yMin="-12" xMax="627" yMax="689">
      <contour>
        <pt x="546" y="113" on="0"/>
        <pt x="404" y="-12" on="0"/>
        <pt x="292" y="-12" on="1"/>
        <pt x="190" y="-12" on="0"/>
        <pt x="80" y="93" on="0"/>
        <pt x="80" y="182" on="1"/>
        <pt x="80" y="203" on="0"/>
        <pt x="83" y="224" on="1"/>
        <pt x="149" y="689" on="1"/>
        <pt x="243" y="689" on="1"/>
        <pt x="178" y="225" on="1"/>
        <pt x="175" y="203" on="0"/>
        <pt x="175" y="183" on="1"/>
        <pt x="175" y="125" on="0"/>
        <pt x="235" y="68" on="0"/>
        <pt x="296" y="68" on="1"/>
        <pt x="444" y="68" on="0"/>
        <pt x="467" y="231" on="1"/>
        <pt x="532" y="689" on="1"/>
        <pt x="627" y="689" on="1"/>
        <pt x="561" y="218" on="1"/>
      </contour>
    </TTGlyph>
    <TTGlyph name="Uacute" xMin="80" yMin="-12" xMax="627" yMax="911">
      <component glyphName="U" x="0" y="0" flags="0x0"/>
      <component glyphName="acute.case" x="183" y="0" flags="0x0"/>
    </TTGlyph>
    <TTGlyph name="Ubreve" xMin="80" yMin="-12" xMax="627" yMax="896">
      <component glyphName="U" x="0" y="0" flags="0x0"/>
      <component glyphName="breve.case" x="142" y="0" flags="0x0"/>
    </TTGlyph>
    <TTGlyph name="Ucircumflex" xMin="80" yMin="-12" xMax="627" yMax="914">
      <component glyphName="U" x="0" y="0" flags="0x0"/>
      <component glyphName="circumflex.case" x="140" y="0" flags="0x0"/>
    </TTGlyph>
    <TTGlyph name="Udieresis" xMin="80" yMin="-12" xMax="627" yMax="894">
      <component glyphName="U" x="0" y="0" flags="0x0"/>
      <component glyphName="dieresis.case" x="178" y="0" flags="0x0"/>
    </TTGlyph>
    <TTGlyph name="Ugrave" xMin="80" yMin="-12" xMax="627" yMax="911">
      <component glyphName="U" x="0" y="0" flags="0x0"/>
      <component glyphName="grave.case" x="183" y="0" flags="0x0"/>
    </TTGlyph>
    <TTGlyph name="Uhungarumlaut" xMin="80" yMin="-12" xMax="627" yMax="958">
      <component glyphName="U" x="0" y="0" flags="0x0"/>
      <component glyphName="hungarumlaut.case" x="189" y="0" flags="0x0"/>
    </TTGlyph>
    <TTGlyph name="Umacron" xMin="80" yMin="-12" xMax="627" yMax="862">
      <component glyphName="U" x="0" y="0" flags="0x0"/>
      <component glyphName="macron.case" x="204" y="0" flags="0x0"/>
    </TTGlyph>
    <TTGlyph name="Uogonek" xMin="80" yMin="-232" xMax="627" yMax="689">
      <contour>
        <pt x="561" y="218" on="1"/>
        <pt x="549" y="133" on="0"/>
        <pt x="450" y="17" on="0"/>
        <pt x="371" y="-3" on="1"/>
        <pt x="303" y="-32" on="0"/>
        <pt x="254" y="-85" on="0"/>
        <pt x="254" y="-114" on="1"/>
        <pt x="254" y="-162" on="0"/>
        <pt x="310" y="-162" on="1"/>
        <pt x="337" y="-162" on="0"/>
        <pt x="371" y="-155" on="1"/>
        <pt x="362" y="-225" on="1"/>
        <pt x="327" y="-232" on="0"/>
        <pt x="299" y="-232" on="1"/>
        <pt x="242" y="-232" on="0"/>
        <pt x="174" y="-175" on="0"/>
        <pt x="174" y="-131" on="1"/>
        <pt x="174" y="-54" on="0"/>
        <pt x="270" y="-11" on="1"/>
        <pt x="178" y="-5" on="0"/>
        <pt x="80" y="99" on="0"/>
        <pt x="80" y="182" on="1"/>
        <pt x="80" y="203" on="0"/>
        <pt x="83" y="224" on="1"/>
        <pt x="149" y="689" on="1"/>
        <pt x="243" y="689" on="1"/>
        <pt x="178" y="225" on="1"/>
        <pt x="175" y="203" on="0"/>
        <pt x="175" y="183" on="1"/>
        <pt x="175" y="125" on="0"/>
        <pt x="235" y="68" on="0"/>
        <pt x="296" y="68" on="1"/>
        <pt x="444" y="68" on="0"/>
        <pt x="467" y="231" on="1"/>
        <pt x="532" y="689" on="1"/>
        <pt x="627" y="689" on="1"/>
      </contour>
    </TTGlyph>
    <TTGlyph name="Upsilon" xMin="65" yMin="0" xMax="600" yMax="689">
      <contour>
        <pt x="283" y="0" on="1"/>
        <pt x="187" y="0" on="1"/>
        <pt x="225" y="264" on="1"/>
        <pt x="65" y="689" on="1"/>
        <pt x="164" y="689" on="1"/>
        <pt x="282" y="348" on="1"/>
        <pt x="497" y="689" on="1"/>
        <pt x="600" y="689" on="1"/>
        <pt x="320" y="265" on="1"/>
      </contour>
    </TTGlyph>
    <TTGlyph name="Upsilondieresis" xMin="65" yMin="0" xMax="600" yMax="894">
      <component glyphName="Y" x="0" y="0" flags="0x0"/>
      <component glyphName="dieresis.case" x="125" y="0" flags="0x0"/>
    </TTGlyph>
    <TTGlyph name="Upsilontonos" xMin="-117" yMin="0" xMax="600" yMax="714">
      <component glyphName="Y" x="0" y="0" flags="0x0"/>
      <component glyphName="tonos.case" x="-177" y="7" flags="0x0"/>
    </TTGlyph>
    <TTGlyph name="Uring" xMin="80" yMin="-12" xMax="627" yMax="962">
      <component glyphName="U" x="0" y="0" flags="0x0"/>
      <component glyphName="ring.case" x="227" y="0" flags="0x0"/>
    </TTGlyph>
    <TTGlyph name="Utilde" xMin="80" yMin="-12" xMax="627" yMax="900">
      <component glyphName="U" x="0" y="0" flags="0x0"/>
      <component glyphName="tilde.case" x="174" y="0" flags="0x0"/>
    </TTGlyph>
    <TTGlyph name="V" xMin="65" yMin="0" xMax="604" yMax="689">
      <contour>
        <pt x="188" y="0" on="1"/>
        <pt x="65" y="689" on="1"/>
        <pt x="163" y="689" on="1"/>
        <pt x="251" y="103" on="1"/>
        <pt x="506" y="689" on="1"/>
        <pt x="604" y="689" on="1"/>
        <pt x="289" y="0" on="1"/>
      </contour>
    </TTGlyph>
    <TTGlyph name="W" xMin="86" yMin="0" xMax="855" yMax="689">
      <contour>
        <pt x="498" y="0" on="1"/>
        <pt x="454" y="577" on="1"/>
        <pt x="246" y="0" on="1"/>
        <pt x="128" y="0" on="1"/>
        <pt x="86" y="689" on="1"/>
        <pt x="176" y="689" on="1"/>
        <pt x="200" y="83" on="1"/>
        <pt x="417" y="689" on="1"/>
        <pt x="519" y="689" on="1"/>
        <pt x="568" y="83" on="1"/>
        <pt x="768" y="689" on="1"/>
        <pt x="855" y="689" on="1"/>
        <pt x="619" y="0" on="1"/>
      </contour>
    </TTGlyph>
    <TTGlyph name="Wacute" xMin="86" yMin="0" xMax="855" yMax="911">
      <component glyphName="W" x="0" y="0" flags="0x0"/>
      <component glyphName="acute.case" x="265" y="0" flags="0x0"/>
    </TTGlyph>
    <TTGlyph name="Wcircumflex" xMin="86" yMin="0" xMax="855" yMax="914">
      <component glyphName="W" x="0" y="0" flags="0x0"/>
      <component glyphName="circumflex.case" x="222" y="0" flags="0x0"/>
    </TTGlyph>
    <TTGlyph name="Wdieresis" xMin="86" yMin="0" xMax="855" yMax="894">
      <component glyphName="W" x="0" y="0" flags="0x0"/>
      <component glyphName="dieresis.case" x="260" y="0" flags="0x0"/>
    </TTGlyph>
    <TTGlyph name="Wgrave" xMin="86" yMin="0" xMax="855" yMax="911">
      <component glyphName="W" x="0" y="0" flags="0x0"/>
      <component glyphName="grave.case" x="265" y="0" flags="0x0"/>
    </TTGlyph>
    <TTGlyph name="X" xMin="-33" yMin="0" xMax="567" yMax="689">
      <contour>
        <pt x="492" y="0" on="1"/>
        <pt x="389" y="0" on="1"/>
        <pt x="276" y="305" on="1"/>
        <pt x="72" y="0" on="1"/>
        <pt x="-33" y="0" on="1"/>
        <pt x="223" y="367" on="1"/>
        <pt x="225" y="369" on="1"/>
        <pt x="83" y="689" on="1"/>
        <pt x="186" y="689" on="1"/>
        <pt x="285" y="430" on="1"/>
        <pt x="463" y="689" on="1"/>
        <pt x="567" y="689" on="1"/>
        <pt x="338" y="372" on="1"/>
        <pt x="336" y="370" on="1"/>
      </contour>
    </TTGlyph>
    <TTGlyph name="Xi" xMin="7" yMin="0" xMax="513" yMax="689">
      <contour>
        <pt x="92" y="603" on="1"/>
        <pt x="104" y="689" on="1"/>
        <pt x="513" y="689" on="1"/>
        <pt x="488" y="603" on="1"/>
      </contour>
      <contour>
        <pt x="110" y="307" on="1"/>
        <pt x="122" y="392" on="1"/>
        <pt x="411" y="392" on="1"/>
        <pt x="399" y="307" on="1"/>
      </contour>
      <contour>
        <pt x="7" y="0" on="1"/>
        <pt x="19" y="88" on="1"/>
        <pt x="436" y="88" on="1"/>
        <pt x="424" y="0" on="1"/>
      </contour>
    </TTGlyph>
    <TTGlyph name="Y" xMin="65" yMin="0" xMax="600" yMax="689">
      <contour>
        <pt x="283" y="0" on="1"/>
        <pt x="187" y="0" on="1"/>
        <pt x="225" y="264" on="1"/>
        <pt x="65" y="689" on="1"/>
        <pt x="164" y="689" on="1"/>
        <pt x="282" y="348" on="1"/>
        <pt x="497" y="689" on="1"/>
        <pt x="600" y="689" on="1"/>
        <pt x="320" y="265" on="1"/>
      </contour>
    </TTGlyph>
    <TTGlyph name="Yacute" xMin="65" yMin="0" xMax="600" yMax="911">
      <component glyphName="Y" x="0" y="0" flags="0x0"/>
      <component glyphName="acute.case" x="130" y="0" flags="0x0"/>
    </TTGlyph>
    <TTGlyph name="Ycircumflex" xMin="65" yMin="0" xMax="600" yMax="914">
      <component glyphName="Y" x="0" y="0" flags="0x0"/>
      <component glyphName="circumflex.case" x="87" y="0" flags="0x0"/>
    </TTGlyph>
    <TTGlyph name="Ydieresis" xMin="65" yMin="0" xMax="600" yMax="894">
      <component glyphName="Y" x="0" y="0" flags="0x0"/>
      <component glyphName="dieresis.case" x="125" y="0" flags="0x0"/>
    </TTGlyph>
    <TTGlyph name="Ygrave" xMin="65" yMin="0" xMax="600" yMax="911">
      <component glyphName="Y" x="0" y="0" flags="0x0"/>
      <component glyphName="grave.case" x="130" y="0" flags="0x0"/>
    </TTGlyph>
    <TTGlyph name="Z" xMin="-8" yMin="0" xMax="532" yMax="689">
      <contour>
        <pt x="111" y="80" on="1"/>
        <pt x="446" y="81" on="1"/>
        <pt x="424" y="0" on="1"/>
        <pt x="-8" y="0" on="1"/>
        <pt x="2" y="76" on="1"/>
        <pt x="416" y="609" on="1"/>
        <pt x="114" y="609" on="1"/>
        <pt x="125" y="689" on="1"/>
        <pt x="532" y="689" on="1"/>
        <pt x="522" y="612" on="1"/>
      </contour>
    </TTGlyph>
    <TTGlyph name="Zacute" xMin="-8" yMin="0" xMax="532" yMax="911">
      <component glyphName="Z" x="0" y="0" flags="0x0"/>
      <component glyphName="acute.case" x="124" y="0" flags="0x0"/>
    </TTGlyph>
    <TTGlyph name="Zacute.loclPLK" xMin="-8" yMin="0" xMax="532" yMax="926">
      <component glyphName="Z" x="0" y="0" flags="0x0"/>
      <component glyphName="acute.case.loclPLK" x="113" y="0" flags="0x0"/>
    </TTGlyph>
    <TTGlyph name="Zcaron" xMin="-8" yMin="0" xMax="532" yMax="909">
      <component glyphName="Z" x="0" y="0" flags="0x0"/>
      <component glyphName="caron.case" x="72" y="0" flags="0x0"/>
    </TTGlyph>
    <TTGlyph name="Zdotaccent" xMin="-8" yMin="0" xMax="532" yMax="906">
      <component glyphName="Z" x="0" y="0" flags="0x0"/>
      <component glyphName="dotaccent.case" x="218" y="0" flags="0x0"/>
    </TTGlyph>
    <TTGlyph name="Zeta" xMin="-8" yMin="0" xMax="532" yMax="689">
      <component glyphName="Z" x="0" y="0" flags="0x0"/>
    </TTGlyph>
    <TTGlyph name="a" xMin="50" yMin="-12" xMax="519" yMax="539">
      <contour>
        <pt x="380" y="539" on="0"/>
        <pt x="468" y="519" on="0"/>
        <pt x="519" y="494" on="1"/>
        <pt x="462" y="120" on="1"/>
        <pt x="460" y="104" on="0"/>
        <pt x="460" y="99" on="1"/>
        <pt x="460" y="79" on="0"/>
        <pt x="477" y="58" on="0"/>
        <pt x="494" y="51" on="1"/>
        <pt x="468" y="-12" on="1"/>
        <pt x="426" y="-7" on="0"/>
        <pt x="380" y="35" on="0"/>
        <pt x="375" y="76" on="1"/>
        <pt x="343" y="35" on="0"/>
        <pt x="263" y="-12" on="0"/>
        <pt x="218" y="-12" on="1"/>
        <pt x="137" y="-12" on="0"/>
        <pt x="50" y="97" on="0"/>
        <pt x="50" y="190" on="1"/>
        <pt x="50" y="270" on="0"/>
        <pt x="109" y="430" on="0"/>
        <pt x="235" y="539" on="0"/>
        <pt x="331" y="539" on="1"/>
      </contour>
      <contour>
        <pt x="270" y="466" on="0"/>
        <pt x="187" y="381" on="0"/>
        <pt x="148" y="254" on="0"/>
        <pt x="148" y="189" on="1"/>
        <pt x="148" y="61" on="0"/>
        <pt x="240" y="61" on="1"/>
        <pt x="279" y="61" on="0"/>
        <pt x="343" y="111" on="0"/>
        <pt x="378" y="158" on="1"/>
        <pt x="422" y="449" on="1"/>
        <pt x="400" y="459" on="0"/>
        <pt x="361" y="466" on="0"/>
        <pt x="333" y="466" on="1"/>
      </contour>
    </TTGlyph>
    <TTGlyph name="a.sc" xMin="-32" yMin="0" xMax="456" yMax="564">
      <contour>
        <pt x="64" y="0" on="1"/>
        <pt x="-32" y="0" on="1"/>
        <pt x="236" y="564" on="1"/>
        <pt x="349" y="564" on="1"/>
        <pt x="456" y="0" on="1"/>
        <pt x="363" y="0" on="1"/>
        <pt x="340" y="137" on="1"/>
        <pt x="125" y="137" on="1"/>
      </contour>
      <contour>
        <pt x="156" y="209" on="1"/>
        <pt x="328" y="209" on="1"/>
        <pt x="281" y="491" on="1"/>
      </contour>
    </TTGlyph>
    <TTGlyph name="aacute" xMin="50" yMin="-12" xMax="519" yMax="801">
      <component glyphName="a" x="0" y="0" flags="0x0"/>
      <component glyphName="acute" x="139" y="0" flags="0x0"/>
    </TTGlyph>
    <TTGlyph name="aacute.sc" xMin="-32" yMin="0" xMax="456" yMax="831">
      <component glyphName="a.sc" x="0" y="0" flags="0x0"/>
      <component glyphName="acute.sc" x="148" y="0" flags="0x0"/>
    </TTGlyph>
    <TTGlyph name="abreve" xMin="50" yMin="-12" xMax="519" yMax="791">
      <component glyphName="a" x="0" y="0" flags="0x0"/>
      <component glyphName="breve" x="117" y="0" flags="0x0"/>
    </TTGlyph>
    <TTGlyph name="abreve.sc" xMin="-32" yMin="0" xMax="469" yMax="821">
      <component glyphName="a.sc" x="0" y="0" flags="0x0"/>
      <component glyphName="breve.sc" x="106" y="0" flags="0x0"/>
    </TTGlyph>
    <TTGlyph name="acircumflex" xMin="50" yMin="-12" xMax="519" yMax="792">
      <component glyphName="a" x="0" y="0" flags="0x0"/>
      <component glyphName="circumflex" x="103" y="0" flags="0x0"/>
    </TTGlyph>
    <TTGlyph name="acircumflex.sc" xMin="-32" yMin="0" xMax="482" yMax="822">
      <component glyphName="a.sc" x="0" y="0" flags="0x0"/>
      <component glyphName="circumflex.sc" x="105" y="0" flags="0x0"/>
    </TTGlyph>
    <TTGlyph name="acute" xMin="89" yMin="638" xMax="330" yMax="801">
      <contour>
        <pt x="110" y="638" on="1"/>
        <pt x="89" y="687" on="1"/>
        <pt x="300" y="801" on="1"/>
        <pt x="330" y="724" on="1"/>
      </contour>
    </TTGlyph>
    <TTGlyph name="acute.case" xMin="105" yMin="755" xMax="345" yMax="911">
      <contour>
        <pt x="122" y="755" on="1"/>
        <pt x="105" y="804" on="1"/>
        <pt x="316" y="911" on="1"/>
        <pt x="345" y="834" on="1"/>
      </contour>
    </TTGlyph>
    <TTGlyph name="acute.case.loclPLK" xMin="162" yMin="734" xMax="354" yMax="926">
      <contour>
        <pt x="204" y="734" on="1"/>
        <pt x="162" y="762" on="1"/>
        <pt x="288" y="926" on="1"/>
        <pt x="354" y="879" on="1"/>
      </contour>
    </TTGlyph>
    <TTGlyph name="acute.loclPLK" xMin="141" yMin="577" xMax="333" yMax="777">
      <contour>
        <pt x="183" y="577" on="1"/>
        <pt x="141" y="605" on="1"/>
        <pt x="267" y="777" on="1"/>
        <pt x="333" y="730" on="1"/>
      </contour>
    </TTGlyph>
    <TTGlyph name="acute.sc" xMin="51" yMin="668" xMax="292" yMax="831">
      <contour>
        <pt x="72" y="668" on="1"/>
        <pt x="51" y="717" on="1"/>
        <pt x="262" y="831" on="1"/>
        <pt x="292" y="754" on="1"/>
      </contour>
    </TTGlyph>
    <TTGlyph name="acute.sc.loclPLK" xMin="144" yMin="619" xMax="335" yMax="819">
      <contour>
        <pt x="186" y="619" on="1"/>
        <pt x="144" y="647" on="1"/>
        <pt x="270" y="819" on="1"/>
        <pt x="335" y="772" on="1"/>
      </contour>
    </TTGlyph>
    <TTGlyph name="acutecomb" xMin="114" yMin="629" xMax="354" yMax="785">
      <contour>
        <pt x="131" y="629" on="1"/>
        <pt x="114" y="678" on="1"/>
        <pt x="325" y="785" on="1"/>
        <pt x="354" y="708" on="1"/>
      </contour>
    </TTGlyph>
    <TTGlyph name="adieresis" xMin="50" yMin="-12" xMax="519" yMax="768">
      <component glyphName="a" x="0" y="0" flags="0x0"/>
      <component glyphName="dieresis" x="101" y="0" flags="0x0"/>
    </TTGlyph>
    <TTGlyph name="adieresis.sc" xMin="-32" yMin="0" xMax="478" yMax="798">
      <component glyphName="a.sc" x="0" y="0" flags="0x0"/>
      <component glyphName="dieresis.sc" x="103" y="0" flags="0x0"/>
    </TTGlyph>
    <TTGlyph name="ae" xMin="38" yMin="-12" xMax="800" yMax="539">
      <contour>
        <pt x="418" y="539" on="0"/>
        <pt x="453" y="456" on="1"/>
        <pt x="483" y="493" on="0"/>
        <pt x="575" y="539" on="0"/>
        <pt x="633" y="539" on="1"/>
        <pt x="713" y="539" on="0"/>
        <pt x="800" y="461" on="0"/>
        <pt x="800" y="405" on="1"/>
        <pt x="800" y="334" on="0"/>
        <pt x="709" y="250" on="0"/>
        <pt x="561" y="211" on="0"/>
        <pt x="453" y="200" on="1"/>
        <pt x="454" y="129" on="0"/>
        <pt x="517" y="65" on="0"/>
        <pt x="572" y="65" on="1"/>
        <pt x="609" y="65" on="0"/>
        <pt x="677" y="89" on="0"/>
        <pt x="713" y="114" on="1"/>
        <pt x="752" y="52" on="1"/>
        <pt x="663" y="-12" on="0"/>
        <pt x="563" y="-12" on="1"/>
        <pt x="501" y="-12" on="0"/>
        <pt x="413" y="36" on="0"/>
        <pt x="389" y="81" on="1"/>
        <pt x="347" y="31" on="0"/>
        <pt x="250" y="-12" on="0"/>
        <pt x="190" y="-12" on="1"/>
        <pt x="118" y="-12" on="0"/>
        <pt x="38" y="64" on="0"/>
        <pt x="38" y="127" on="1"/>
        <pt x="38" y="205" on="0"/>
        <pt x="160" y="308" on="0"/>
        <pt x="294" y="308" on="1"/>
        <pt x="375" y="308" on="1"/>
        <pt x="383" y="349" on="0"/>
        <pt x="395" y="384" on="1"/>
        <pt x="393" y="419" on="0"/>
        <pt x="327" y="464" on="0"/>
        <pt x="281" y="464" on="1"/>
        <pt x="226" y="464" on="0"/>
        <pt x="142" y="437" on="1"/>
        <pt x="124" y="509" on="1"/>
        <pt x="209" y="539" on="0"/>
        <pt x="304" y="539" on="1"/>
      </contour>
      <contour>
        <pt x="557" y="466" on="0"/>
        <pt x="472" y="352" on="0"/>
        <pt x="459" y="270" on="1"/>
        <pt x="544" y="279" on="0"/>
        <pt x="647" y="306" on="0"/>
        <pt x="704" y="358" on="0"/>
        <pt x="704" y="402" on="1"/>
        <pt x="704" y="426" on="0"/>
        <pt x="670" y="466" on="0"/>
        <pt x="632" y="466" on="1"/>
      </contour>
      <contour>
        <pt x="220" y="245" on="0"/>
        <pt x="138" y="189" on="0"/>
        <pt x="138" y="126" on="1"/>
        <pt x="138" y="57" on="0"/>
        <pt x="213" y="57" on="1"/>
        <pt x="256" y="57" on="0"/>
        <pt x="331" y="103" on="0"/>
        <pt x="367" y="151" on="1"/>
        <pt x="365" y="169" on="0"/>
        <pt x="365" y="205" on="1"/>
        <pt x="365" y="239" on="0"/>
        <pt x="366" y="245" on="1"/>
        <pt x="302" y="245" on="1"/>
      </contour>
    </TTGlyph>
    <TTGlyph name="ae.sc" xMin="-49" yMin="0" xMax="668" yMax="564">
      <contour>
        <pt x="394" y="493" on="1"/>
        <pt x="410" y="322" on="1"/>
        <pt x="627" y="322" on="1"/>
        <pt x="617" y="251" on="1"/>
        <pt x="416" y="251" on="1"/>
        <pt x="433" y="71" on="1"/>
        <pt x="633" y="71" on="1"/>
        <pt x="623" y="0" on="1"/>
        <pt x="355" y="0" on="1"/>
        <pt x="343" y="137" on="1"/>
        <pt x="121" y="137" on="1"/>
        <pt x="48" y="0" on="1"/>
        <pt x="-49" y="0" on="1"/>
        <pt x="265" y="564" on="1"/>
        <pt x="668" y="564" on="1"/>
        <pt x="648" y="493" on="1"/>
      </contour>
      <contour>
        <pt x="336" y="209" on="1"/>
        <pt x="311" y="494" on="1"/>
        <pt x="159" y="209" on="1"/>
      </contour>
    </TTGlyph>
    <TTGlyph name="aeacute" xMin="38" yMin="-12" xMax="800" yMax="801">
      <component glyphName="ae" x="0" y="0" flags="0x0"/>
      <component glyphName="acute" x="271" y="0" flags="0x0"/>
    </TTGlyph>
    <TTGlyph name="aeacute.sc" xMin="-49" yMin="0" xMax="668" yMax="831">
      <component glyphName="ae.sc" x="0" y="0" flags="0x0"/>
      <component glyphName="acute.sc" x="297" y="0" flags="0x0"/>
    </TTGlyph>
    <TTGlyph name="agrave" xMin="50" yMin="-12" xMax="519" yMax="801">
      <component glyphName="a" x="0" y="0" flags="0x0"/>
      <component glyphName="grave" x="159" y="0" flags="0x0"/>
    </TTGlyph>
    <TTGlyph name="agrave.sc" xMin="-32" yMin="0" xMax="456" yMax="831">
      <component glyphName="a.sc" x="0" y="0" flags="0x0"/>
      <component glyphName="grave.sc" x="148" y="0" flags="0x0"/>
    </TTGlyph>
    <TTGlyph name="alpha" xMin="49" yMin="-13" xMax="563" yMax="539">
      <contour>
        <pt x="357" y="539" on="0"/>
        <pt x="430" y="464" on="0"/>
        <pt x="435" y="381" on="1"/>
        <pt x="479" y="527" on="1"/>
        <pt x="563" y="527" on="1"/>
        <pt x="469" y="250" on="1"/>
        <pt x="476" y="113" on="1"/>
        <pt x="477" y="92" on="0"/>
        <pt x="492" y="70" on="0"/>
        <pt x="513" y="62" on="1"/>
        <pt x="474" y="-13" on="1"/>
        <pt x="440" y="-7" on="0"/>
        <pt x="394" y="44" on="0"/>
        <pt x="393" y="85" on="1"/>
        <pt x="392" y="136" on="1"/>
        <pt x="324" y="-12" on="0"/>
        <pt x="212" y="-12" on="1"/>
        <pt x="134" y="-12" on="0"/>
        <pt x="49" y="89" on="0"/>
        <pt x="49" y="188" on="1"/>
        <pt x="49" y="268" on="0"/>
        <pt x="97" y="430" on="0"/>
        <pt x="204" y="539" on="0"/>
        <pt x="287" y="539" on="1"/>
      </contour>
      <contour>
        <pt x="241" y="466" on="0"/>
        <pt x="174" y="370" on="0"/>
        <pt x="145" y="236" on="0"/>
        <pt x="145" y="179" on="1"/>
        <pt x="145" y="61" on="0"/>
        <pt x="224" y="61" on="1"/>
        <pt x="268" y="61" on="0"/>
        <pt x="354" y="151" on="0"/>
        <pt x="394" y="269" on="1"/>
        <pt x="392" y="346" on="0"/>
        <pt x="368" y="432" on="0"/>
        <pt x="326" y="466" on="0"/>
        <pt x="294" y="466" on="1"/>
      </contour>
    </TTGlyph>
    <TTGlyph name="alpha.sc" xMin="-32" yMin="0" xMax="456" yMax="564">
      <contour>
        <pt x="64" y="0" on="1"/>
        <pt x="-32" y="0" on="1"/>
        <pt x="236" y="564" on="1"/>
        <pt x="349" y="564" on="1"/>
        <pt x="456" y="0" on="1"/>
        <pt x="363" y="0" on="1"/>
        <pt x="340" y="137" on="1"/>
        <pt x="125" y="137" on="1"/>
      </contour>
      <contour>
        <pt x="156" y="209" on="1"/>
        <pt x="328" y="209" on="1"/>
        <pt x="281" y="491" on="1"/>
      </contour>
    </TTGlyph>
    <TTGlyph name="alphatonos" xMin="49" yMin="-13" xMax="563" yMax="812">
      <component glyphName="alpha" x="0" y="0" flags="0x0"/>
      <component glyphName="tonos" x="205" y="0" flags="0x0"/>
    </TTGlyph>
    <TTGlyph name="alphatonos.sc" xMin="-32" yMin="0" xMax="456" yMax="564">
      <component glyphName="a.sc" x="0" y="0" flags="0x0"/>
    </TTGlyph>
    <TTGlyph name="amacron" xMin="50" yMin="-12" xMax="519" yMax="736">
      <component glyphName="a" x="0" y="0" flags="0x0"/>
      <component glyphName="macron" x="132" y="0" flags="0x0"/>
    </TTGlyph>
    <TTGlyph name="amacron.sc" xMin="-32" yMin="0" xMax="457" yMax="766">
      <component glyphName="a.sc" x="0" y="0" flags="0x0"/>
      <component glyphName="macron.sc" x="130" y="0" flags="0x0"/>
    </TTGlyph>
    <TTGlyph name="ampersand" xMin="76" yMin="-12" xMax="666" yMax="701">
      <contour>
        <pt x="396" y="701" on="0"/>
        <pt x="477" y="663" on="0"/>
        <pt x="522" y="599" on="0"/>
        <pt x="522" y="560" on="1"/>
        <pt x="522" y="514" on="0"/>
        <pt x="477" y="445" on="0"/>
        <pt x="408" y="396" on="0"/>
        <pt x="353" y="367" on="1"/>
        <pt x="505" y="200" on="1"/>
        <pt x="556" y="280" on="0"/>
        <pt x="584" y="355" on="1"/>
        <pt x="666" y="325" on="1"/>
        <pt x="617" y="223" on="0"/>
        <pt x="557" y="144" on="1"/>
        <pt x="652" y="40" on="1"/>
        <pt x="582" y="-12" on="1"/>
        <pt x="499" y="82" on="1"/>
        <pt x="450" y="35" on="0"/>
        <pt x="337" y="-12" on="0"/>
        <pt x="268" y="-12" on="1"/>
        <pt x="209" y="-12" on="0"/>
        <pt x="122" y="35" on="0"/>
        <pt x="76" y="116" on="0"/>
        <pt x="76" y="165" on="1"/>
        <pt x="76" y="229" on="0"/>
        <pt x="142" y="327" on="0"/>
        <pt x="232" y="380" on="1"/>
        <pt x="195" y="422" on="0"/>
        <pt x="157" y="494" on="0"/>
        <pt x="157" y="534" on="1"/>
        <pt x="157" y="609" on="0"/>
        <pt x="257" y="701" on="0"/>
        <pt x="347" y="701" on="1"/>
      </contour>
      <contour>
        <pt x="299" y="633" on="0"/>
        <pt x="246" y="579" on="0"/>
        <pt x="246" y="534" on="1"/>
        <pt x="246" y="503" on="0"/>
        <pt x="274" y="447" on="0"/>
        <pt x="303" y="417" on="1"/>
        <pt x="369" y="454" on="0"/>
        <pt x="433" y="516" on="0"/>
        <pt x="433" y="560" on="1"/>
        <pt x="433" y="592" on="0"/>
        <pt x="385" y="633" on="0"/>
        <pt x="347" y="633" on="1"/>
      </contour>
      <contour>
        <pt x="211" y="286" on="0"/>
        <pt x="169" y="214" on="0"/>
        <pt x="169" y="169" on="1"/>
        <pt x="169" y="123" on="0"/>
        <pt x="229" y="61" on="0"/>
        <pt x="281" y="61" on="1"/>
        <pt x="328" y="61" on="0"/>
        <pt x="410" y="99" on="0"/>
        <pt x="450" y="136" on="1"/>
        <pt x="278" y="326" on="1"/>
      </contour>
    </TTGlyph>
    <TTGlyph name="aogonek" xMin="50" yMin="-243" xMax="519" yMax="539">
      <contour>
        <pt x="460" y="79" on="0"/>
        <pt x="477" y="58" on="0"/>
        <pt x="494" y="51" on="1"/>
        <pt x="468" y="-12" on="1"/>
        <pt x="383" y="-47" on="0"/>
        <pt x="326" y="-108" on="0"/>
        <pt x="326" y="-138" on="1"/>
        <pt x="326" y="-155" on="0"/>
        <pt x="351" y="-173" on="0"/>
        <pt x="373" y="-173" on="1"/>
        <pt x="398" y="-173" on="0"/>
        <pt x="436" y="-165" on="1"/>
        <pt x="421" y="-237" on="1"/>
        <pt x="391" y="-243" on="0"/>
        <pt x="360" y="-243" on="1"/>
        <pt x="307" y="-243" on="0"/>
        <pt x="246" y="-190" on="0"/>
        <pt x="246" y="-149" on="1"/>
        <pt x="246" y="-47" on="0"/>
        <pt x="409" y="9" on="1"/>
        <pt x="381" y="31" on="0"/>
        <pt x="375" y="76" on="1"/>
        <pt x="343" y="35" on="0"/>
        <pt x="263" y="-12" on="0"/>
        <pt x="218" y="-12" on="1"/>
        <pt x="137" y="-12" on="0"/>
        <pt x="50" y="97" on="0"/>
        <pt x="50" y="190" on="1"/>
        <pt x="50" y="270" on="0"/>
        <pt x="109" y="430" on="0"/>
        <pt x="235" y="539" on="0"/>
        <pt x="331" y="539" on="1"/>
        <pt x="380" y="539" on="0"/>
        <pt x="468" y="519" on="0"/>
        <pt x="519" y="494" on="1"/>
        <pt x="462" y="120" on="1"/>
        <pt x="460" y="104" on="0"/>
        <pt x="460" y="99" on="1"/>
      </contour>
      <contour>
        <pt x="400" y="459" on="0"/>
        <pt x="361" y="466" on="0"/>
        <pt x="333" y="466" on="1"/>
        <pt x="270" y="466" on="0"/>
        <pt x="187" y="381" on="0"/>
        <pt x="148" y="254" on="0"/>
        <pt x="148" y="189" on="1"/>
        <pt x="148" y="61" on="0"/>
        <pt x="240" y="61" on="1"/>
        <pt x="279" y="61" on="0"/>
        <pt x="343" y="111" on="0"/>
        <pt x="378" y="158" on="1"/>
        <pt x="422" y="449" on="1"/>
      </contour>
    </TTGlyph>
    <TTGlyph name="aogonek.sc" xMin="-32" yMin="-231" xMax="456" yMax="564">
      <contour>
        <pt x="304" y="-35" on="0"/>
        <pt x="247" y="-96" on="0"/>
        <pt x="247" y="-126" on="1"/>
        <pt x="247" y="-143" on="0"/>
        <pt x="272" y="-161" on="0"/>
        <pt x="294" y="-161" on="1"/>
        <pt x="319" y="-161" on="0"/>
        <pt x="357" y="-153" on="1"/>
        <pt x="342" y="-225" on="1"/>
        <pt x="312" y="-231" on="0"/>
        <pt x="281" y="-231" on="1"/>
        <pt x="228" y="-231" on="0"/>
        <pt x="167" y="-178" on="0"/>
        <pt x="167" y="-137" on="1"/>
        <pt x="167" y="-87" on="0"/>
        <pt x="251" y="-2" on="0"/>
        <pt x="358" y="30" on="1"/>
        <pt x="340" y="137" on="1"/>
        <pt x="125" y="137" on="1"/>
        <pt x="64" y="0" on="1"/>
        <pt x="-32" y="0" on="1"/>
        <pt x="236" y="564" on="1"/>
        <pt x="349" y="564" on="1"/>
        <pt x="456" y="0" on="1"/>
        <pt x="389" y="0" on="1"/>
      </contour>
      <contour>
        <pt x="281" y="491" on="1"/>
        <pt x="156" y="209" on="1"/>
        <pt x="328" y="209" on="1"/>
      </contour>
    </TTGlyph>
    <TTGlyph name="approxequal" xMin="24" yMin="161" xMax="474" yMax="484">
      <component glyphName="asciitilde" x="-13" y="-89" flags="0x0"/>
      <component glyphName="asciitilde" x="14" y="100" flags="0x0"/>
    </TTGlyph>
    <TTGlyph name="approxequal.osf" xMin="24" yMin="161" xMax="474" yMax="484">
      <contour>
        <pt x="227" y="484" on="0"/>
        <pt x="268" y="464" on="0"/>
        <pt x="293" y="446" on="1"/>
        <pt x="309" y="434" on="0"/>
        <pt x="328" y="423" on="0"/>
        <pt x="339" y="423" on="1"/>
        <pt x="363" y="423" on="0"/>
        <pt x="399" y="451" on="0"/>
        <pt x="416" y="475" on="1"/>
        <pt x="474" y="439" on="1"/>
        <pt x="415" y="350" on="0"/>
        <pt x="331" y="350" on="1"/>
        <pt x="300" y="350" on="0"/>
        <pt x="257" y="371" on="0"/>
        <pt x="231" y="390" on="1"/>
        <pt x="216" y="402" on="0"/>
        <pt x="199" y="412" on="0"/>
        <pt x="189" y="412" on="1"/>
        <pt x="164" y="412" on="0"/>
        <pt x="127" y="381" on="0"/>
        <pt x="109" y="354" on="1"/>
        <pt x="51" y="389" on="1"/>
        <pt x="111" y="484" on="0"/>
        <pt x="197" y="484" on="1"/>
      </contour>
      <contour>
        <pt x="200" y="295" on="0"/>
        <pt x="241" y="275" on="0"/>
        <pt x="266" y="257" on="1"/>
        <pt x="282" y="245" on="0"/>
        <pt x="301" y="234" on="0"/>
        <pt x="312" y="234" on="1"/>
        <pt x="336" y="234" on="0"/>
        <pt x="372" y="262" on="0"/>
        <pt x="389" y="286" on="1"/>
        <pt x="447" y="250" on="1"/>
        <pt x="388" y="161" on="0"/>
        <pt x="304" y="161" on="1"/>
        <pt x="273" y="161" on="0"/>
        <pt x="230" y="182" on="0"/>
        <pt x="204" y="201" on="1"/>
        <pt x="189" y="213" on="0"/>
        <pt x="172" y="223" on="0"/>
        <pt x="162" y="223" on="1"/>
        <pt x="137" y="223" on="0"/>
        <pt x="100" y="192" on="0"/>
        <pt x="82" y="165" on="1"/>
        <pt x="24" y="200" on="1"/>
        <pt x="84" y="295" on="0"/>
        <pt x="170" y="295" on="1"/>
      </contour>
    </TTGlyph>
    <TTGlyph name="approxequal.tf" xMin="23" yMin="161" xMax="473" yMax="484">
      <contour>
        <pt x="226" y="484" on="0"/>
        <pt x="267" y="464" on="0"/>
        <pt x="292" y="446" on="1"/>
        <pt x="308" y="434" on="0"/>
        <pt x="327" y="423" on="0"/>
        <pt x="338" y="423" on="1"/>
        <pt x="362" y="423" on="0"/>
        <pt x="398" y="451" on="0"/>
        <pt x="415" y="475" on="1"/>
        <pt x="473" y="439" on="1"/>
        <pt x="414" y="350" on="0"/>
        <pt x="330" y="350" on="1"/>
        <pt x="299" y="350" on="0"/>
        <pt x="256" y="371" on="0"/>
        <pt x="230" y="390" on="1"/>
        <pt x="215" y="402" on="0"/>
        <pt x="198" y="412" on="0"/>
        <pt x="188" y="412" on="1"/>
        <pt x="163" y="412" on="0"/>
        <pt x="126" y="381" on="0"/>
        <pt x="108" y="354" on="1"/>
        <pt x="50" y="389" on="1"/>
        <pt x="110" y="484" on="0"/>
        <pt x="196" y="484" on="1"/>
      </contour>
      <contour>
        <pt x="199" y="295" on="0"/>
        <pt x="240" y="275" on="0"/>
        <pt x="265" y="257" on="1"/>
        <pt x="281" y="245" on="0"/>
        <pt x="300" y="234" on="0"/>
        <pt x="311" y="234" on="1"/>
        <pt x="335" y="234" on="0"/>
        <pt x="371" y="262" on="0"/>
        <pt x="388" y="286" on="1"/>
        <pt x="446" y="250" on="1"/>
        <pt x="387" y="161" on="0"/>
        <pt x="303" y="161" on="1"/>
        <pt x="272" y="161" on="0"/>
        <pt x="229" y="182" on="0"/>
        <pt x="203" y="201" on="1"/>
        <pt x="188" y="213" on="0"/>
        <pt x="171" y="223" on="0"/>
        <pt x="161" y="223" on="1"/>
        <pt x="136" y="223" on="0"/>
        <pt x="99" y="192" on="0"/>
        <pt x="81" y="165" on="1"/>
        <pt x="23" y="200" on="1"/>
        <pt x="83" y="295" on="0"/>
        <pt x="169" y="295" on="1"/>
      </contour>
    </TTGlyph>
    <TTGlyph name="approxequal.tosf" xMin="23" yMin="161" xMax="473" yMax="484">
      <contour>
        <pt x="226" y="484" on="0"/>
        <pt x="267" y="464" on="0"/>
        <pt x="292" y="446" on="1"/>
        <pt x="308" y="434" on="0"/>
        <pt x="327" y="423" on="0"/>
        <pt x="338" y="423" on="1"/>
        <pt x="362" y="423" on="0"/>
        <pt x="398" y="451" on="0"/>
        <pt x="415" y="475" on="1"/>
        <pt x="473" y="439" on="1"/>
        <pt x="414" y="350" on="0"/>
        <pt x="330" y="350" on="1"/>
        <pt x="299" y="350" on="0"/>
        <pt x="256" y="371" on="0"/>
        <pt x="230" y="390" on="1"/>
        <pt x="215" y="402" on="0"/>
        <pt x="198" y="412" on="0"/>
        <pt x="188" y="412" on="1"/>
        <pt x="163" y="412" on="0"/>
        <pt x="126" y="381" on="0"/>
        <pt x="108" y="354" on="1"/>
        <pt x="50" y="389" on="1"/>
        <pt x="110" y="484" on="0"/>
        <pt x="196" y="484" on="1"/>
      </contour>
      <contour>
        <pt x="199" y="295" on="0"/>
        <pt x="240" y="275" on="0"/>
        <pt x="265" y="257" on="1"/>
        <pt x="281" y="245" on="0"/>
        <pt x="300" y="234" on="0"/>
        <pt x="311" y="234" on="1"/>
        <pt x="335" y="234" on="0"/>
        <pt x="371" y="262" on="0"/>
        <pt x="388" y="286" on="1"/>
        <pt x="446" y="250" on="1"/>
        <pt x="387" y="161" on="0"/>
        <pt x="303" y="161" on="1"/>
        <pt x="272" y="161" on="0"/>
        <pt x="229" y="182" on="0"/>
        <pt x="203" y="201" on="1"/>
        <pt x="188" y="213" on="0"/>
        <pt x="171" y="223" on="0"/>
        <pt x="161" y="223" on="1"/>
        <pt x="136" y="223" on="0"/>
        <pt x="99" y="192" on="0"/>
        <pt x="81" y="165" on="1"/>
        <pt x="23" y="200" on="1"/>
        <pt x="83" y="295" on="0"/>
        <pt x="169" y="295" on="1"/>
      </contour>
    </TTGlyph>
    <TTGlyph name="aring" xMin="50" yMin="-12" xMax="519" yMax="836">
      <component glyphName="a" x="0" y="0" flags="0x0"/>
      <component glyphName="ring" x="155" y="0" flags="0x0"/>
    </TTGlyph>
    <TTGlyph name="aring.sc" xMin="-32" yMin="0" xMax="456" yMax="866">
      <component glyphName="a.sc" x="0" y="0" flags="0x0"/>
      <component glyphName="ring.sc" x="152" y="0" flags="0x0"/>
    </TTGlyph>
    <TTGlyph name="arrowdown" xMin="117" yMin="-35" xMax="743" yMax="635">
      <contour>
        <pt x="487" y="116" on="0"/>
        <pt x="516" y="149" on="0"/>
        <pt x="537" y="168" on="1"/>
        <pt x="688" y="307" on="1"/>
        <pt x="743" y="246" on="1"/>
        <pt x="430" y="-35" on="1"/>
        <pt x="117" y="246" on="1"/>
        <pt x="172" y="307" on="1"/>
        <pt x="323" y="168" on="1"/>
        <pt x="344" y="149" on="0"/>
        <pt x="373" y="116" on="0"/>
        <pt x="385" y="94" on="1"/>
        <pt x="385" y="635" on="1"/>
        <pt x="475" y="635" on="1"/>
        <pt x="475" y="94" on="1"/>
      </contour>
    </TTGlyph>
    <TTGlyph name="arrowdownwhite" xMin="60" yMin="-94" xMax="660" yMax="750">
      <contour>
        <pt x="464" y="750" on="0"/>
        <pt x="491" y="723" on="0"/>
        <pt x="491" y="700" on="1"/>
        <pt x="491" y="204" on="1"/>
        <pt x="660" y="204" on="1"/>
        <pt x="360" y="-94" on="1"/>
        <pt x="60" y="204" on="1"/>
        <pt x="229" y="204" on="1"/>
        <pt x="229" y="700" on="1"/>
        <pt x="229" y="723" on="0"/>
        <pt x="257" y="750" on="0"/>
        <pt x="279" y="750" on="1"/>
        <pt x="441" y="750" on="1"/>
      </contour>
      <contour>
        <pt x="169" y="159" on="1"/>
        <pt x="360" y="-30" on="1"/>
        <pt x="551" y="159" on="1"/>
        <pt x="444" y="159" on="1"/>
        <pt x="444" y="706" on="1"/>
        <pt x="276" y="706" on="1"/>
        <pt x="276" y="159" on="1"/>
      </contour>
    </TTGlyph>
    <TTGlyph name="arrowleft" xMin="112" yMin="21" xMax="778" yMax="637">
      <contour>
        <pt x="319" y="432" on="1"/>
        <pt x="295" y="405" on="0"/>
        <pt x="270" y="382" on="0"/>
        <pt x="249" y="369" on="1"/>
        <pt x="778" y="369" on="1"/>
        <pt x="778" y="289" on="1"/>
        <pt x="249" y="289" on="1"/>
        <pt x="280" y="269" on="0"/>
        <pt x="319" y="226" on="1"/>
        <pt x="454" y="78" on="1"/>
        <pt x="387" y="21" on="1"/>
        <pt x="112" y="329" on="1"/>
        <pt x="387" y="637" on="1"/>
        <pt x="454" y="580" on="1"/>
      </contour>
    </TTGlyph>
    <TTGlyph name="arrowleftwhite" xMin="40" yMin="13" xMax="920" yMax="613">
      <contour>
        <pt x="920" y="217" on="0"/>
        <pt x="893" y="189" on="0"/>
        <pt x="870" y="189" on="1"/>
        <pt x="338" y="189" on="1"/>
        <pt x="338" y="13" on="1"/>
        <pt x="40" y="313" on="1"/>
        <pt x="338" y="613" on="1"/>
        <pt x="338" y="437" on="1"/>
        <pt x="870" y="437" on="1"/>
        <pt x="893" y="437" on="0"/>
        <pt x="920" y="410" on="0"/>
        <pt x="920" y="387" on="1"/>
        <pt x="920" y="239" on="1"/>
      </contour>
      <contour>
        <pt x="293" y="504" on="1"/>
        <pt x="104" y="313" on="1"/>
        <pt x="293" y="122" on="1"/>
        <pt x="293" y="233" on="1"/>
        <pt x="876" y="233" on="1"/>
        <pt x="876" y="393" on="1"/>
        <pt x="293" y="393" on="1"/>
      </contour>
    </TTGlyph>
    <TTGlyph name="arrowright" xMin="140" yMin="21" xMax="806" yMax="637">
      <component glyphName="arrowleft" x="918" y="0" scalex="-1.0" scaley="1.0" flags="0x0"/>
    </TTGlyph>
    <TTGlyph name="arrowrightwhite" xMin="54" yMin="13" xMax="934" yMax="613">
      <component glyphName="arrowleftwhite" x="974" y="0" scalex="-1.0" scaley="1.0" flags="0x0"/>
    </TTGlyph>
    <TTGlyph name="arrowup" xMin="157" yMin="0" xMax="783" yMax="670">
      <component glyphName="arrowdown" x="900" y="635" scale="-1.0" flags="0x0"/>
    </TTGlyph>
    <TTGlyph name="arrowupdn" xMin="165" yMin="-190" xMax="791" yMax="868">
      <contour>
        <pt x="736" y="526" on="1"/>
        <pt x="585" y="665" on="1"/>
        <pt x="564" y="684" on="0"/>
        <pt x="535" y="717" on="0"/>
        <pt x="523" y="739" on="1"/>
        <pt x="523" y="-61" on="1"/>
        <pt x="535" y="-39" on="0"/>
        <pt x="564" y="-6" on="0"/>
        <pt x="585" y="13" on="1"/>
        <pt x="736" y="152" on="1"/>
        <pt x="791" y="91" on="1"/>
        <pt x="478" y="-190" on="1"/>
        <pt x="165" y="91" on="1"/>
        <pt x="220" y="152" on="1"/>
        <pt x="371" y="13" on="1"/>
        <pt x="392" y="-6" on="0"/>
        <pt x="421" y="-39" on="0"/>
        <pt x="433" y="-61" on="1"/>
        <pt x="433" y="739" on="1"/>
        <pt x="421" y="717" on="0"/>
        <pt x="392" y="684" on="0"/>
        <pt x="371" y="665" on="1"/>
        <pt x="220" y="526" on="1"/>
        <pt x="165" y="587" on="1"/>
        <pt x="478" y="868" on="1"/>
        <pt x="791" y="587" on="1"/>
      </contour>
    </TTGlyph>
    <TTGlyph name="arrowupwhite" xMin="60" yMin="-12" xMax="660" yMax="832">
      <contour>
        <pt x="257" y="-12" on="0"/>
        <pt x="229" y="16" on="0"/>
        <pt x="229" y="38" on="1"/>
        <pt x="229" y="534" on="1"/>
        <pt x="60" y="534" on="1"/>
        <pt x="360" y="832" on="1"/>
        <pt x="660" y="534" on="1"/>
        <pt x="491" y="534" on="1"/>
        <pt x="491" y="38" on="1"/>
        <pt x="491" y="16" on="0"/>
        <pt x="464" y="-12" on="0"/>
        <pt x="441" y="-12" on="1"/>
        <pt x="279" y="-12" on="1"/>
      </contour>
      <contour>
        <pt x="551" y="579" on="1"/>
        <pt x="360" y="768" on="1"/>
        <pt x="169" y="579" on="1"/>
        <pt x="276" y="579" on="1"/>
        <pt x="276" y="32" on="1"/>
        <pt x="444" y="32" on="1"/>
        <pt x="444" y="579" on="1"/>
      </contour>
    </TTGlyph>
    <TTGlyph name="asciicircum" xMin="75" yMin="527" xMax="531" yMax="840">
      <contour>
        <pt x="435" y="527" on="1"/>
        <pt x="338" y="760" on="1"/>
        <pt x="173" y="527" on="1"/>
        <pt x="75" y="527" on="1"/>
        <pt x="307" y="840" on="1"/>
        <pt x="388" y="840" on="1"/>
        <pt x="531" y="527" on="1"/>
      </contour>
    </TTGlyph>
    <TTGlyph name="asciitilde" xMin="37" yMin="250" xMax="460" yMax="384">
      <contour>
        <pt x="213" y="384" on="0"/>
        <pt x="254" y="364" on="0"/>
        <pt x="279" y="346" on="1"/>
        <pt x="295" y="334" on="0"/>
        <pt x="314" y="323" on="0"/>
        <pt x="325" y="323" on="1"/>
        <pt x="349" y="323" on="0"/>
        <pt x="385" y="351" on="0"/>
        <pt x="402" y="375" on="1"/>
        <pt x="460" y="339" on="1"/>
        <pt x="401" y="250" on="0"/>
        <pt x="317" y="250" on="1"/>
        <pt x="286" y="250" on="0"/>
        <pt x="243" y="271" on="0"/>
        <pt x="217" y="290" on="1"/>
        <pt x="202" y="302" on="0"/>
        <pt x="185" y="312" on="0"/>
        <pt x="175" y="312" on="1"/>
        <pt x="150" y="312" on="0"/>
        <pt x="113" y="281" on="0"/>
        <pt x="95" y="254" on="1"/>
        <pt x="37" y="289" on="1"/>
        <pt x="97" y="384" on="0"/>
        <pt x="183" y="384" on="1"/>
      </contour>
    </TTGlyph>
    <TTGlyph name="asciitilde.osf" xMin="37" yMin="250" xMax="460" yMax="384">
      <component glyphName="asciitilde" x="0" y="0" flags="0x0"/>
    </TTGlyph>
    <TTGlyph name="asciitilde.tf" xMin="36" yMin="250" xMax="459" yMax="384">
      <component glyphName="asciitilde" x="-1" y="0" flags="0x0"/>
    </TTGlyph>
    <TTGlyph name="asciitilde.tosf" xMin="36" yMin="250" xMax="459" yMax="384">
      <component glyphName="asciitilde" x="-1" y="0" flags="0x0"/>
    </TTGlyph>
    <TTGlyph name="asterisk" xMin="60" yMin="359" xMax="456" yMax="739">
      <contour>
        <pt x="386" y="412" on="1"/>
        <pt x="309" y="359" on="1"/>
        <pt x="249" y="492" on="1"/>
        <pt x="153" y="359" on="1"/>
        <pt x="88" y="411" on="1"/>
        <pt x="207" y="528" on="1"/>
        <pt x="60" y="561" on="1"/>
        <pt x="96" y="641" on="1"/>
        <pt x="231" y="581" on="1"/>
        <pt x="237" y="739" on="1"/>
        <pt x="330" y="739" on="1"/>
        <pt x="292" y="582" on="1"/>
        <pt x="438" y="644" on="1"/>
        <pt x="456" y="561" on="1"/>
        <pt x="299" y="527" on="1"/>
      </contour>
    </TTGlyph>
    <TTGlyph name="at" xMin="62" yMin="-213" xMax="952" yMax="701">
      <contour>
        <pt x="691" y="701" on="0"/>
        <pt x="864" y="610" on="0"/>
        <pt x="952" y="451" on="0"/>
        <pt x="952" y="351" on="1"/>
        <pt x="952" y="277" on="0"/>
        <pt x="905" y="120" on="0"/>
        <pt x="799" y="9" on="0"/>
        <pt x="716" y="9" on="1"/>
        <pt x="661" y="9" on="0"/>
        <pt x="604" y="69" on="0"/>
        <pt x="600" y="110" on="1"/>
        <pt x="576" y="67" on="0"/>
        <pt x="500" y="11" on="0"/>
        <pt x="447" y="11" on="1"/>
        <pt x="377" y="11" on="0"/>
        <pt x="299" y="106" on="0"/>
        <pt x="299" y="186" on="1"/>
        <pt x="299" y="260" on="0"/>
        <pt x="350" y="400" on="0"/>
        <pt x="464" y="492" on="0"/>
        <pt x="551" y="492" on="1"/>
        <pt x="593" y="492" on="0"/>
        <pt x="665" y="473" on="0"/>
        <pt x="702" y="451" on="1"/>
        <pt x="665" y="168" on="1"/>
        <pt x="664" y="139" on="1"/>
        <pt x="664" y="111" on="0"/>
        <pt x="686" y="80" on="0"/>
        <pt x="715" y="80" on="1"/>
        <pt x="767" y="80" on="0"/>
        <pt x="833" y="169" on="0"/>
        <pt x="862" y="296" on="0"/>
        <pt x="862" y="357" on="1"/>
        <pt x="862" y="485" on="0"/>
        <pt x="710" y="625" on="0"/>
        <pt x="568" y="625" on="1"/>
        <pt x="422" y="625" on="0"/>
        <pt x="236" y="488" on="0"/>
        <pt x="154" y="285" on="0"/>
        <pt x="154" y="183" on="1"/>
        <pt x="154" y="92" on="0"/>
        <pt x="230" y="-53" on="0"/>
        <pt x="374" y="-137" on="0"/>
        <pt x="473" y="-137" on="1"/>
        <pt x="568" y="-137" on="0"/>
        <pt x="669" y="-102" on="1"/>
        <pt x="688" y="-175" on="1"/>
        <pt x="631" y="-194" on="0"/>
        <pt x="531" y="-213" on="0"/>
        <pt x="469" y="-213" on="1"/>
        <pt x="350" y="-213" on="0"/>
        <pt x="165" y="-111" on="0"/>
        <pt x="62" y="70" on="0"/>
        <pt x="62" y="185" on="1"/>
        <pt x="62" y="303" on="0"/>
        <pt x="167" y="541" on="0"/>
        <pt x="396" y="701" on="0"/>
        <pt x="570" y="701" on="1"/>
      </contour>
      <contour>
        <pt x="508" y="78" on="0"/>
        <pt x="570" y="140" on="0"/>
        <pt x="584" y="173" on="1"/>
        <pt x="619" y="412" on="1"/>
        <pt x="589" y="426" on="0"/>
        <pt x="553" y="426" on="1"/>
        <pt x="463" y="426" on="0"/>
        <pt x="387" y="276" on="0"/>
        <pt x="387" y="175" on="1"/>
        <pt x="387" y="78" on="0"/>
        <pt x="459" y="78" on="1"/>
      </contour>
    </TTGlyph>
    <TTGlyph name="atilde" xMin="50" yMin="-12" xMax="529" yMax="774">
      <component glyphName="a" x="0" y="0" flags="0x0"/>
      <component glyphName="tilde" x="102" y="0" flags="0x0"/>
    </TTGlyph>
    <TTGlyph name="atilde.sc" xMin="-32" yMin="0" xMax="488" yMax="804">
      <component glyphName="a.sc" x="0" y="0" flags="0x0"/>
      <component glyphName="tilde.sc" x="99" y="0" flags="0x0"/>
    </TTGlyph>
    <TTGlyph name="b" xMin="60" yMin="-12" xMax="528" yMax="750">
      <contour>
        <pt x="252" y="507" on="0"/>
        <pt x="326" y="539" on="0"/>
        <pt x="368" y="539" on="1"/>
        <pt x="444" y="539" on="0"/>
        <pt x="528" y="431" on="0"/>
        <pt x="528" y="332" on="1"/>
        <pt x="528" y="250" on="0"/>
        <pt x="470" y="93" on="0"/>
        <pt x="343" y="-12" on="0"/>
        <pt x="246" y="-12" on="1"/>
        <pt x="202" y="-12" on="0"/>
        <pt x="118" y="4" on="0"/>
        <pt x="60" y="23" on="1"/>
        <pt x="161" y="739" on="1"/>
        <pt x="253" y="750" on="1"/>
        <pt x="215" y="475" on="1"/>
      </contour>
      <contour>
        <pt x="301" y="466" on="0"/>
        <pt x="237" y="426" on="0"/>
        <pt x="203" y="390" on="1"/>
        <pt x="160" y="77" on="1"/>
        <pt x="185" y="68" on="0"/>
        <pt x="225" y="61" on="0"/>
        <pt x="253" y="61" on="1"/>
        <pt x="314" y="61" on="0"/>
        <pt x="395" y="146" on="0"/>
        <pt x="433" y="274" on="0"/>
        <pt x="433" y="339" on="1"/>
        <pt x="433" y="466" on="0"/>
        <pt x="339" y="466" on="1"/>
      </contour>
    </TTGlyph>
    <TTGlyph name="b.sc" xMin="62" yMin="0" xMax="503" yMax="565">
      <contour>
        <pt x="391" y="565" on="0"/>
        <pt x="503" y="502" on="0"/>
        <pt x="503" y="438" on="1"/>
        <pt x="503" y="381" on="0"/>
        <pt x="429" y="309" on="0"/>
        <pt x="375" y="298" on="1"/>
        <pt x="425" y="289" on="0"/>
        <pt x="492" y="234" on="0"/>
        <pt x="492" y="181" on="1"/>
        <pt x="492" y="99" on="0"/>
        <pt x="372" y="0" on="0"/>
        <pt x="232" y="0" on="1"/>
        <pt x="62" y="0" on="1"/>
        <pt x="142" y="565" on="1"/>
        <pt x="287" y="565" on="1"/>
      </contour>
      <contour>
        <pt x="200" y="329" on="1"/>
        <pt x="281" y="329" on="1"/>
        <pt x="336" y="329" on="0"/>
        <pt x="409" y="385" on="0"/>
        <pt x="409" y="434" on="1"/>
        <pt x="409" y="469" on="0"/>
        <pt x="350" y="495" on="0"/>
        <pt x="288" y="495" on="1"/>
        <pt x="223" y="495" on="1"/>
      </contour>
      <contour>
        <pt x="163" y="71" on="1"/>
        <pt x="238" y="71" on="1"/>
        <pt x="325" y="71" on="0"/>
        <pt x="397" y="132" on="0"/>
        <pt x="397" y="186" on="1"/>
        <pt x="397" y="262" on="0"/>
        <pt x="283" y="262" on="1"/>
        <pt x="190" y="262" on="1"/>
      </contour>
    </TTGlyph>
    <TTGlyph name="backslash" xMin="179" yMin="-104" xMax="360" yMax="805">
      <contour>
        <pt x="282" y="-104" on="1"/>
        <pt x="179" y="789" on="1"/>
        <pt x="255" y="805" on="1"/>
        <pt x="360" y="-87" on="1"/>
      </contour>
    </TTGlyph>
    <TTGlyph name="bar" xMin="106" yMin="-102" xMax="316" yMax="807">
      <contour>
        <pt x="106" y="-102" on="1"/>
        <pt x="233" y="807" on="1"/>
        <pt x="316" y="807" on="1"/>
        <pt x="189" y="-102" on="1"/>
      </contour>
    </TTGlyph>
    <TTGlyph name="beta" xMin="27" yMin="-216" xMax="546" yMax="750">
      <contour>
        <pt x="440" y="750" on="0"/>
        <pt x="543" y="660" on="0"/>
        <pt x="543" y="583" on="1"/>
        <pt x="543" y="543" on="0"/>
        <pt x="507" y="466" on="0"/>
        <pt x="430" y="408" on="0"/>
        <pt x="371" y="399" on="1"/>
        <pt x="444" y="392" on="0"/>
        <pt x="546" y="309" on="0"/>
        <pt x="546" y="223" on="1"/>
        <pt x="546" y="167" on="0"/>
        <pt x="492" y="59" on="0"/>
        <pt x="381" y="-12" on="0"/>
        <pt x="300" y="-12" on="1"/>
        <pt x="260" y="-12" on="0"/>
        <pt x="184" y="15" on="0"/>
        <pt x="154" y="41" on="1"/>
        <pt x="120" y="-204" on="1"/>
        <pt x="27" y="-216" on="1"/>
        <pt x="133" y="544" on="1"/>
        <pt x="146" y="642" on="0"/>
        <pt x="267" y="750" on="0"/>
        <pt x="360" y="750" on="1"/>
      </contour>
      <contour>
        <pt x="302" y="678" on="0"/>
        <pt x="234" y="607" on="0"/>
        <pt x="224" y="538" on="1"/>
        <pt x="165" y="113" on="1"/>
        <pt x="188" y="88" on="0"/>
        <pt x="254" y="62" on="0"/>
        <pt x="293" y="62" on="1"/>
        <pt x="351" y="62" on="0"/>
        <pt x="422" y="112" on="0"/>
        <pt x="453" y="186" on="0"/>
        <pt x="453" y="225" on="1"/>
        <pt x="453" y="292" on="0"/>
        <pt x="376" y="363" on="0"/>
        <pt x="303" y="363" on="1"/>
        <pt x="250" y="363" on="1"/>
        <pt x="269" y="433" on="1"/>
        <pt x="316" y="433" on="1"/>
        <pt x="364" y="433" on="0"/>
        <pt x="427" y="479" on="0"/>
        <pt x="457" y="547" on="0"/>
        <pt x="457" y="582" on="1"/>
        <pt x="457" y="631" on="0"/>
        <pt x="405" y="678" on="0"/>
        <pt x="359" y="678" on="1"/>
      </contour>
    </TTGlyph>
    <TTGlyph name="beta.sc" xMin="62" yMin="0" xMax="503" yMax="565">
      <component glyphName="b.sc" x="0" y="0" flags="0x0"/>
    </TTGlyph>
    <TTGlyph name="braceleft" xMin="27" yMin="-136" xMax="351" yMax="836">
      <contour>
        <pt x="295" y="765" on="0"/>
        <pt x="245" y="732" on="0"/>
        <pt x="240" y="694" on="1"/>
        <pt x="206" y="455" on="1"/>
        <pt x="199" y="404" on="0"/>
        <pt x="159" y="361" on="0"/>
        <pt x="116" y="347" on="1"/>
        <pt x="148" y="336" on="0"/>
        <pt x="178" y="302" on="0"/>
        <pt x="178" y="267" on="1"/>
        <pt x="178" y="250" on="0"/>
        <pt x="176" y="239" on="1"/>
        <pt x="142" y="0" on="1"/>
        <pt x="141" y="-6" on="0"/>
        <pt x="141" y="-16" on="1"/>
        <pt x="141" y="-43" on="0"/>
        <pt x="180" y="-65" on="0"/>
        <pt x="225" y="-65" on="1"/>
        <pt x="219" y="-136" on="1"/>
        <pt x="138" y="-136" on="0"/>
        <pt x="56" y="-77" on="0"/>
        <pt x="56" y="-15" on="1"/>
        <pt x="56" y="-6" on="0"/>
        <pt x="58" y="16" on="1"/>
        <pt x="89" y="238" on="1"/>
        <pt x="91" y="248" on="0"/>
        <pt x="91" y="264" on="1"/>
        <pt x="91" y="290" on="0"/>
        <pt x="63" y="311" on="0"/>
        <pt x="27" y="311" on="1"/>
        <pt x="38" y="387" on="1"/>
        <pt x="77" y="387" on="0"/>
        <pt x="116" y="426" on="0"/>
        <pt x="122" y="468" on="1"/>
        <pt x="153" y="690" on="1"/>
        <pt x="161" y="744" on="0"/>
        <pt x="203" y="807" on="0"/>
        <pt x="284" y="836" on="0"/>
        <pt x="351" y="836" on="1"/>
        <pt x="345" y="765" on="1"/>
      </contour>
    </TTGlyph>
    <TTGlyph name="braceleft.case" xMin="26" yMin="-146" xMax="350" yMax="826">
      <component glyphName="braceleft" x="-1" y="-10" flags="0x0"/>
    </TTGlyph>
    <TTGlyph name="braceright" xMin="-11" yMin="-136" xMax="313" yMax="836">
      <contour>
        <pt x="45" y="-65" on="0"/>
        <pt x="95" y="-32" on="0"/>
        <pt x="100" y="6" on="1"/>
        <pt x="134" y="245" on="1"/>
        <pt x="141" y="296" on="0"/>
        <pt x="181" y="339" on="0"/>
        <pt x="224" y="353" on="1"/>
        <pt x="193" y="364" on="0"/>
        <pt x="162" y="398" on="0"/>
        <pt x="162" y="433" on="1"/>
        <pt x="162" y="441" on="0"/>
        <pt x="164" y="461" on="1"/>
        <pt x="198" y="700" on="1"/>
        <pt x="199" y="706" on="0"/>
        <pt x="199" y="716" on="1"/>
        <pt x="199" y="743" on="0"/>
        <pt x="161" y="765" on="0"/>
        <pt x="115" y="765" on="1"/>
        <pt x="121" y="836" on="1"/>
        <pt x="203" y="836" on="0"/>
        <pt x="285" y="777" on="0"/>
        <pt x="285" y="715" on="1"/>
        <pt x="285" y="701" on="0"/>
        <pt x="282" y="684" on="1"/>
        <pt x="251" y="462" on="1"/>
        <pt x="249" y="442" on="0"/>
        <pt x="249" y="436" on="1"/>
        <pt x="249" y="410" on="0"/>
        <pt x="278" y="389" on="0"/>
        <pt x="313" y="389" on="1"/>
        <pt x="302" y="313" on="1"/>
        <pt x="263" y="313" on="0"/>
        <pt x="224" y="274" on="0"/>
        <pt x="218" y="232" on="1"/>
        <pt x="187" y="10" on="1"/>
        <pt x="179" y="-44" on="0"/>
        <pt x="137" y="-107" on="0"/>
        <pt x="56" y="-136" on="0"/>
        <pt x="-11" y="-136" on="1"/>
        <pt x="-5" y="-65" on="1"/>
      </contour>
    </TTGlyph>
    <TTGlyph name="braceright.case" xMin="-12" yMin="-146" xMax="312" yMax="826">
      <component glyphName="braceright" x="-1" y="-10" flags="0x0"/>
    </TTGlyph>
    <TTGlyph name="bracketleft" xMin="10" yMin="-116" xMax="346" yMax="816">
      <contour>
        <pt x="216" y="739" on="1"/>
        <pt x="106" y="-40" on="1"/>
        <pt x="225" y="-40" on="1"/>
        <pt x="215" y="-116" on="1"/>
        <pt x="10" y="-116" on="1"/>
        <pt x="141" y="816" on="1"/>
        <pt x="346" y="816" on="1"/>
        <pt x="335" y="739" on="1"/>
      </contour>
    </TTGlyph>
    <TTGlyph name="bracketleft.case" xMin="9" yMin="-126" xMax="345" yMax="806">
      <component glyphName="bracketleft" x="-1" y="-10" flags="0x0"/>
    </TTGlyph>
    <TTGlyph name="bracketright" xMin="-5" yMin="-116" xMax="331" yMax="816">
      <contour>
        <pt x="-5" y="-116" on="1"/>
        <pt x="5" y="-40" on="1"/>
        <pt x="124" y="-40" on="1"/>
        <pt x="234" y="739" on="1"/>
        <pt x="115" y="739" on="1"/>
        <pt x="126" y="816" on="1"/>
        <pt x="331" y="816" on="1"/>
        <pt x="200" y="-116" on="1"/>
      </contour>
    </TTGlyph>
    <TTGlyph name="bracketright.case" xMin="-6" yMin="-126" xMax="330" yMax="806">
      <component glyphName="bracketright" x="-1" y="-10" flags="0x0"/>
    </TTGlyph>
    <TTGlyph name="breve" xMin="99" yMin="643" xMax="401" yMax="791">
      <contour>
        <pt x="173" y="643" on="0"/>
        <pt x="99" y="717" on="0"/>
        <pt x="101" y="779" on="1"/>
        <pt x="163" y="787" on="1"/>
        <pt x="168" y="749" on="0"/>
        <pt x="203" y="713" on="0"/>
        <pt x="236" y="713" on="1"/>
        <pt x="272" y="713" on="0"/>
        <pt x="326" y="753" on="0"/>
        <pt x="341" y="791" on="1"/>
        <pt x="401" y="773" on="1"/>
        <pt x="386" y="712" on="0"/>
        <pt x="294" y="643" on="0"/>
        <pt x="234" y="643" on="1"/>
      </contour>
    </TTGlyph>
    <TTGlyph name="breve.case" xMin="114" yMin="758" xMax="415" yMax="896">
      <contour>
        <pt x="189" y="758" on="0"/>
        <pt x="114" y="828" on="0"/>
        <pt x="116" y="884" on="1"/>
        <pt x="175" y="892" on="1"/>
        <pt x="189" y="828" on="0"/>
        <pt x="252" y="828" on="1"/>
        <pt x="287" y="828" on="0"/>
        <pt x="340" y="865" on="0"/>
        <pt x="355" y="896" on="1"/>
        <pt x="415" y="878" on="1"/>
        <pt x="402" y="823" on="0"/>
        <pt x="310" y="758" on="0"/>
        <pt x="250" y="758" on="1"/>
      </contour>
    </TTGlyph>
    <TTGlyph name="breve.sc" xMin="61" yMin="673" xMax="363" yMax="821">
      <contour>
        <pt x="135" y="673" on="0"/>
        <pt x="61" y="747" on="0"/>
        <pt x="63" y="809" on="1"/>
        <pt x="125" y="817" on="1"/>
        <pt x="130" y="779" on="0"/>
        <pt x="165" y="743" on="0"/>
        <pt x="198" y="743" on="1"/>
        <pt x="234" y="743" on="0"/>
        <pt x="288" y="783" on="0"/>
        <pt x="303" y="821" on="1"/>
        <pt x="363" y="803" on="1"/>
        <pt x="348" y="742" on="0"/>
        <pt x="256" y="673" on="0"/>
        <pt x="196" y="673" on="1"/>
      </contour>
    </TTGlyph>
    <TTGlyph name="brevecy" xMin="99" yMin="643" xMax="398" yMax="775">
      <contour>
        <pt x="177" y="643" on="0"/>
        <pt x="104" y="708" on="0"/>
        <pt x="99" y="763" on="1"/>
        <pt x="159" y="771" on="1"/>
        <pt x="165" y="740" on="0"/>
        <pt x="204" y="713" on="0"/>
        <pt x="239" y="713" on="1"/>
        <pt x="312" y="713" on="0"/>
        <pt x="339" y="775" on="1"/>
        <pt x="398" y="757" on="1"/>
        <pt x="385" y="703" on="0"/>
        <pt x="297" y="643" on="0"/>
        <pt x="237" y="643" on="1"/>
      </contour>
    </TTGlyph>
    <TTGlyph name="brevecy.case" xMin="77" yMin="769" xMax="376" yMax="901">
      <contour>
        <pt x="155" y="769" on="0"/>
        <pt x="82" y="834" on="0"/>
        <pt x="77" y="889" on="1"/>
        <pt x="137" y="897" on="1"/>
        <pt x="143" y="866" on="0"/>
        <pt x="182" y="839" on="0"/>
        <pt x="217" y="839" on="1"/>
        <pt x="290" y="839" on="0"/>
        <pt x="317" y="901" on="1"/>
        <pt x="376" y="883" on="1"/>
        <pt x="363" y="829" on="0"/>
        <pt x="275" y="769" on="0"/>
        <pt x="215" y="769" on="1"/>
      </contour>
    </TTGlyph>
    <TTGlyph name="brevecy.sc" xMin="61" yMin="673" xMax="360" yMax="805">
      <contour>
        <pt x="139" y="673" on="0"/>
        <pt x="66" y="738" on="0"/>
        <pt x="61" y="793" on="1"/>
        <pt x="121" y="801" on="1"/>
        <pt x="127" y="770" on="0"/>
        <pt x="166" y="743" on="0"/>
        <pt x="201" y="743" on="1"/>
        <pt x="274" y="743" on="0"/>
        <pt x="301" y="805" on="1"/>
        <pt x="360" y="787" on="1"/>
        <pt x="347" y="733" on="0"/>
        <pt x="259" y="673" on="0"/>
        <pt x="199" y="673" on="1"/>
      </contour>
    </TTGlyph>
    <TTGlyph name="brokenbar" xMin="106" yMin="-102" xMax="316" yMax="807">
      <contour>
        <pt x="182" y="443" on="1"/>
        <pt x="233" y="807" on="1"/>
        <pt x="316" y="807" on="1"/>
        <pt x="265" y="443" on="1"/>
      </contour>
      <contour>
        <pt x="106" y="-102" on="1"/>
        <pt x="157" y="262" on="1"/>
        <pt x="240" y="262" on="1"/>
        <pt x="189" y="-102" on="1"/>
      </contour>
    </TTGlyph>
    <TTGlyph name="bullet" xMin="59" yMin="229" xMax="281" yMax="454">
      <contour>
        <pt x="226" y="454" on="0"/>
        <pt x="281" y="397" on="0"/>
        <pt x="281" y="354" on="1"/>
        <pt x="281" y="301" on="0"/>
        <pt x="209" y="229" on="0"/>
        <pt x="158" y="229" on="1"/>
        <pt x="114" y="229" on="0"/>
        <pt x="59" y="285" on="0"/>
        <pt x="59" y="328" on="1"/>
        <pt x="59" y="381" on="0"/>
        <pt x="131" y="454" on="0"/>
        <pt x="182" y="454" on="1"/>
      </contour>
    </TTGlyph>
    <TTGlyph name="bulletoperator" xMin="59" yMin="241" xMax="196" yMax="380">
      <component glyphName="periodcentered" x="0" y="0" flags="0x0"/>
    </TTGlyph>
    <TTGlyph name="c" xMin="52" yMin="-12" xMax="472" yMax="539">
      <contour>
        <pt x="411" y="539" on="0"/>
        <pt x="472" y="481" on="1"/>
        <pt x="423" y="424" on="1"/>
        <pt x="399" y="445" on="0"/>
        <pt x="351" y="463" on="0"/>
        <pt x="320" y="463" on="1"/>
        <pt x="258" y="463" on="0"/>
        <pt x="181" y="380" on="0"/>
        <pt x="148" y="258" on="0"/>
        <pt x="148" y="196" on="1"/>
        <pt x="148" y="66" on="0"/>
        <pt x="255" y="66" on="1"/>
        <pt x="288" y="66" on="0"/>
        <pt x="343" y="86" on="0"/>
        <pt x="377" y="107" on="1"/>
        <pt x="414" y="43" on="1"/>
        <pt x="337" y="-12" on="0"/>
        <pt x="249" y="-12" on="1"/>
        <pt x="155" y="-12" on="0"/>
        <pt x="52" y="101" on="0"/>
        <pt x="52" y="203" on="1"/>
        <pt x="52" y="279" on="0"/>
        <pt x="108" y="434" on="0"/>
        <pt x="228" y="539" on="0"/>
        <pt x="319" y="539" on="1"/>
      </contour>
    </TTGlyph>
    <TTGlyph name="c.sc" xMin="53" yMin="-11" xMax="504" yMax="574">
      <contour>
        <pt x="437" y="574" on="0"/>
        <pt x="504" y="513" on="1"/>
        <pt x="451" y="461" on="1"/>
        <pt x="405" y="501" on="0"/>
        <pt x="347" y="501" on="1"/>
        <pt x="276" y="501" on="0"/>
        <pt x="187" y="418" on="0"/>
        <pt x="148" y="290" on="0"/>
        <pt x="148" y="220" on="1"/>
        <pt x="148" y="140" on="0"/>
        <pt x="216" y="64" on="0"/>
        <pt x="276" y="64" on="1"/>
        <pt x="314" y="64" on="0"/>
        <pt x="374" y="90" on="0"/>
        <pt x="408" y="114" on="1"/>
        <pt x="449" y="55" on="1"/>
        <pt x="418" y="26" on="0"/>
        <pt x="326" y="-11" on="0"/>
        <pt x="271" y="-11" on="1"/>
        <pt x="171" y="-11" on="0"/>
        <pt x="53" y="112" on="0"/>
        <pt x="53" y="225" on="1"/>
        <pt x="53" y="307" on="0"/>
        <pt x="113" y="467" on="0"/>
        <pt x="244" y="574" on="0"/>
        <pt x="342" y="574" on="1"/>
      </contour>
    </TTGlyph>
    <TTGlyph name="cacute" xMin="52" yMin="-12" xMax="472" yMax="801">
      <component glyphName="c" x="0" y="0" flags="0x0"/>
      <component glyphName="acute" x="129" y="0" flags="0x0"/>
    </TTGlyph>
    <TTGlyph name="cacute.loclPLK" xMin="52" yMin="-12" xMax="474" yMax="777">
      <component glyphName="c" x="0" y="0" flags="0x0"/>
      <component glyphName="acute.loclPLK" x="141" y="0" flags="0x0"/>
    </TTGlyph>
    <TTGlyph name="cacute.sc" xMin="53" yMin="-11" xMax="504" yMax="831">
      <component glyphName="c.sc" x="0" y="0" flags="0x0"/>
      <component glyphName="acute.sc" x="206" y="0" flags="0x0"/>
    </TTGlyph>
    <TTGlyph name="cacute.sc.loclPLK" xMin="53" yMin="-11" xMax="504" yMax="819">
      <component glyphName="c.sc" x="0" y="0" flags="0x0"/>
      <component glyphName="acute.sc.loclPLK" x="133" y="0" flags="0x0"/>
    </TTGlyph>
    <TTGlyph name="capslock" xMin="60" yMin="-12" xMax="660" yMax="832">
      <contour>
        <pt x="60" y="534" on="1"/>
        <pt x="360" y="832" on="1"/>
        <pt x="660" y="534" on="1"/>
        <pt x="491" y="534" on="1"/>
        <pt x="491" y="255" on="1"/>
        <pt x="229" y="255" on="1"/>
        <pt x="229" y="534" on="1"/>
      </contour>
      <contour>
        <pt x="551" y="579" on="1"/>
        <pt x="360" y="768" on="1"/>
        <pt x="169" y="579" on="1"/>
        <pt x="276" y="579" on="1"/>
        <pt x="276" y="297" on="1"/>
        <pt x="444" y="297" on="1"/>
        <pt x="444" y="579" on="1"/>
      </contour>
      <contour>
        <pt x="491" y="16" on="0"/>
        <pt x="464" y="-12" on="0"/>
        <pt x="441" y="-12" on="1"/>
        <pt x="279" y="-12" on="1"/>
        <pt x="257" y="-12" on="0"/>
        <pt x="229" y="16" on="0"/>
        <pt x="229" y="38" on="1"/>
        <pt x="229" y="155" on="1"/>
        <pt x="491" y="155" on="1"/>
        <pt x="491" y="38" on="1"/>
      </contour>
      <contour>
        <pt x="444" y="32" on="1"/>
        <pt x="444" y="113" on="1"/>
        <pt x="276" y="113" on="1"/>
        <pt x="276" y="32" on="1"/>
      </contour>
    </TTGlyph>
    <TTGlyph name="caron" xMin="96" yMin="627" xMax="424" yMax="785">
      <contour>
        <pt x="275" y="627" on="1"/>
        <pt x="215" y="627" on="1"/>
        <pt x="96" y="740" on="1"/>
        <pt x="137" y="785" on="1"/>
        <pt x="250" y="701" on="1"/>
        <pt x="390" y="785" on="1"/>
        <pt x="424" y="740" on="1"/>
      </contour>
    </TTGlyph>
    <TTGlyph name="caron.alt" xMin="94" yMin="505" xMax="218" yMax="699">
      <contour>
        <pt x="146" y="505" on="1"/>
        <pt x="94" y="513" on="1"/>
        <pt x="136" y="699" on="1"/>
        <pt x="218" y="689" on="1"/>
      </contour>
    </TTGlyph>
    <TTGlyph name="caron.case" xMin="113" yMin="754" xMax="441" yMax="909">
      <contour>
        <pt x="293" y="754" on="1"/>
        <pt x="233" y="754" on="1"/>
        <pt x="113" y="864" on="1"/>
        <pt x="156" y="909" on="1"/>
        <pt x="269" y="828" on="1"/>
        <pt x="406" y="909" on="1"/>
        <pt x="441" y="864" on="1"/>
      </contour>
    </TTGlyph>
    <TTGlyph name="caron.sc" xMin="58" yMin="657" xMax="386" yMax="815">
      <contour>
        <pt x="237" y="657" on="1"/>
        <pt x="177" y="657" on="1"/>
        <pt x="58" y="770" on="1"/>
        <pt x="99" y="815" on="1"/>
        <pt x="212" y="731" on="1"/>
        <pt x="352" y="815" on="1"/>
        <pt x="386" y="770" on="1"/>
      </contour>
    </TTGlyph>
    <TTGlyph name="ccaron" xMin="52" yMin="-12" xMax="517" yMax="785">
      <component glyphName="c" x="0" y="0" flags="0x0"/>
      <component glyphName="caron" x="93" y="0" flags="0x0"/>
    </TTGlyph>
    <TTGlyph name="ccaron.sc" xMin="53" yMin="-11" xMax="539" yMax="815">
      <component glyphName="c.sc" x="0" y="0" flags="0x0"/>
      <component glyphName="caron.sc" x="153" y="0" flags="0x0"/>
    </TTGlyph>
    <TTGlyph name="ccedilla" xMin="52" yMin="-241" xMax="472" yMax="539">
      <contour>
        <pt x="258" y="463" on="0"/>
        <pt x="181" y="380" on="0"/>
        <pt x="148" y="258" on="0"/>
        <pt x="148" y="196" on="1"/>
        <pt x="148" y="66" on="0"/>
        <pt x="255" y="66" on="1"/>
        <pt x="288" y="66" on="0"/>
        <pt x="343" y="86" on="0"/>
        <pt x="377" y="107" on="1"/>
        <pt x="414" y="43" on="1"/>
        <pt x="344" y="-6" on="0"/>
        <pt x="265" y="-12" on="1"/>
        <pt x="258" y="-56" on="1"/>
        <pt x="300" y="-60" on="0"/>
        <pt x="340" y="-102" on="0"/>
        <pt x="340" y="-132" on="1"/>
        <pt x="340" y="-176" on="0"/>
        <pt x="272" y="-241" on="0"/>
        <pt x="207" y="-241" on="1"/>
        <pt x="179" y="-241" on="0"/>
        <pt x="133" y="-226" on="0"/>
        <pt x="118" y="-214" on="1"/>
        <pt x="149" y="-165" on="1"/>
        <pt x="173" y="-181" on="0"/>
        <pt x="205" y="-181" on="1"/>
        <pt x="230" y="-181" on="0"/>
        <pt x="265" y="-157" on="0"/>
        <pt x="265" y="-136" on="1"/>
        <pt x="265" y="-115" on="0"/>
        <pt x="230" y="-99" on="0"/>
        <pt x="183" y="-99" on="1"/>
        <pt x="205" y="-8" on="1"/>
        <pt x="132" y="5" on="0"/>
        <pt x="52" y="114" on="0"/>
        <pt x="52" y="203" on="1"/>
        <pt x="52" y="279" on="0"/>
        <pt x="108" y="434" on="0"/>
        <pt x="228" y="539" on="0"/>
        <pt x="319" y="539" on="1"/>
        <pt x="411" y="539" on="0"/>
        <pt x="472" y="481" on="1"/>
        <pt x="423" y="424" on="1"/>
        <pt x="399" y="445" on="0"/>
        <pt x="351" y="463" on="0"/>
        <pt x="320" y="463" on="1"/>
      </contour>
    </TTGlyph>
    <TTGlyph name="ccedilla.sc" xMin="53" yMin="-241" xMax="504" yMax="574">
      <contour>
        <pt x="276" y="501" on="0"/>
        <pt x="187" y="418" on="0"/>
        <pt x="148" y="290" on="0"/>
        <pt x="148" y="220" on="1"/>
        <pt x="148" y="140" on="0"/>
        <pt x="216" y="64" on="0"/>
        <pt x="276" y="64" on="1"/>
        <pt x="314" y="64" on="0"/>
        <pt x="374" y="90" on="0"/>
        <pt x="408" y="114" on="1"/>
        <pt x="449" y="55" on="1"/>
        <pt x="421" y="29" on="0"/>
        <pt x="341" y="-6" on="0"/>
        <pt x="293" y="-10" on="1"/>
        <pt x="285" y="-56" on="1"/>
        <pt x="327" y="-60" on="0"/>
        <pt x="367" y="-102" on="0"/>
        <pt x="367" y="-132" on="1"/>
        <pt x="367" y="-176" on="0"/>
        <pt x="299" y="-241" on="0"/>
        <pt x="234" y="-241" on="1"/>
        <pt x="206" y="-241" on="0"/>
        <pt x="160" y="-226" on="0"/>
        <pt x="145" y="-214" on="1"/>
        <pt x="176" y="-165" on="1"/>
        <pt x="200" y="-181" on="0"/>
        <pt x="232" y="-181" on="1"/>
        <pt x="257" y="-181" on="0"/>
        <pt x="292" y="-157" on="0"/>
        <pt x="292" y="-136" on="1"/>
        <pt x="292" y="-115" on="0"/>
        <pt x="257" y="-99" on="0"/>
        <pt x="210" y="-99" on="1"/>
        <pt x="232" y="-8" on="1"/>
        <pt x="149" y="3" on="0"/>
        <pt x="53" y="124" on="0"/>
        <pt x="53" y="225" on="1"/>
        <pt x="53" y="307" on="0"/>
        <pt x="113" y="467" on="0"/>
        <pt x="244" y="574" on="0"/>
        <pt x="342" y="574" on="1"/>
        <pt x="437" y="574" on="0"/>
        <pt x="504" y="513" on="1"/>
        <pt x="451" y="461" on="1"/>
        <pt x="405" y="501" on="0"/>
        <pt x="347" y="501" on="1"/>
      </contour>
    </TTGlyph>
    <TTGlyph name="ccircumflex" xMin="52" yMin="-12" xMax="508" yMax="792">
      <component glyphName="c" x="0" y="0" flags="0x0"/>
      <component glyphName="circumflex" x="93" y="0" flags="0x0"/>
    </TTGlyph>
    <TTGlyph name="ccircumflex.sc" xMin="53" yMin="-11" xMax="540" yMax="822">
      <component glyphName="c.sc" x="0" y="0" flags="0x0"/>
      <component glyphName="circumflex.sc" x="163" y="0" flags="0x0"/>
    </TTGlyph>
    <TTGlyph name="cdotaccent" xMin="52" yMin="-12" xMax="472" yMax="780">
      <component glyphName="c" x="0" y="0" flags="0x0"/>
      <component glyphName="dotaccent" x="194" y="0" flags="0x0"/>
    </TTGlyph>
    <TTGlyph name="cdotaccent.sc" xMin="53" yMin="-11" xMax="504" yMax="810">
      <component glyphName="c.sc" x="0" y="0" flags="0x0"/>
      <component glyphName="dotaccent.sc" x="222" y="0" flags="0x0"/>
    </TTGlyph>
    <TTGlyph name="cedilla" xMin="-38" yMin="-241" xMax="184" yMax="16">
      <contour>
        <pt x="144" y="-60" on="0"/>
        <pt x="184" y="-102" on="0"/>
        <pt x="184" y="-132" on="1"/>
        <pt x="184" y="-176" on="0"/>
        <pt x="116" y="-241" on="0"/>
        <pt x="51" y="-241" on="1"/>
        <pt x="23" y="-241" on="0"/>
        <pt x="-23" y="-226" on="0"/>
        <pt x="-38" y="-214" on="1"/>
        <pt x="-7" y="-165" on="1"/>
        <pt x="17" y="-181" on="0"/>
        <pt x="49" y="-181" on="1"/>
        <pt x="74" y="-181" on="0"/>
        <pt x="109" y="-157" on="0"/>
        <pt x="109" y="-136" on="1"/>
        <pt x="109" y="-115" on="0"/>
        <pt x="74" y="-99" on="0"/>
        <pt x="27" y="-99" on="1"/>
        <pt x="55" y="16" on="1"/>
        <pt x="114" y="16" on="1"/>
        <pt x="102" y="-56" on="1"/>
      </contour>
    </TTGlyph>
    <TTGlyph name="cedilla.case" xMin="-78" yMin="-241" xMax="144" yMax="16">
      <contour>
        <pt x="104" y="-60" on="0"/>
        <pt x="144" y="-102" on="0"/>
        <pt x="144" y="-132" on="1"/>
        <pt x="144" y="-176" on="0"/>
        <pt x="76" y="-241" on="0"/>
        <pt x="11" y="-241" on="1"/>
        <pt x="-17" y="-241" on="0"/>
        <pt x="-63" y="-226" on="0"/>
        <pt x="-78" y="-214" on="1"/>
        <pt x="-47" y="-165" on="1"/>
        <pt x="-23" y="-181" on="0"/>
        <pt x="9" y="-181" on="1"/>
        <pt x="34" y="-181" on="0"/>
        <pt x="69" y="-157" on="0"/>
        <pt x="69" y="-136" on="1"/>
        <pt x="69" y="-115" on="0"/>
        <pt x="34" y="-99" on="0"/>
        <pt x="-13" y="-99" on="1"/>
        <pt x="15" y="16" on="1"/>
        <pt x="74" y="16" on="1"/>
        <pt x="62" y="-56" on="1"/>
      </contour>
    </TTGlyph>
    <TTGlyph name="cedilla.sc" xMin="-38" yMin="-241" xMax="184" yMax="16">
      <contour>
        <pt x="144" y="-60" on="0"/>
        <pt x="184" y="-102" on="0"/>
        <pt x="184" y="-132" on="1"/>
        <pt x="184" y="-176" on="0"/>
        <pt x="116" y="-241" on="0"/>
        <pt x="51" y="-241" on="1"/>
        <pt x="23" y="-241" on="0"/>
        <pt x="-23" y="-226" on="0"/>
        <pt x="-38" y="-214" on="1"/>
        <pt x="-7" y="-165" on="1"/>
        <pt x="17" y="-181" on="0"/>
        <pt x="49" y="-181" on="1"/>
        <pt x="74" y="-181" on="0"/>
        <pt x="109" y="-157" on="0"/>
        <pt x="109" y="-136" on="1"/>
        <pt x="109" y="-115" on="0"/>
        <pt x="74" y="-99" on="0"/>
        <pt x="27" y="-99" on="1"/>
        <pt x="55" y="16" on="1"/>
        <pt x="114" y="16" on="1"/>
        <pt x="102" y="-56" on="1"/>
      </contour>
    </TTGlyph>
    <TTGlyph name="cent" xMin="52" yMin="-154" xMax="472" yMax="684">
      <contour>
        <pt x="258" y="463" on="0"/>
        <pt x="181" y="380" on="0"/>
        <pt x="148" y="258" on="0"/>
        <pt x="148" y="196" on="1"/>
        <pt x="148" y="66" on="0"/>
        <pt x="255" y="66" on="1"/>
        <pt x="288" y="66" on="0"/>
        <pt x="343" y="86" on="0"/>
        <pt x="377" y="107" on="1"/>
        <pt x="414" y="43" on="1"/>
        <pt x="346" y="-5" on="0"/>
        <pt x="272" y="-11" on="1"/>
        <pt x="252" y="-154" on="1"/>
        <pt x="173" y="-154" on="1"/>
        <pt x="194" y="-6" on="1"/>
        <pt x="126" y="10" on="0"/>
        <pt x="52" y="118" on="0"/>
        <pt x="52" y="203" on="1"/>
        <pt x="52" y="272" on="0"/>
        <pt x="98" y="414" on="0"/>
        <pt x="196" y="521" on="0"/>
        <pt x="271" y="535" on="1"/>
        <pt x="292" y="684" on="1"/>
        <pt x="370" y="684" on="1"/>
        <pt x="349" y="537" on="1"/>
        <pt x="422" y="529" on="0"/>
        <pt x="472" y="481" on="1"/>
        <pt x="423" y="424" on="1"/>
        <pt x="399" y="445" on="0"/>
        <pt x="351" y="463" on="0"/>
        <pt x="320" y="463" on="1"/>
      </contour>
    </TTGlyph>
    <TTGlyph name="cent.osf" xMin="52" yMin="-154" xMax="472" yMax="684">
      <component glyphName="cent" x="0" y="0" flags="0x0"/>
    </TTGlyph>
    <TTGlyph name="cent.tf" xMin="43" yMin="-154" xMax="463" yMax="684">
      <contour>
        <pt x="249" y="463" on="0"/>
        <pt x="172" y="380" on="0"/>
        <pt x="139" y="258" on="0"/>
        <pt x="139" y="196" on="1"/>
        <pt x="139" y="66" on="0"/>
        <pt x="246" y="66" on="1"/>
        <pt x="279" y="66" on="0"/>
        <pt x="334" y="86" on="0"/>
        <pt x="368" y="107" on="1"/>
        <pt x="405" y="43" on="1"/>
        <pt x="337" y="-5" on="0"/>
        <pt x="263" y="-11" on="1"/>
        <pt x="243" y="-154" on="1"/>
        <pt x="164" y="-154" on="1"/>
        <pt x="185" y="-6" on="1"/>
        <pt x="117" y="10" on="0"/>
        <pt x="43" y="118" on="0"/>
        <pt x="43" y="203" on="1"/>
        <pt x="43" y="272" on="0"/>
        <pt x="89" y="414" on="0"/>
        <pt x="187" y="521" on="0"/>
        <pt x="262" y="535" on="1"/>
        <pt x="283" y="684" on="1"/>
        <pt x="361" y="684" on="1"/>
        <pt x="340" y="537" on="1"/>
        <pt x="413" y="529" on="0"/>
        <pt x="463" y="481" on="1"/>
        <pt x="414" y="424" on="1"/>
        <pt x="390" y="445" on="0"/>
        <pt x="342" y="463" on="0"/>
        <pt x="311" y="463" on="1"/>
      </contour>
    </TTGlyph>
    <TTGlyph name="cent.tosf" xMin="6" yMin="-154" xMax="426" yMax="684">
      <component glyphName="cent.tf" x="-37" y="0" flags="0x0"/>
    </TTGlyph>
    <TTGlyph name="chi" xMin="-73" yMin="-211" xMax="470" yMax="538">
      <contour>
        <pt x="382" y="-199" on="1"/>
        <pt x="290" y="-211" on="1"/>
        <pt x="203" y="110" on="1"/>
        <pt x="17" y="-210" on="1"/>
        <pt x="-73" y="-199" on="1"/>
        <pt x="163" y="188" on="1"/>
        <pt x="121" y="326" on="0"/>
        <pt x="64" y="456" on="0"/>
        <pt x="23" y="507" on="1"/>
        <pt x="114" y="536" on="1"/>
        <pt x="151" y="486" on="0"/>
        <pt x="201" y="373" on="0"/>
        <pt x="225" y="268" on="1"/>
        <pt x="375" y="538" on="1"/>
        <pt x="470" y="527" on="1"/>
        <pt x="264" y="186" on="1"/>
      </contour>
    </TTGlyph>
    <TTGlyph name="chi.sc" xMin="-33" yMin="0" xMax="492" yMax="564">
      <component glyphName="x.sc" x="0" y="0" flags="0x0"/>
    </TTGlyph>
    <TTGlyph name="circumflex" xMin="87" yMin="634" xMax="415" yMax="792">
      <contour>
        <pt x="236" y="792" on="1"/>
        <pt x="296" y="792" on="1"/>
        <pt x="415" y="679" on="1"/>
        <pt x="371" y="634" on="1"/>
        <pt x="258" y="718" on="1"/>
        <pt x="124" y="634" on="1"/>
        <pt x="87" y="679" on="1"/>
      </contour>
    </TTGlyph>
    <TTGlyph name="circumflex.case" xMin="105" yMin="759" xMax="433" yMax="914">
      <contour>
        <pt x="142" y="759" on="1"/>
        <pt x="105" y="804" on="1"/>
        <pt x="254" y="914" on="1"/>
        <pt x="314" y="914" on="1"/>
        <pt x="433" y="804" on="1"/>
        <pt x="392" y="759" on="1"/>
        <pt x="277" y="840" on="1"/>
      </contour>
    </TTGlyph>
    <TTGlyph name="circumflex.sc" xMin="49" yMin="664" xMax="377" yMax="822">
      <contour>
        <pt x="198" y="822" on="1"/>
        <pt x="258" y="822" on="1"/>
        <pt x="377" y="709" on="1"/>
        <pt x="333" y="664" on="1"/>
        <pt x="220" y="748" on="1"/>
        <pt x="86" y="664" on="1"/>
        <pt x="49" y="709" on="1"/>
      </contour>
    </TTGlyph>
    <TTGlyph name="clear" xMin="100" yMin="-12" xMax="1140" yMax="713">
      <contour>
        <pt x="128" y="-12" on="0"/>
        <pt x="100" y="16" on="0"/>
        <pt x="100" y="38" on="1"/>
        <pt x="100" y="663" on="1"/>
        <pt x="100" y="686" on="0"/>
        <pt x="128" y="713" on="0"/>
        <pt x="150" y="713" on="1"/>
        <pt x="1090" y="713" on="1"/>
        <pt x="1113" y="713" on="0"/>
        <pt x="1140" y="686" on="0"/>
        <pt x="1140" y="663" on="1"/>
        <pt x="1140" y="38" on="1"/>
        <pt x="1140" y="16" on="0"/>
        <pt x="1113" y="-12" on="0"/>
        <pt x="1090" y="-12" on="1"/>
        <pt x="150" y="-12" on="1"/>
      </contour>
      <contour>
        <pt x="620" y="288" on="1"/>
        <pt x="774" y="134" on="1"/>
        <pt x="841" y="201" on="1"/>
        <pt x="687" y="355" on="1"/>
        <pt x="841" y="508" on="1"/>
        <pt x="774" y="577" on="1"/>
        <pt x="620" y="422" on="1"/>
        <pt x="466" y="577" on="1"/>
        <pt x="399" y="508" on="1"/>
        <pt x="553" y="355" on="1"/>
        <pt x="399" y="201" on="1"/>
        <pt x="466" y="134" on="1"/>
      </contour>
    </TTGlyph>
    <TTGlyph name="colon" xMin="23" yMin="-12" xMax="212" yMax="495">
      <component glyphName="period" x="0" y="0" flags="0x0"/>
      <component glyphName="period" x="52" y="368" flags="0x0"/>
    </TTGlyph>
    <TTGlyph name="comma" xMin="-20" yMin="-166" xMax="161" yMax="127">
      <contour>
        <pt x="125" y="127" on="0"/>
        <pt x="161" y="91" on="0"/>
        <pt x="161" y="64" on="1"/>
        <pt x="161" y="46" on="0"/>
        <pt x="149" y="11" on="0"/>
        <pt x="135" y="-15" on="1"/>
        <pt x="47" y="-166" on="1"/>
        <pt x="-20" y="-166" on="1"/>
        <pt x="45" y="2" on="1"/>
        <pt x="24" y="20" on="0"/>
        <pt x="24" y="51" on="1"/>
        <pt x="24" y="82" on="0"/>
        <pt x="67" y="127" on="0"/>
        <pt x="98" y="127" on="1"/>
      </contour>
    </TTGlyph>
    <TTGlyph name="copyright" xMin="92" yMin="121" xMax="718" yMax="748">
      <contour>
        <pt x="491" y="748" on="0"/>
        <pt x="634" y="664" on="0"/>
        <pt x="718" y="520" on="0"/>
        <pt x="718" y="434" on="1"/>
        <pt x="718" y="349" on="0"/>
        <pt x="634" y="205" on="0"/>
        <pt x="491" y="121" on="0"/>
        <pt x="406" y="121" on="1"/>
        <pt x="320" y="121" on="0"/>
        <pt x="176" y="205" on="0"/>
        <pt x="92" y="349" on="0"/>
        <pt x="92" y="434" on="1"/>
        <pt x="92" y="520" on="0"/>
        <pt x="176" y="664" on="0"/>
        <pt x="320" y="748" on="0"/>
        <pt x="406" y="748" on="1"/>
      </contour>
      <contour>
        <pt x="335" y="696" on="0"/>
        <pt x="219" y="626" on="0"/>
        <pt x="153" y="506" on="0"/>
        <pt x="153" y="434" on="1"/>
        <pt x="153" y="363" on="0"/>
        <pt x="219" y="244" on="0"/>
        <pt x="335" y="174" on="0"/>
        <pt x="406" y="174" on="1"/>
        <pt x="477" y="174" on="0"/>
        <pt x="592" y="244" on="0"/>
        <pt x="658" y="363" on="0"/>
        <pt x="658" y="434" on="1"/>
        <pt x="658" y="506" on="0"/>
        <pt x="592" y="626" on="0"/>
        <pt x="477" y="696" on="0"/>
        <pt x="406" y="696" on="1"/>
      </contour>
      <contour>
        <pt x="444" y="625" on="0"/>
        <pt x="498" y="605" on="0"/>
        <pt x="525" y="585" on="1"/>
        <pt x="488" y="536" on="1"/>
        <pt x="455" y="565" on="0"/>
        <pt x="412" y="565" on="1"/>
        <pt x="371" y="565" on="0"/>
        <pt x="321" y="501" on="0"/>
        <pt x="321" y="435" on="1"/>
        <pt x="321" y="372" on="0"/>
        <pt x="370" y="308" on="0"/>
        <pt x="412" y="308" on="1"/>
        <pt x="437" y="308" on="0"/>
        <pt x="476" y="323" on="0"/>
        <pt x="496" y="339" on="1"/>
        <pt x="528" y="291" on="1"/>
        <pt x="476" y="245" on="0"/>
        <pt x="409" y="245" on="1"/>
        <pt x="335" y="245" on="0"/>
        <pt x="245" y="345" on="0"/>
        <pt x="245" y="435" on="1"/>
        <pt x="245" y="495" on="0"/>
        <pt x="289" y="581" on="0"/>
        <pt x="363" y="625" on="0"/>
        <pt x="408" y="625" on="1"/>
      </contour>
    </TTGlyph>
    <TTGlyph name="currency" xMin="29" yMin="88" xMax="531" yMax="595">
      <contour>
        <pt x="492" y="272" on="0"/>
        <pt x="455" y="218" on="1"/>
        <pt x="531" y="143" on="1"/>
        <pt x="476" y="88" on="1"/>
        <pt x="398" y="164" on="1"/>
        <pt x="345" y="132" on="0"/>
        <pt x="278" y="132" on="1"/>
        <pt x="214" y="132" on="0"/>
        <pt x="161" y="166" on="1"/>
        <pt x="84" y="88" on="1"/>
        <pt x="29" y="143" on="1"/>
        <pt x="107" y="221" on="1"/>
        <pt x="71" y="274" on="0"/>
        <pt x="71" y="341" on="1"/>
        <pt x="71" y="406" on="0"/>
        <pt x="106" y="460" on="1"/>
        <pt x="29" y="540" on="1"/>
        <pt x="84" y="595" on="1"/>
        <pt x="162" y="515" on="1"/>
        <pt x="211" y="549" on="0"/>
        <pt x="278" y="549" on="1"/>
        <pt x="345" y="549" on="0"/>
        <pt x="398" y="517" on="1"/>
        <pt x="476" y="595" on="1"/>
        <pt x="531" y="540" on="1"/>
        <pt x="455" y="463" on="1"/>
        <pt x="492" y="411" on="0"/>
        <pt x="492" y="341" on="1"/>
      </contour>
      <contour>
        <pt x="340" y="205" on="0"/>
        <pt x="403" y="277" on="0"/>
        <pt x="403" y="342" on="1"/>
        <pt x="403" y="407" on="0"/>
        <pt x="340" y="479" on="0"/>
        <pt x="281" y="479" on="1"/>
        <pt x="222" y="479" on="0"/>
        <pt x="158" y="407" on="0"/>
        <pt x="158" y="342" on="1"/>
        <pt x="158" y="277" on="0"/>
        <pt x="222" y="205" on="0"/>
        <pt x="281" y="205" on="1"/>
      </contour>
    </TTGlyph>
    <TTGlyph name="currency.osf" xMin="29" yMin="88" xMax="531" yMax="595">
      <component glyphName="currency" x="0" y="0" flags="0x0"/>
    </TTGlyph>
    <TTGlyph name="currency.tf" xMin="29" yMin="88" xMax="531" yMax="595">
      <component glyphName="currency" x="0" y="0" flags="0x0"/>
    </TTGlyph>
    <TTGlyph name="currency.tosf" xMin="29" yMin="88" xMax="531" yMax="595">
      <component glyphName="currency" x="0" y="0" flags="0x0"/>
    </TTGlyph>
    <TTGlyph name="d" xMin="57" yMin="-12" xMax="566" yMax="750">
      <contour>
        <pt x="462" y="0" on="1"/>
        <pt x="382" y="0" on="1"/>
        <pt x="383" y="87" on="1"/>
        <pt x="354" y="40" on="0"/>
        <pt x="274" y="-12" on="0"/>
        <pt x="224" y="-12" on="1"/>
        <pt x="144" y="-12" on="0"/>
        <pt x="57" y="100" on="0"/>
        <pt x="57" y="197" on="1"/>
        <pt x="57" y="273" on="0"/>
        <pt x="108" y="431" on="0"/>
        <pt x="218" y="539" on="0"/>
        <pt x="302" y="539" on="1"/>
        <pt x="385" y="539" on="0"/>
        <pt x="437" y="473" on="1"/>
        <pt x="476" y="750" on="1"/>
        <pt x="566" y="739" on="1"/>
      </contour>
      <contour>
        <pt x="260" y="466" on="0"/>
        <pt x="186" y="378" on="0"/>
        <pt x="154" y="251" on="0"/>
        <pt x="154" y="190" on="1"/>
        <pt x="154" y="125" on="0"/>
        <pt x="200" y="61" on="0"/>
        <pt x="242" y="61" on="1"/>
        <pt x="288" y="61" on="0"/>
        <pt x="358" y="122" on="0"/>
        <pt x="396" y="183" on="1"/>
        <pt x="427" y="402" on="1"/>
        <pt x="407" y="434" on="0"/>
        <pt x="355" y="466" on="0"/>
        <pt x="319" y="466" on="1"/>
      </contour>
    </TTGlyph>
    <TTGlyph name="d.sc" xMin="62" yMin="0" xMax="535" yMax="564">
      <contour>
        <pt x="392" y="564" on="0"/>
        <pt x="535" y="466" on="0"/>
        <pt x="535" y="342" on="1"/>
        <pt x="535" y="247" on="0"/>
        <pt x="469" y="93" on="0"/>
        <pt x="324" y="0" on="0"/>
        <pt x="212" y="0" on="1"/>
        <pt x="62" y="0" on="1"/>
        <pt x="142" y="564" on="1"/>
        <pt x="271" y="564" on="1"/>
      </contour>
      <contour>
        <pt x="163" y="70" on="1"/>
        <pt x="225" y="70" on="1"/>
        <pt x="339" y="70" on="0"/>
        <pt x="439" y="233" on="0"/>
        <pt x="439" y="346" on="1"/>
        <pt x="439" y="432" on="0"/>
        <pt x="356" y="493" on="0"/>
        <pt x="283" y="493" on="1"/>
        <pt x="223" y="493" on="1"/>
      </contour>
    </TTGlyph>
    <TTGlyph name="dagger" xMin="67" yMin="0" xMax="499" yMax="669">
      <contour>
        <pt x="499" y="522" on="1"/>
        <pt x="489" y="445" on="1"/>
        <pt x="322" y="445" on="1"/>
        <pt x="259" y="0" on="1"/>
        <pt x="171" y="0" on="1"/>
        <pt x="234" y="445" on="1"/>
        <pt x="67" y="445" on="1"/>
        <pt x="77" y="522" on="1"/>
        <pt x="244" y="522" on="1"/>
        <pt x="265" y="669" on="1"/>
        <pt x="353" y="669" on="1"/>
        <pt x="332" y="522" on="1"/>
      </contour>
    </TTGlyph>
    <TTGlyph name="dagger.osf" xMin="67" yMin="0" xMax="499" yMax="669">
      <component glyphName="dagger" x="0" y="0" flags="0x0"/>
    </TTGlyph>
    <TTGlyph name="dagger.tf" xMin="87" yMin="0" xMax="540" yMax="689">
      <contour>
        <pt x="540" y="542" on="1"/>
        <pt x="529" y="465" on="1"/>
        <pt x="352" y="465" on="1"/>
        <pt x="287" y="0" on="1"/>
        <pt x="199" y="0" on="1"/>
        <pt x="264" y="465" on="1"/>
        <pt x="87" y="465" on="1"/>
        <pt x="98" y="542" on="1"/>
        <pt x="275" y="542" on="1"/>
        <pt x="296" y="689" on="1"/>
        <pt x="384" y="689" on="1"/>
        <pt x="363" y="542" on="1"/>
      </contour>
    </TTGlyph>
    <TTGlyph name="dagger.tosf" xMin="55" yMin="0" xMax="487" yMax="669">
      <component glyphName="dagger" x="-12" y="0" flags="0x0"/>
    </TTGlyph>
    <TTGlyph name="daggerdbl" xMin="27" yMin="0" xMax="499" yMax="669">
      <contour>
        <pt x="292" y="236" on="1"/>
        <pt x="460" y="236" on="1"/>
        <pt x="449" y="159" on="1"/>
        <pt x="282" y="159" on="1"/>
        <pt x="259" y="0" on="1"/>
        <pt x="171" y="0" on="1"/>
        <pt x="194" y="159" on="1"/>
        <pt x="27" y="159" on="1"/>
        <pt x="38" y="236" on="1"/>
        <pt x="204" y="236" on="1"/>
        <pt x="234" y="445" on="1"/>
        <pt x="67" y="445" on="1"/>
        <pt x="77" y="522" on="1"/>
        <pt x="244" y="522" on="1"/>
        <pt x="265" y="669" on="1"/>
        <pt x="353" y="669" on="1"/>
        <pt x="332" y="522" on="1"/>
        <pt x="499" y="522" on="1"/>
        <pt x="489" y="445" on="1"/>
        <pt x="322" y="445" on="1"/>
      </contour>
    </TTGlyph>
    <TTGlyph name="daggerdbl.osf" xMin="27" yMin="0" xMax="499" yMax="669">
      <component glyphName="daggerdbl" x="0" y="0" flags="0x0"/>
    </TTGlyph>
    <TTGlyph name="daggerdbl.tf" xMin="49" yMin="0" xMax="540" yMax="689">
      <contour>
        <pt x="325" y="269" on="1"/>
        <pt x="502" y="269" on="1"/>
        <pt x="491" y="192" on="1"/>
        <pt x="314" y="192" on="1"/>
        <pt x="287" y="0" on="1"/>
        <pt x="199" y="0" on="1"/>
        <pt x="226" y="192" on="1"/>
        <pt x="49" y="192" on="1"/>
        <pt x="60" y="269" on="1"/>
        <pt x="237" y="269" on="1"/>
        <pt x="264" y="465" on="1"/>
        <pt x="87" y="465" on="1"/>
        <pt x="98" y="542" on="1"/>
        <pt x="275" y="542" on="1"/>
        <pt x="296" y="689" on="1"/>
        <pt x="384" y="689" on="1"/>
        <pt x="363" y="542" on="1"/>
        <pt x="540" y="542" on="1"/>
        <pt x="529" y="465" on="1"/>
        <pt x="352" y="465" on="1"/>
      </contour>
    </TTGlyph>
    <TTGlyph name="daggerdbl.tosf" xMin="15" yMin="0" xMax="487" yMax="669">
      <component glyphName="daggerdbl" x="-12" y="0" flags="0x0"/>
    </TTGlyph>
    <TTGlyph name="dcaron" xMin="52" yMin="-12" xMax="713" yMax="750">
      <component glyphName="d" x="-5" y="0" flags="0x0"/>
      <component glyphName="caron.alt" x="495" y="50" flags="0x0"/>
    </TTGlyph>
    <TTGlyph name="dcaron.sc" xMin="62" yMin="0" xMax="535" yMax="815">
      <component glyphName="d.sc" x="0" y="0" flags="0x0"/>
      <component glyphName="caron.sc" x="121" y="0" flags="0x0"/>
    </TTGlyph>
    <TTGlyph name="dcroat" xMin="57" yMin="-12" xMax="636" yMax="750">
      <contour>
        <pt x="626" y="606" on="1"/>
        <pt x="547" y="606" on="1"/>
        <pt x="462" y="0" on="1"/>
        <pt x="382" y="0" on="1"/>
        <pt x="383" y="87" on="1"/>
        <pt x="354" y="40" on="0"/>
        <pt x="274" y="-12" on="0"/>
        <pt x="224" y="-12" on="1"/>
        <pt x="144" y="-12" on="0"/>
        <pt x="57" y="100" on="0"/>
        <pt x="57" y="197" on="1"/>
        <pt x="57" y="273" on="0"/>
        <pt x="108" y="431" on="0"/>
        <pt x="218" y="539" on="0"/>
        <pt x="302" y="539" on="1"/>
        <pt x="385" y="539" on="0"/>
        <pt x="437" y="473" on="1"/>
        <pt x="456" y="606" on="1"/>
        <pt x="306" y="606" on="1"/>
        <pt x="306" y="676" on="1"/>
        <pt x="466" y="676" on="1"/>
        <pt x="476" y="750" on="1"/>
        <pt x="566" y="739" on="1"/>
        <pt x="557" y="676" on="1"/>
        <pt x="636" y="676" on="1"/>
      </contour>
      <contour>
        <pt x="407" y="434" on="0"/>
        <pt x="355" y="466" on="0"/>
        <pt x="319" y="466" on="1"/>
        <pt x="260" y="466" on="0"/>
        <pt x="186" y="378" on="0"/>
        <pt x="154" y="251" on="0"/>
        <pt x="154" y="190" on="1"/>
        <pt x="154" y="125" on="0"/>
        <pt x="200" y="61" on="0"/>
        <pt x="242" y="61" on="1"/>
        <pt x="288" y="61" on="0"/>
        <pt x="358" y="122" on="0"/>
        <pt x="396" y="183" on="1"/>
        <pt x="427" y="402" on="1"/>
      </contour>
    </TTGlyph>
    <TTGlyph name="dcroat.sc" xMin="-3" yMin="0" xMax="470" yMax="564">
      <component glyphName="eth.sc" x="0" y="0" flags="0x0"/>
    </TTGlyph>
    <TTGlyph name="degree" xMin="92" yMin="381" xMax="418" yMax="701">
      <contour>
        <pt x="177" y="381" on="0"/>
        <pt x="92" y="456" on="0"/>
        <pt x="92" y="520" on="1"/>
        <pt x="92" y="576" on="0"/>
        <pt x="145" y="658" on="0"/>
        <pt x="228" y="701" on="0"/>
        <pt x="273" y="701" on="1"/>
        <pt x="334" y="701" on="0"/>
        <pt x="418" y="626" on="0"/>
        <pt x="418" y="562" on="1"/>
        <pt x="418" y="506" on="0"/>
        <pt x="366" y="424" on="0"/>
        <pt x="283" y="381" on="0"/>
        <pt x="237" y="381" on="1"/>
      </contour>
      <contour>
        <pt x="275" y="443" on="0"/>
        <pt x="335" y="496" on="0"/>
        <pt x="342" y="545" on="1"/>
        <pt x="344" y="559" on="0"/>
        <pt x="344" y="565" on="1"/>
        <pt x="344" y="601" on="0"/>
        <pt x="304" y="638" on="0"/>
        <pt x="273" y="638" on="1"/>
        <pt x="236" y="638" on="0"/>
        <pt x="175" y="585" on="0"/>
        <pt x="168" y="536" on="1"/>
        <pt x="167" y="529" on="0"/>
        <pt x="167" y="517" on="1"/>
        <pt x="167" y="481" on="0"/>
        <pt x="207" y="443" on="0"/>
        <pt x="237" y="443" on="1"/>
      </contour>
    </TTGlyph>
    <TTGlyph name="degree.osf" xMin="92" yMin="381" xMax="418" yMax="701">
      <component glyphName="degree" x="0" y="0" flags="0x0"/>
    </TTGlyph>
    <TTGlyph name="degree.tf" xMin="78" yMin="401" xMax="404" yMax="721">
      <component glyphName="degree" x="-14" y="20" flags="0x0"/>
    </TTGlyph>
    <TTGlyph name="degree.tosf" xMin="75" yMin="381" xMax="401" yMax="701">
      <component glyphName="degree" x="-17" y="0" flags="0x0"/>
    </TTGlyph>
    <TTGlyph name="deleterightKey" xMin="100" yMin="-12" xMax="1360" yMax="713">
      <contour>
        <pt x="128" y="-12" on="0"/>
        <pt x="100" y="16" on="0"/>
        <pt x="100" y="38" on="1"/>
        <pt x="100" y="663" on="1"/>
        <pt x="100" y="686" on="0"/>
        <pt x="128" y="713" on="0"/>
        <pt x="150" y="713" on="1"/>
        <pt x="980" y="713" on="1"/>
        <pt x="1360" y="352" on="1"/>
        <pt x="980" y="-12" on="1"/>
        <pt x="150" y="-12" on="1"/>
      </contour>
      <contour>
        <pt x="570" y="288" on="1"/>
        <pt x="724" y="134" on="1"/>
        <pt x="791" y="201" on="1"/>
        <pt x="637" y="355" on="1"/>
        <pt x="791" y="508" on="1"/>
        <pt x="724" y="577" on="1"/>
        <pt x="570" y="422" on="1"/>
        <pt x="416" y="577" on="1"/>
        <pt x="349" y="508" on="1"/>
        <pt x="503" y="355" on="1"/>
        <pt x="349" y="201" on="1"/>
        <pt x="416" y="134" on="1"/>
      </contour>
    </TTGlyph>
    <TTGlyph name="delta" xMin="52" yMin="-12" xMax="524" yMax="750">
      <contour>
        <pt x="409" y="750" on="0"/>
        <pt x="489" y="720" on="0"/>
        <pt x="524" y="689" on="1"/>
        <pt x="472" y="634" on="1"/>
        <pt x="446" y="659" on="0"/>
        <pt x="395" y="678" on="0"/>
        <pt x="361" y="678" on="1"/>
        <pt x="309" y="678" on="0"/>
        <pt x="255" y="631" on="0"/>
        <pt x="255" y="601" on="1"/>
        <pt x="255" y="568" on="0"/>
        <pt x="296" y="528" on="0"/>
        <pt x="357" y="501" on="1"/>
        <pt x="440" y="463" on="0"/>
        <pt x="520" y="365" on="0"/>
        <pt x="520" y="289" on="1"/>
        <pt x="520" y="229" on="0"/>
        <pt x="465" y="89" on="0"/>
        <pt x="345" y="-12" on="0"/>
        <pt x="254" y="-12" on="1"/>
        <pt x="161" y="-12" on="0"/>
        <pt x="52" y="106" on="0"/>
        <pt x="52" y="202" on="1"/>
        <pt x="52" y="296" on="0"/>
        <pt x="138" y="431" on="0"/>
        <pt x="240" y="475" on="1"/>
        <pt x="198" y="502" on="0"/>
        <pt x="162" y="561" on="0"/>
        <pt x="162" y="601" on="1"/>
        <pt x="162" y="634" on="0"/>
        <pt x="200" y="702" on="0"/>
        <pt x="285" y="750" on="0"/>
        <pt x="352" y="750" on="1"/>
      </contour>
      <contour>
        <pt x="214" y="400" on="0"/>
        <pt x="149" y="281" on="0"/>
        <pt x="149" y="193" on="1"/>
        <pt x="149" y="133" on="0"/>
        <pt x="204" y="62" on="0"/>
        <pt x="257" y="62" on="1"/>
        <pt x="317" y="62" on="0"/>
        <pt x="392" y="140" on="0"/>
        <pt x="423" y="247" on="0"/>
        <pt x="423" y="292" on="1"/>
        <pt x="423" y="347" on="0"/>
        <pt x="366" y="416" on="0"/>
        <pt x="298" y="447" on="1"/>
      </contour>
    </TTGlyph>
    <TTGlyph name="delta.sc" xMin="-32" yMin="0" xMax="465" yMax="566">
      <contour>
        <pt x="-32" y="0" on="1"/>
        <pt x="240" y="566" on="1"/>
        <pt x="353" y="566" on="1"/>
        <pt x="465" y="0" on="1"/>
      </contour>
      <contour>
        <pt x="361" y="73" on="1"/>
        <pt x="287" y="492" on="1"/>
        <pt x="94" y="73" on="1"/>
      </contour>
    </TTGlyph>
    <TTGlyph name="dieresis" xMin="93" yMin="654" xMax="413" yMax="768">
      <contour>
        <pt x="176" y="768" on="0"/>
        <pt x="205" y="738" on="0"/>
        <pt x="205" y="716" on="1"/>
        <pt x="205" y="690" on="0"/>
        <pt x="170" y="654" on="0"/>
        <pt x="145" y="654" on="1"/>
        <pt x="122" y="654" on="0"/>
        <pt x="93" y="684" on="0"/>
        <pt x="93" y="707" on="1"/>
        <pt x="93" y="733" on="0"/>
        <pt x="127" y="768" on="0"/>
        <pt x="153" y="768" on="1"/>
      </contour>
      <contour>
        <pt x="384" y="768" on="0"/>
        <pt x="413" y="738" on="0"/>
        <pt x="413" y="716" on="1"/>
        <pt x="413" y="690" on="0"/>
        <pt x="378" y="654" on="0"/>
        <pt x="352" y="654" on="1"/>
        <pt x="329" y="654" on="0"/>
        <pt x="301" y="684" on="0"/>
        <pt x="301" y="707" on="1"/>
        <pt x="301" y="733" on="0"/>
        <pt x="335" y="768" on="0"/>
        <pt x="360" y="768" on="1"/>
      </contour>
    </TTGlyph>
    <TTGlyph name="dieresis.case" xMin="71" yMin="780" xMax="391" yMax="894">
      <contour>
        <pt x="154" y="894" on="0"/>
        <pt x="183" y="864" on="0"/>
        <pt x="183" y="842" on="1"/>
        <pt x="183" y="816" on="0"/>
        <pt x="148" y="780" on="0"/>
        <pt x="123" y="780" on="1"/>
        <pt x="100" y="780" on="0"/>
        <pt x="71" y="810" on="0"/>
        <pt x="71" y="833" on="1"/>
        <pt x="71" y="859" on="0"/>
        <pt x="105" y="894" on="0"/>
        <pt x="131" y="894" on="1"/>
      </contour>
      <contour>
        <pt x="362" y="894" on="0"/>
        <pt x="391" y="864" on="0"/>
        <pt x="391" y="842" on="1"/>
        <pt x="391" y="816" on="0"/>
        <pt x="356" y="780" on="0"/>
        <pt x="330" y="780" on="1"/>
        <pt x="307" y="780" on="0"/>
        <pt x="279" y="810" on="0"/>
        <pt x="279" y="833" on="1"/>
        <pt x="279" y="859" on="0"/>
        <pt x="313" y="894" on="0"/>
        <pt x="338" y="894" on="1"/>
      </contour>
    </TTGlyph>
    <TTGlyph name="dieresis.sc" xMin="55" yMin="684" xMax="375" yMax="798">
      <contour>
        <pt x="138" y="798" on="0"/>
        <pt x="167" y="768" on="0"/>
        <pt x="167" y="746" on="1"/>
        <pt x="167" y="720" on="0"/>
        <pt x="132" y="684" on="0"/>
        <pt x="107" y="684" on="1"/>
        <pt x="84" y="684" on="0"/>
        <pt x="55" y="714" on="0"/>
        <pt x="55" y="737" on="1"/>
        <pt x="55" y="763" on="0"/>
        <pt x="89" y="798" on="0"/>
        <pt x="115" y="798" on="1"/>
      </contour>
      <contour>
        <pt x="346" y="798" on="0"/>
        <pt x="375" y="768" on="0"/>
        <pt x="375" y="746" on="1"/>
        <pt x="375" y="720" on="0"/>
        <pt x="340" y="684" on="0"/>
        <pt x="314" y="684" on="1"/>
        <pt x="291" y="684" on="0"/>
        <pt x="263" y="714" on="0"/>
        <pt x="263" y="737" on="1"/>
        <pt x="263" y="763" on="0"/>
        <pt x="297" y="798" on="0"/>
        <pt x="322" y="798" on="1"/>
      </contour>
    </TTGlyph>
    <TTGlyph name="dieresistonos" xMin="88" yMin="624" xMax="429" yMax="918">
      <contour>
        <pt x="298" y="729" on="1"/>
        <pt x="232" y="739" on="1"/>
        <pt x="286" y="918" on="1"/>
        <pt x="384" y="900" on="1"/>
      </contour>
      <contour>
        <pt x="172" y="737" on="0"/>
        <pt x="202" y="708" on="0"/>
        <pt x="202" y="685" on="1"/>
        <pt x="202" y="659" on="0"/>
        <pt x="166" y="624" on="0"/>
        <pt x="141" y="624" on="1"/>
        <pt x="118" y="624" on="0"/>
        <pt x="88" y="654" on="0"/>
        <pt x="88" y="676" on="1"/>
        <pt x="88" y="703" on="0"/>
        <pt x="123" y="737" on="0"/>
        <pt x="149" y="737" on="1"/>
      </contour>
      <contour>
        <pt x="399" y="737" on="0"/>
        <pt x="429" y="708" on="0"/>
        <pt x="429" y="685" on="1"/>
        <pt x="429" y="659" on="0"/>
        <pt x="394" y="624" on="0"/>
        <pt x="368" y="624" on="1"/>
        <pt x="345" y="624" on="0"/>
        <pt x="315" y="654" on="0"/>
        <pt x="315" y="676" on="1"/>
        <pt x="315" y="702" on="0"/>
        <pt x="351" y="737" on="0"/>
        <pt x="376" y="737" on="1"/>
      </contour>
    </TTGlyph>
    <TTGlyph name="divide" xMin="65" yMin="35" xMax="448" yMax="631">
      <component glyphName="period" x="137" y="47" flags="0x0"/>
      <component glyphName="period" x="201" y="504" flags="0x0"/>
      <component glyphName="minus" x="0" y="0" flags="0x0"/>
    </TTGlyph>
    <TTGlyph name="divide.osf" xMin="65" yMin="35" xMax="448" yMax="631">
      <contour>
        <pt x="326" y="631" on="0"/>
        <pt x="361" y="595" on="0"/>
        <pt x="361" y="568" on="1"/>
        <pt x="361" y="536" on="0"/>
        <pt x="317" y="492" on="0"/>
        <pt x="286" y="492" on="1"/>
        <pt x="259" y="492" on="0"/>
        <pt x="224" y="528" on="0"/>
        <pt x="224" y="555" on="1"/>
        <pt x="224" y="587" on="0"/>
        <pt x="267" y="631" on="0"/>
        <pt x="298" y="631" on="1"/>
      </contour>
      <contour>
        <pt x="448" y="371" on="1"/>
        <pt x="437" y="294" on="1"/>
        <pt x="65" y="294" on="1"/>
        <pt x="76" y="371" on="1"/>
      </contour>
      <contour>
        <pt x="262" y="174" on="0"/>
        <pt x="297" y="138" on="0"/>
        <pt x="297" y="111" on="1"/>
        <pt x="297" y="79" on="0"/>
        <pt x="253" y="35" on="0"/>
        <pt x="222" y="35" on="1"/>
        <pt x="195" y="35" on="0"/>
        <pt x="160" y="71" on="0"/>
        <pt x="160" y="98" on="1"/>
        <pt x="160" y="130" on="0"/>
        <pt x="203" y="174" on="0"/>
        <pt x="234" y="174" on="1"/>
      </contour>
    </TTGlyph>
    <TTGlyph name="divide.tf" xMin="93" yMin="35" xMax="476" yMax="631">
      <contour>
        <pt x="354" y="631" on="0"/>
        <pt x="389" y="595" on="0"/>
        <pt x="389" y="568" on="1"/>
        <pt x="389" y="536" on="0"/>
        <pt x="345" y="492" on="0"/>
        <pt x="314" y="492" on="1"/>
        <pt x="287" y="492" on="0"/>
        <pt x="252" y="528" on="0"/>
        <pt x="252" y="555" on="1"/>
        <pt x="252" y="587" on="0"/>
        <pt x="295" y="631" on="0"/>
        <pt x="326" y="631" on="1"/>
      </contour>
      <contour>
        <pt x="476" y="371" on="1"/>
        <pt x="465" y="294" on="1"/>
        <pt x="93" y="294" on="1"/>
        <pt x="104" y="371" on="1"/>
      </contour>
      <contour>
        <pt x="290" y="174" on="0"/>
        <pt x="325" y="138" on="0"/>
        <pt x="325" y="111" on="1"/>
        <pt x="325" y="79" on="0"/>
        <pt x="281" y="35" on="0"/>
        <pt x="250" y="35" on="1"/>
        <pt x="223" y="35" on="0"/>
        <pt x="188" y="71" on="0"/>
        <pt x="188" y="98" on="1"/>
        <pt x="188" y="130" on="0"/>
        <pt x="231" y="174" on="0"/>
        <pt x="262" y="174" on="1"/>
      </contour>
    </TTGlyph>
    <TTGlyph name="divide.tosf" xMin="97" yMin="35" xMax="480" yMax="631">
      <contour>
        <pt x="358" y="631" on="0"/>
        <pt x="393" y="595" on="0"/>
        <pt x="393" y="568" on="1"/>
        <pt x="393" y="536" on="0"/>
        <pt x="349" y="492" on="0"/>
        <pt x="318" y="492" on="1"/>
        <pt x="291" y="492" on="0"/>
        <pt x="256" y="528" on="0"/>
        <pt x="256" y="555" on="1"/>
        <pt x="256" y="587" on="0"/>
        <pt x="299" y="631" on="0"/>
        <pt x="330" y="631" on="1"/>
      </contour>
      <contour>
        <pt x="480" y="371" on="1"/>
        <pt x="469" y="294" on="1"/>
        <pt x="97" y="294" on="1"/>
        <pt x="108" y="371" on="1"/>
      </contour>
      <contour>
        <pt x="294" y="174" on="0"/>
        <pt x="329" y="138" on="0"/>
        <pt x="329" y="111" on="1"/>
        <pt x="329" y="79" on="0"/>
        <pt x="285" y="35" on="0"/>
        <pt x="254" y="35" on="1"/>
        <pt x="227" y="35" on="0"/>
        <pt x="192" y="71" on="0"/>
        <pt x="192" y="98" on="1"/>
        <pt x="192" y="130" on="0"/>
        <pt x="235" y="174" on="0"/>
        <pt x="266" y="174" on="1"/>
      </contour>
    </TTGlyph>
    <TTGlyph name="divisionslash" xMin="-212" yMin="-78" xMax="358" yMax="750">
      <component glyphName="fraction" x="0" y="0" flags="0x0"/>
    </TTGlyph>
    <TTGlyph name="dollar" xMin="-1" yMin="-155" xMax="511" yMax="824">
      <contour>
        <pt x="383" y="362" on="0"/>
        <pt x="477" y="275" on="0"/>
        <pt x="477" y="201" on="1"/>
        <pt x="477" y="155" on="0"/>
        <pt x="435" y="65" on="0"/>
        <pt x="338" y="-2" on="0"/>
        <pt x="261" y="-10" on="1"/>
        <pt x="241" y="-155" on="1"/>
        <pt x="162" y="-155" on="1"/>
        <pt x="182" y="-11" on="1"/>
        <pt x="67" y="-1" on="0"/>
        <pt x="-1" y="77" on="1"/>
        <pt x="58" y="132" on="1"/>
        <pt x="117" y="64" on="0"/>
        <pt x="216" y="64" on="1"/>
        <pt x="288" y="64" on="0"/>
        <pt x="382" y="131" on="0"/>
        <pt x="382" y="201" on="1"/>
        <pt x="382" y="236" on="0"/>
        <pt x="325" y="291" on="0"/>
        <pt x="258" y="314" on="1"/>
        <pt x="84" y="368" on="0"/>
        <pt x="84" y="494" on="1"/>
        <pt x="84" y="572" on="0"/>
        <pt x="192" y="670" on="0"/>
        <pt x="279" y="678" on="1"/>
        <pt x="300" y="824" on="1"/>
        <pt x="379" y="824" on="1"/>
        <pt x="358" y="677" on="1"/>
        <pt x="403" y="671" on="0"/>
        <pt x="475" y="633" on="0"/>
        <pt x="511" y="600" on="1"/>
        <pt x="454" y="546" on="1"/>
        <pt x="391" y="604" on="0"/>
        <pt x="316" y="604" on="1"/>
        <pt x="255" y="604" on="0"/>
        <pt x="177" y="553" on="0"/>
        <pt x="177" y="498" on="1"/>
        <pt x="177" y="460" on="0"/>
        <pt x="231" y="411" on="0"/>
        <pt x="303" y="387" on="1"/>
      </contour>
    </TTGlyph>
    <TTGlyph name="dollar.osf" xMin="-1" yMin="-155" xMax="511" yMax="824">
      <component glyphName="dollar" x="0" y="0" flags="0x0"/>
    </TTGlyph>
    <TTGlyph name="dollar.tf" xMin="14" yMin="-154" xMax="529" yMax="847">
      <contour>
        <pt x="401" y="375" on="0"/>
        <pt x="495" y="285" on="0"/>
        <pt x="495" y="210" on="1"/>
        <pt x="495" y="162" on="0"/>
        <pt x="451" y="71" on="0"/>
        <pt x="352" y="6" on="0"/>
        <pt x="275" y="-2" on="1"/>
        <pt x="254" y="-154" on="1"/>
        <pt x="174" y="-154" on="1"/>
        <pt x="195" y="-2" on="1"/>
        <pt x="82" y="8" on="0"/>
        <pt x="14" y="86" on="1"/>
        <pt x="71" y="141" on="1"/>
        <pt x="102" y="107" on="0"/>
        <pt x="180" y="73" on="0"/>
        <pt x="232" y="73" on="1"/>
        <pt x="305" y="73" on="0"/>
        <pt x="400" y="137" on="0"/>
        <pt x="400" y="206" on="1"/>
        <pt x="400" y="245" on="0"/>
        <pt x="343" y="303" on="0"/>
        <pt x="275" y="326" on="1"/>
        <pt x="187" y="353" on="0"/>
        <pt x="99" y="441" on="0"/>
        <pt x="99" y="507" on="1"/>
        <pt x="99" y="548" on="0"/>
        <pt x="139" y="628" on="0"/>
        <pt x="226" y="686" on="0"/>
        <pt x="293" y="693" on="1"/>
        <pt x="315" y="847" on="1"/>
        <pt x="395" y="847" on="1"/>
        <pt x="373" y="693" on="1"/>
        <pt x="421" y="687" on="0"/>
        <pt x="494" y="649" on="0"/>
        <pt x="529" y="615" on="1"/>
        <pt x="472" y="560" on="1"/>
        <pt x="440" y="591" on="0"/>
        <pt x="372" y="619" on="0"/>
        <pt x="333" y="619" on="1"/>
        <pt x="272" y="619" on="0"/>
        <pt x="192" y="564" on="0"/>
        <pt x="192" y="507" on="1"/>
        <pt x="192" y="471" on="0"/>
        <pt x="247" y="423" on="0"/>
        <pt x="320" y="399" on="1"/>
      </contour>
    </TTGlyph>
    <TTGlyph name="dollar.tosf" xMin="19" yMin="-154" xMax="520" yMax="825">
      <contour>
        <pt x="396" y="362" on="0"/>
        <pt x="487" y="274" on="0"/>
        <pt x="487" y="196" on="1"/>
        <pt x="487" y="120" on="0"/>
        <pt x="384" y="3" on="0"/>
        <pt x="275" y="-9" on="1"/>
        <pt x="256" y="-154" on="1"/>
        <pt x="176" y="-154" on="1"/>
        <pt x="197" y="-9" on="1"/>
        <pt x="88" y="1" on="0"/>
        <pt x="19" y="78" on="1"/>
        <pt x="78" y="133" on="1"/>
        <pt x="140" y="65" on="0"/>
        <pt x="231" y="65" on="1"/>
        <pt x="311" y="65" on="0"/>
        <pt x="394" y="137" on="0"/>
        <pt x="394" y="190" on="1"/>
        <pt x="394" y="234" on="0"/>
        <pt x="340" y="292" on="0"/>
        <pt x="273" y="316" on="1"/>
        <pt x="190" y="344" on="0"/>
        <pt x="104" y="431" on="0"/>
        <pt x="104" y="494" on="1"/>
        <pt x="104" y="571" on="0"/>
        <pt x="210" y="670" on="0"/>
        <pt x="293" y="679" on="1"/>
        <pt x="314" y="825" on="1"/>
        <pt x="394" y="825" on="1"/>
        <pt x="373" y="678" on="1"/>
        <pt x="459" y="667" on="0"/>
        <pt x="520" y="601" on="1"/>
        <pt x="465" y="548" on="1"/>
        <pt x="412" y="605" on="0"/>
        <pt x="331" y="605" on="1"/>
        <pt x="272" y="605" on="0"/>
        <pt x="195" y="554" on="0"/>
        <pt x="195" y="499" on="1"/>
        <pt x="195" y="465" on="0"/>
        <pt x="250" y="411" on="0"/>
        <pt x="318" y="387" on="1"/>
      </contour>
    </TTGlyph>
    <TTGlyph name="dotaccent" xMin="92" yMin="655" xMax="219" yMax="780">
      <contour>
        <pt x="187" y="780" on="0"/>
        <pt x="219" y="748" on="0"/>
        <pt x="219" y="723" on="1"/>
        <pt x="219" y="694" on="0"/>
        <pt x="181" y="655" on="0"/>
        <pt x="150" y="655" on="1"/>
        <pt x="124" y="655" on="0"/>
        <pt x="92" y="687" on="0"/>
        <pt x="92" y="712" on="1"/>
        <pt x="92" y="742" on="0"/>
        <pt x="131" y="780" on="0"/>
        <pt x="160" y="780" on="1"/>
      </contour>
    </TTGlyph>
    <TTGlyph name="dotaccent.case" xMin="70" yMin="781" xMax="197" yMax="906">
      <contour>
        <pt x="165" y="906" on="0"/>
        <pt x="197" y="874" on="0"/>
        <pt x="197" y="849" on="1"/>
        <pt x="197" y="820" on="0"/>
        <pt x="159" y="781" on="0"/>
        <pt x="128" y="781" on="1"/>
        <pt x="102" y="781" on="0"/>
        <pt x="70" y="813" on="0"/>
        <pt x="70" y="838" on="1"/>
        <pt x="70" y="868" on="0"/>
        <pt x="109" y="906" on="0"/>
        <pt x="138" y="906" on="1"/>
      </contour>
    </TTGlyph>
    <TTGlyph name="dotaccent.sc" xMin="92" yMin="685" xMax="219" yMax="810">
      <contour>
        <pt x="187" y="810" on="0"/>
        <pt x="219" y="778" on="0"/>
        <pt x="219" y="753" on="1"/>
        <pt x="219" y="724" on="0"/>
        <pt x="181" y="685" on="0"/>
        <pt x="150" y="685" on="1"/>
        <pt x="124" y="685" on="0"/>
        <pt x="92" y="717" on="0"/>
        <pt x="92" y="742" on="1"/>
        <pt x="92" y="772" on="0"/>
        <pt x="131" y="810" on="0"/>
        <pt x="160" y="810" on="1"/>
      </contour>
    </TTGlyph>
    <TTGlyph name="dotlessi" xMin="57" yMin="0" xMax="223" yMax="527">
      <contour>
        <pt x="57" y="0" on="1"/>
        <pt x="131" y="527" on="1"/>
        <pt x="223" y="527" on="1"/>
        <pt x="149" y="0" on="1"/>
      </contour>
    </TTGlyph>
    <TTGlyph name="dotlessi.sc" xMin="62" yMin="0" xMax="235" yMax="564">
      <component glyphName="i.sc" x="0" y="0" flags="0x0"/>
    </TTGlyph>
    <TTGlyph name="dotlessj.sc" xMin="-46" yMin="-120" xMax="230" yMax="564">
      <component glyphName="j.sc" x="0" y="0" flags="0x0"/>
    </TTGlyph>
    <TTGlyph name="dotmath" xMin="59" yMin="241" xMax="196" yMax="380">
      <component glyphName="periodcentered" x="0" y="0" flags="0x0"/>
    </TTGlyph>
    <TTGlyph name="e" xMin="52" yMin="-12" xMax="490" yMax="539">
      <contour>
        <pt x="490" y="303" on="0"/>
        <pt x="310" y="214" on="0"/>
        <pt x="148" y="196" on="1"/>
        <pt x="151" y="65" on="0"/>
        <pt x="262" y="65" on="1"/>
        <pt x="299" y="65" on="0"/>
        <pt x="367" y="89" on="0"/>
        <pt x="403" y="114" on="1"/>
        <pt x="442" y="52" on="1"/>
        <pt x="353" y="-12" on="0"/>
        <pt x="253" y="-12" on="1"/>
        <pt x="157" y="-12" on="0"/>
        <pt x="52" y="101" on="0"/>
        <pt x="52" y="202" on="1"/>
        <pt x="52" y="281" on="0"/>
        <pt x="107" y="436" on="0"/>
        <pt x="229" y="539" on="0"/>
        <pt x="323" y="539" on="1"/>
        <pt x="403" y="539" on="0"/>
        <pt x="490" y="461" on="0"/>
        <pt x="490" y="405" on="1"/>
      </contour>
      <contour>
        <pt x="277" y="280" on="0"/>
        <pt x="394" y="338" on="0"/>
        <pt x="394" y="402" on="1"/>
        <pt x="394" y="426" on="0"/>
        <pt x="360" y="466" on="0"/>
        <pt x="322" y="466" on="1"/>
        <pt x="246" y="466" on="0"/>
        <pt x="164" y="350" on="0"/>
        <pt x="153" y="266" on="1"/>
      </contour>
    </TTGlyph>
    <TTGlyph name="e.sc" xMin="62" yMin="0" xMax="470" yMax="564">
      <contour>
        <pt x="223" y="493" on="1"/>
        <pt x="199" y="323" on="1"/>
        <pt x="396" y="323" on="1"/>
        <pt x="386" y="252" on="1"/>
        <pt x="189" y="252" on="1"/>
        <pt x="163" y="71" on="1"/>
        <pt x="404" y="71" on="1"/>
        <pt x="394" y="0" on="1"/>
        <pt x="62" y="0" on="1"/>
        <pt x="142" y="564" on="1"/>
        <pt x="470" y="564" on="1"/>
        <pt x="450" y="493" on="1"/>
      </contour>
    </TTGlyph>
    <TTGlyph name="eacute" xMin="52" yMin="-12" xMax="490" yMax="801">
      <component glyphName="e" x="0" y="0" flags="0x0"/>
      <component glyphName="acute" x="120" y="0" flags="0x0"/>
    </TTGlyph>
    <TTGlyph name="eacute.sc" xMin="62" yMin="0" xMax="470" yMax="831">
      <component glyphName="e.sc" x="0" y="0" flags="0x0"/>
      <component glyphName="acute.sc" x="163" y="0" flags="0x0"/>
    </TTGlyph>
    <TTGlyph name="ebreve" xMin="52" yMin="-12" xMax="499" yMax="791">
      <component glyphName="e" x="0" y="0" flags="0x0"/>
      <component glyphName="breve" x="98" y="0" flags="0x0"/>
    </TTGlyph>
    <TTGlyph name="ebreve.sc" xMin="62" yMin="0" xMax="484" yMax="821">
      <component glyphName="e.sc" x="0" y="0" flags="0x0"/>
      <component glyphName="breve.sc" x="121" y="0" flags="0x0"/>
    </TTGlyph>
    <TTGlyph name="ecaron" xMin="52" yMin="-12" xMax="508" yMax="785">
      <component glyphName="e" x="0" y="0" flags="0x0"/>
      <component glyphName="caron" x="84" y="0" flags="0x0"/>
    </TTGlyph>
    <TTGlyph name="ecaron.sc" xMin="62" yMin="0" xMax="496" yMax="815">
      <component glyphName="e.sc" x="0" y="0" flags="0x0"/>
      <component glyphName="caron.sc" x="110" y="0" flags="0x0"/>
    </TTGlyph>
    <TTGlyph name="ecircumflex" xMin="52" yMin="-12" xMax="499" yMax="792">
      <component glyphName="e" x="0" y="0" flags="0x0"/>
      <component glyphName="circumflex" x="84" y="0" flags="0x0"/>
    </TTGlyph>
    <TTGlyph name="ecircumflex.sc" xMin="62" yMin="0" xMax="497" yMax="822">
      <component glyphName="e.sc" x="0" y="0" flags="0x0"/>
      <component glyphName="circumflex.sc" x="120" y="0" flags="0x0"/>
    </TTGlyph>
    <TTGlyph name="edieresis" xMin="52" yMin="-12" xMax="495" yMax="768">
      <component glyphName="e" x="0" y="0" flags="0x0"/>
      <component glyphName="dieresis" x="82" y="0" flags="0x0"/>
    </TTGlyph>
    <TTGlyph name="edieresis.sc" xMin="62" yMin="0" xMax="493" yMax="798">
      <component glyphName="e.sc" x="0" y="0" flags="0x0"/>
      <component glyphName="dieresis.sc" x="118" y="0" flags="0x0"/>
    </TTGlyph>
    <TTGlyph name="edotaccent" xMin="52" yMin="-12" xMax="490" yMax="780">
      <component glyphName="e" x="0" y="0" flags="0x0"/>
      <component glyphName="dotaccent" x="185" y="0" flags="0x0"/>
    </TTGlyph>
    <TTGlyph name="edotaccent.sc" xMin="62" yMin="0" xMax="470" yMax="810">
      <component glyphName="e.sc" x="0" y="0" flags="0x0"/>
      <component glyphName="dotaccent.sc" x="179" y="0" flags="0x0"/>
    </TTGlyph>
    <TTGlyph name="egrave" xMin="52" yMin="-12" xMax="490" yMax="801">
      <component glyphName="e" x="0" y="0" flags="0x0"/>
      <component glyphName="grave" x="140" y="0" flags="0x0"/>
    </TTGlyph>
    <TTGlyph name="egrave.sc" xMin="62" yMin="0" xMax="470" yMax="831">
      <component glyphName="e.sc" x="0" y="0" flags="0x0"/>
      <component glyphName="grave.sc" x="163" y="0" flags="0x0"/>
    </TTGlyph>
    <TTGlyph name="eight" xMin="31" yMin="-12" xMax="510" yMax="679">
      <contour>
        <pt x="490" y="304" on="0"/>
        <pt x="490" y="202" on="1"/>
        <pt x="490" y="141" on="0"/>
        <pt x="423" y="43" on="0"/>
        <pt x="307" y="-12" on="0"/>
        <pt x="236" y="-12" on="1"/>
        <pt x="142" y="-12" on="0"/>
        <pt x="31" y="84" on="0"/>
        <pt x="31" y="162" on="1"/>
        <pt x="31" y="223" on="0"/>
        <pt x="101" y="319" on="0"/>
        <pt x="187" y="354" on="1"/>
        <pt x="105" y="401" on="0"/>
        <pt x="105" y="493" on="1"/>
        <pt x="105" y="553" on="0"/>
        <pt x="168" y="637" on="0"/>
        <pt x="269" y="679" on="0"/>
        <pt x="325" y="679" on="1"/>
        <pt x="374" y="679" on="0"/>
        <pt x="458" y="644" on="0"/>
        <pt x="510" y="574" on="0"/>
        <pt x="510" y="525" on="1"/>
        <pt x="510" y="467" on="0"/>
        <pt x="446" y="389" on="0"/>
        <pt x="375" y="357" on="1"/>
      </contour>
      <contour>
        <pt x="257" y="610" on="0"/>
        <pt x="193" y="539" on="0"/>
        <pt x="193" y="494" on="1"/>
        <pt x="193" y="451" on="0"/>
        <pt x="244" y="405" on="0"/>
        <pt x="299" y="386" on="1"/>
        <pt x="313" y="382" on="1"/>
        <pt x="376" y="415" on="0"/>
        <pt x="421" y="483" on="0"/>
        <pt x="421" y="524" on="1"/>
        <pt x="421" y="565" on="0"/>
        <pt x="372" y="610" on="0"/>
        <pt x="326" y="610" on="1"/>
      </contour>
      <contour>
        <pt x="310" y="61" on="0"/>
        <pt x="397" y="142" on="0"/>
        <pt x="397" y="206" on="1"/>
        <pt x="397" y="245" on="0"/>
        <pt x="341" y="294" on="0"/>
        <pt x="271" y="320" on="1"/>
        <pt x="249" y="327" on="1"/>
        <pt x="125" y="273" on="0"/>
        <pt x="125" y="163" on="1"/>
        <pt x="125" y="115" on="0"/>
        <pt x="186" y="61" on="0"/>
        <pt x="240" y="61" on="1"/>
      </contour>
    </TTGlyph>
    <TTGlyph name="eight.dnom" xMin="19" yMin="-9" xMax="345" yMax="424">
      <contour>
        <pt x="297" y="204" on="0"/>
        <pt x="332" y="154" on="0"/>
        <pt x="332" y="118" on="1"/>
        <pt x="332" y="63" on="0"/>
        <pt x="238" y="-9" on="0"/>
        <pt x="162" y="-9" on="1"/>
        <pt x="96" y="-9" on="0"/>
        <pt x="19" y="52" on="0"/>
        <pt x="19" y="100" on="1"/>
        <pt x="19" y="139" on="0"/>
        <pt x="64" y="198" on="0"/>
        <pt x="119" y="219" on="1"/>
        <pt x="65" y="251" on="0"/>
        <pt x="65" y="307" on="1"/>
        <pt x="65" y="362" on="0"/>
        <pt x="151" y="424" on="0"/>
        <pt x="213" y="424" on="1"/>
        <pt x="268" y="424" on="0"/>
        <pt x="345" y="371" on="0"/>
        <pt x="345" y="326" on="1"/>
        <pt x="345" y="258" on="0"/>
        <pt x="261" y="222" on="1"/>
      </contour>
      <contour>
        <pt x="178" y="370" on="0"/>
        <pt x="140" y="341" on="0"/>
        <pt x="140" y="313" on="1"/>
        <pt x="140" y="288" on="0"/>
        <pt x="166" y="258" on="0"/>
        <pt x="198" y="247" on="1"/>
        <pt x="208" y="244" on="1"/>
        <pt x="239" y="259" on="0"/>
        <pt x="269" y="295" on="0"/>
        <pt x="269" y="319" on="1"/>
        <pt x="269" y="343" on="0"/>
        <pt x="239" y="370" on="0"/>
        <pt x="208" y="370" on="1"/>
      </contour>
      <contour>
        <pt x="204" y="49" on="0"/>
        <pt x="255" y="89" on="0"/>
        <pt x="255" y="120" on="1"/>
        <pt x="255" y="145" on="0"/>
        <pt x="223" y="176" on="0"/>
        <pt x="185" y="190" on="1"/>
        <pt x="167" y="196" on="1"/>
        <pt x="127" y="179" on="0"/>
        <pt x="97" y="135" on="0"/>
        <pt x="97" y="103" on="1"/>
        <pt x="97" y="79" on="0"/>
        <pt x="132" y="49" on="0"/>
        <pt x="163" y="49" on="1"/>
      </contour>
    </TTGlyph>
    <TTGlyph name="eight.numr" xMin="20" yMin="263" xMax="346" yMax="696">
      <component glyphName="eight.dnom" x="1" y="272" flags="0x0"/>
    </TTGlyph>
    <TTGlyph name="eight.osf" xMin="31" yMin="-12" xMax="510" yMax="679">
      <contour>
        <pt x="490" y="304" on="0"/>
        <pt x="490" y="202" on="1"/>
        <pt x="490" y="141" on="0"/>
        <pt x="423" y="43" on="0"/>
        <pt x="307" y="-12" on="0"/>
        <pt x="236" y="-12" on="1"/>
        <pt x="142" y="-12" on="0"/>
        <pt x="31" y="84" on="0"/>
        <pt x="31" y="162" on="1"/>
        <pt x="31" y="223" on="0"/>
        <pt x="101" y="319" on="0"/>
        <pt x="187" y="354" on="1"/>
        <pt x="105" y="401" on="0"/>
        <pt x="105" y="493" on="1"/>
        <pt x="105" y="553" on="0"/>
        <pt x="169" y="637" on="0"/>
        <pt x="271" y="679" on="0"/>
        <pt x="327" y="679" on="1"/>
        <pt x="375" y="679" on="0"/>
        <pt x="459" y="644" on="0"/>
        <pt x="510" y="574" on="0"/>
        <pt x="510" y="525" on="1"/>
        <pt x="510" y="467" on="0"/>
        <pt x="446" y="389" on="0"/>
        <pt x="375" y="357" on="1"/>
      </contour>
      <contour>
        <pt x="257" y="610" on="0"/>
        <pt x="193" y="539" on="0"/>
        <pt x="193" y="494" on="1"/>
        <pt x="193" y="462" on="0"/>
        <pt x="217" y="423" on="0"/>
        <pt x="261" y="399" on="0"/>
        <pt x="299" y="386" on="1"/>
        <pt x="313" y="382" on="1"/>
        <pt x="376" y="415" on="0"/>
        <pt x="421" y="483" on="0"/>
        <pt x="421" y="524" on="1"/>
        <pt x="421" y="565" on="0"/>
        <pt x="372" y="610" on="0"/>
        <pt x="326" y="610" on="1"/>
      </contour>
      <contour>
        <pt x="310" y="61" on="0"/>
        <pt x="397" y="142" on="0"/>
        <pt x="397" y="206" on="1"/>
        <pt x="397" y="245" on="0"/>
        <pt x="341" y="294" on="0"/>
        <pt x="271" y="320" on="1"/>
        <pt x="249" y="327" on="1"/>
        <pt x="125" y="273" on="0"/>
        <pt x="125" y="163" on="1"/>
        <pt x="125" y="115" on="0"/>
        <pt x="186" y="61" on="0"/>
        <pt x="240" y="61" on="1"/>
      </contour>
    </TTGlyph>
    <TTGlyph name="eight.tf" xMin="36" yMin="-12" xMax="521" yMax="701">
      <contour>
        <pt x="441" y="342" on="0"/>
        <pt x="500" y="257" on="0"/>
        <pt x="500" y="199" on="1"/>
        <pt x="500" y="149" on="0"/>
        <pt x="446" y="52" on="0"/>
        <pt x="330" y="-12" on="0"/>
        <pt x="243" y="-12" on="1"/>
        <pt x="181" y="-12" on="0"/>
        <pt x="87" y="34" on="0"/>
        <pt x="36" y="117" on="0"/>
        <pt x="36" y="170" on="1"/>
        <pt x="36" y="232" on="0"/>
        <pt x="108" y="329" on="0"/>
        <pt x="196" y="364" on="1"/>
        <pt x="153" y="390" on="0"/>
        <pt x="112" y="458" on="0"/>
        <pt x="112" y="504" on="1"/>
        <pt x="112" y="552" on="0"/>
        <pt x="163" y="643" on="0"/>
        <pt x="265" y="701" on="0"/>
        <pt x="337" y="701" on="1"/>
        <pt x="385" y="701" on="0"/>
        <pt x="470" y="664" on="0"/>
        <pt x="521" y="591" on="0"/>
        <pt x="521" y="541" on="1"/>
        <pt x="521" y="480" on="0"/>
        <pt x="457" y="400" on="0"/>
        <pt x="385" y="367" on="1"/>
      </contour>
      <contour>
        <pt x="286" y="632" on="0"/>
        <pt x="225" y="591" on="0"/>
        <pt x="200" y="533" on="0"/>
        <pt x="200" y="504" on="1"/>
        <pt x="200" y="460" on="0"/>
        <pt x="255" y="411" on="0"/>
        <pt x="315" y="392" on="1"/>
        <pt x="321" y="391" on="1"/>
        <pt x="386" y="424" on="0"/>
        <pt x="432" y="495" on="0"/>
        <pt x="432" y="539" on="1"/>
        <pt x="432" y="582" on="0"/>
        <pt x="382" y="632" on="0"/>
        <pt x="336" y="632" on="1"/>
      </contour>
      <contour>
        <pt x="302" y="61" on="0"/>
        <pt x="374" y="105" on="0"/>
        <pt x="406" y="169" on="0"/>
        <pt x="406" y="202" on="1"/>
        <pt x="406" y="250" on="0"/>
        <pt x="347" y="308" on="0"/>
        <pt x="275" y="330" on="1"/>
        <pt x="256" y="337" on="1"/>
        <pt x="186" y="305" on="0"/>
        <pt x="130" y="215" on="0"/>
        <pt x="130" y="168" on="1"/>
        <pt x="130" y="119" on="0"/>
        <pt x="193" y="61" on="0"/>
        <pt x="246" y="61" on="1"/>
      </contour>
    </TTGlyph>
    <TTGlyph name="eight.tosf" xMin="40" yMin="-12" xMax="523" yMax="679">
      <contour>
        <pt x="503" y="304" on="0"/>
        <pt x="503" y="202" on="1"/>
        <pt x="503" y="141" on="0"/>
        <pt x="436" y="43" on="0"/>
        <pt x="319" y="-12" on="0"/>
        <pt x="247" y="-12" on="1"/>
        <pt x="185" y="-12" on="0"/>
        <pt x="91" y="32" on="0"/>
        <pt x="40" y="111" on="0"/>
        <pt x="40" y="162" on="1"/>
        <pt x="40" y="223" on="0"/>
        <pt x="110" y="319" on="0"/>
        <pt x="196" y="354" on="1"/>
        <pt x="114" y="401" on="0"/>
        <pt x="114" y="493" on="1"/>
        <pt x="114" y="553" on="0"/>
        <pt x="179" y="637" on="0"/>
        <pt x="282" y="679" on="0"/>
        <pt x="338" y="679" on="1"/>
        <pt x="387" y="679" on="0"/>
        <pt x="472" y="644" on="0"/>
        <pt x="523" y="574" on="0"/>
        <pt x="523" y="525" on="1"/>
        <pt x="523" y="467" on="0"/>
        <pt x="458" y="389" on="0"/>
        <pt x="387" y="357" on="1"/>
      </contour>
      <contour>
        <pt x="268" y="610" on="0"/>
        <pt x="202" y="539" on="0"/>
        <pt x="202" y="494" on="1"/>
        <pt x="202" y="462" on="0"/>
        <pt x="227" y="423" on="0"/>
        <pt x="271" y="400" on="0"/>
        <pt x="310" y="386" on="1"/>
        <pt x="324" y="381" on="1"/>
        <pt x="389" y="415" on="0"/>
        <pt x="434" y="483" on="0"/>
        <pt x="434" y="524" on="1"/>
        <pt x="434" y="565" on="0"/>
        <pt x="385" y="610" on="0"/>
        <pt x="337" y="610" on="1"/>
      </contour>
      <contour>
        <pt x="322" y="61" on="0"/>
        <pt x="410" y="142" on="0"/>
        <pt x="410" y="206" on="1"/>
        <pt x="410" y="246" on="0"/>
        <pt x="352" y="298" on="0"/>
        <pt x="282" y="320" on="1"/>
        <pt x="259" y="327" on="1"/>
        <pt x="134" y="272" on="0"/>
        <pt x="134" y="163" on="1"/>
        <pt x="134" y="115" on="0"/>
        <pt x="197" y="61" on="0"/>
        <pt x="251" y="61" on="1"/>
      </contour>
    </TTGlyph>
    <TTGlyph name="eightinferior" xMin="-46" yMin="-211" xMax="280" yMax="222">
      <component glyphName="eight.dnom" x="-65" y="-202" flags="0x0"/>
    </TTGlyph>
    <TTGlyph name="eightsuperior" xMin="27" yMin="313" xMax="353" yMax="746">
      <component glyphName="eight.dnom" x="8" y="322" flags="0x0"/>
    </TTGlyph>
    <TTGlyph name="ellipsis" xMin="23" yMin="-12" xMax="658" yMax="127">
      <component glyphName="period" x="249" y="0" flags="0x0"/>
      <component glyphName="period" x="498" y="0" flags="0x0"/>
      <component glyphName="period" x="0" y="0" flags="0x0"/>
    </TTGlyph>
    <TTGlyph name="emacron" xMin="52" yMin="-12" xMax="490" yMax="736">
      <component glyphName="e" x="0" y="0" flags="0x0"/>
      <component glyphName="macron" x="113" y="0" flags="0x0"/>
    </TTGlyph>
    <TTGlyph name="emacron.sc" xMin="62" yMin="0" xMax="472" yMax="766">
      <component glyphName="e.sc" x="0" y="0" flags="0x0"/>
      <component glyphName="macron.sc" x="145" y="0" flags="0x0"/>
    </TTGlyph>
</ttFont>
